%TF.GenerationSoftware,KiCad,Pcbnew,9.0.4*%
%TF.CreationDate,2025-10-03T02:01:57-07:00*%
%TF.ProjectId,Toolhead PCB,546f6f6c-6865-4616-9420-5043422e6b69,0.5*%
%TF.SameCoordinates,Original*%
%TF.FileFunction,Legend,Bot*%
%TF.FilePolarity,Positive*%
%FSLAX46Y46*%
G04 Gerber Fmt 4.6, Leading zero omitted, Abs format (unit mm)*
G04 Created by KiCad (PCBNEW 9.0.4) date 2025-10-03 02:01:57*
%MOMM*%
%LPD*%
G01*
G04 APERTURE LIST*
%ADD10C,0.150000*%
%ADD11C,0.120000*%
G04 APERTURE END LIST*
D10*
X123216547Y-48705595D02*
X122581547Y-48705595D01*
X122581547Y-48705595D02*
X122581547Y-48947500D01*
X122581547Y-48947500D02*
X122611785Y-49007976D01*
X122611785Y-49007976D02*
X122642023Y-49038214D01*
X122642023Y-49038214D02*
X122702499Y-49068452D01*
X122702499Y-49068452D02*
X122793213Y-49068452D01*
X122793213Y-49068452D02*
X122853689Y-49038214D01*
X122853689Y-49038214D02*
X122883928Y-49007976D01*
X122883928Y-49007976D02*
X122914166Y-48947500D01*
X122914166Y-48947500D02*
X122914166Y-48705595D01*
X123216547Y-49340595D02*
X122793213Y-49340595D01*
X122581547Y-49340595D02*
X122611785Y-49310357D01*
X122611785Y-49310357D02*
X122642023Y-49340595D01*
X122642023Y-49340595D02*
X122611785Y-49370833D01*
X122611785Y-49370833D02*
X122581547Y-49340595D01*
X122581547Y-49340595D02*
X122642023Y-49340595D01*
X123186309Y-49915119D02*
X123216547Y-49854643D01*
X123216547Y-49854643D02*
X123216547Y-49733690D01*
X123216547Y-49733690D02*
X123186309Y-49673214D01*
X123186309Y-49673214D02*
X123156070Y-49642976D01*
X123156070Y-49642976D02*
X123095594Y-49612738D01*
X123095594Y-49612738D02*
X122914166Y-49612738D01*
X122914166Y-49612738D02*
X122853689Y-49642976D01*
X122853689Y-49642976D02*
X122823451Y-49673214D01*
X122823451Y-49673214D02*
X122793213Y-49733690D01*
X122793213Y-49733690D02*
X122793213Y-49854643D01*
X122793213Y-49854643D02*
X122823451Y-49915119D01*
X123216547Y-50277976D02*
X123186309Y-50217500D01*
X123186309Y-50217500D02*
X123156070Y-50187262D01*
X123156070Y-50187262D02*
X123095594Y-50157024D01*
X123095594Y-50157024D02*
X122914166Y-50157024D01*
X122914166Y-50157024D02*
X122853689Y-50187262D01*
X122853689Y-50187262D02*
X122823451Y-50217500D01*
X122823451Y-50217500D02*
X122793213Y-50277976D01*
X122793213Y-50277976D02*
X122793213Y-50368691D01*
X122793213Y-50368691D02*
X122823451Y-50429167D01*
X122823451Y-50429167D02*
X122853689Y-50459405D01*
X122853689Y-50459405D02*
X122914166Y-50489643D01*
X122914166Y-50489643D02*
X123095594Y-50489643D01*
X123095594Y-50489643D02*
X123156070Y-50459405D01*
X123156070Y-50459405D02*
X123186309Y-50429167D01*
X123186309Y-50429167D02*
X123216547Y-50368691D01*
X123216547Y-50368691D02*
X123216547Y-50277976D01*
X123156070Y-51124643D02*
X123186309Y-51094405D01*
X123186309Y-51094405D02*
X123216547Y-51003691D01*
X123216547Y-51003691D02*
X123216547Y-50943215D01*
X123216547Y-50943215D02*
X123186309Y-50852500D01*
X123186309Y-50852500D02*
X123125832Y-50792024D01*
X123125832Y-50792024D02*
X123065356Y-50761786D01*
X123065356Y-50761786D02*
X122944404Y-50731548D01*
X122944404Y-50731548D02*
X122853689Y-50731548D01*
X122853689Y-50731548D02*
X122732737Y-50761786D01*
X122732737Y-50761786D02*
X122672261Y-50792024D01*
X122672261Y-50792024D02*
X122611785Y-50852500D01*
X122611785Y-50852500D02*
X122581547Y-50943215D01*
X122581547Y-50943215D02*
X122581547Y-51003691D01*
X122581547Y-51003691D02*
X122611785Y-51094405D01*
X122611785Y-51094405D02*
X122642023Y-51124643D01*
X114128571Y-71278152D02*
X114128571Y-72278152D01*
X113652381Y-71801961D02*
X113604762Y-71897200D01*
X113604762Y-71897200D02*
X113509524Y-71944819D01*
X114128571Y-71801961D02*
X114080952Y-71897200D01*
X114080952Y-71897200D02*
X113985714Y-71944819D01*
X113985714Y-71944819D02*
X113795238Y-71944819D01*
X113795238Y-71944819D02*
X113700000Y-71897200D01*
X113700000Y-71897200D02*
X113652381Y-71801961D01*
X113652381Y-71801961D02*
X113652381Y-71278152D01*
X113080952Y-71944819D02*
X113080952Y-70944819D01*
X113080952Y-70944819D02*
X112700000Y-70944819D01*
X112700000Y-70944819D02*
X112604762Y-70992438D01*
X112604762Y-70992438D02*
X112557143Y-71040057D01*
X112557143Y-71040057D02*
X112509524Y-71135295D01*
X112509524Y-71135295D02*
X112509524Y-71278152D01*
X112509524Y-71278152D02*
X112557143Y-71373390D01*
X112557143Y-71373390D02*
X112604762Y-71421009D01*
X112604762Y-71421009D02*
X112700000Y-71468628D01*
X112700000Y-71468628D02*
X113080952Y-71468628D01*
X112080952Y-71944819D02*
X112080952Y-71278152D01*
X112080952Y-71468628D02*
X112033333Y-71373390D01*
X112033333Y-71373390D02*
X111985714Y-71325771D01*
X111985714Y-71325771D02*
X111890476Y-71278152D01*
X111890476Y-71278152D02*
X111795238Y-71278152D01*
X111319047Y-71944819D02*
X111414285Y-71897200D01*
X111414285Y-71897200D02*
X111461904Y-71849580D01*
X111461904Y-71849580D02*
X111509523Y-71754342D01*
X111509523Y-71754342D02*
X111509523Y-71468628D01*
X111509523Y-71468628D02*
X111461904Y-71373390D01*
X111461904Y-71373390D02*
X111414285Y-71325771D01*
X111414285Y-71325771D02*
X111319047Y-71278152D01*
X111319047Y-71278152D02*
X111176190Y-71278152D01*
X111176190Y-71278152D02*
X111080952Y-71325771D01*
X111080952Y-71325771D02*
X111033333Y-71373390D01*
X111033333Y-71373390D02*
X110985714Y-71468628D01*
X110985714Y-71468628D02*
X110985714Y-71754342D01*
X110985714Y-71754342D02*
X111033333Y-71849580D01*
X111033333Y-71849580D02*
X111080952Y-71897200D01*
X111080952Y-71897200D02*
X111176190Y-71944819D01*
X111176190Y-71944819D02*
X111319047Y-71944819D01*
X110557142Y-71944819D02*
X110557142Y-70944819D01*
X110557142Y-71325771D02*
X110461904Y-71278152D01*
X110461904Y-71278152D02*
X110271428Y-71278152D01*
X110271428Y-71278152D02*
X110176190Y-71325771D01*
X110176190Y-71325771D02*
X110128571Y-71373390D01*
X110128571Y-71373390D02*
X110080952Y-71468628D01*
X110080952Y-71468628D02*
X110080952Y-71754342D01*
X110080952Y-71754342D02*
X110128571Y-71849580D01*
X110128571Y-71849580D02*
X110176190Y-71897200D01*
X110176190Y-71897200D02*
X110271428Y-71944819D01*
X110271428Y-71944819D02*
X110461904Y-71944819D01*
X110461904Y-71944819D02*
X110557142Y-71897200D01*
X109271428Y-71897200D02*
X109366666Y-71944819D01*
X109366666Y-71944819D02*
X109557142Y-71944819D01*
X109557142Y-71944819D02*
X109652380Y-71897200D01*
X109652380Y-71897200D02*
X109699999Y-71801961D01*
X109699999Y-71801961D02*
X109699999Y-71421009D01*
X109699999Y-71421009D02*
X109652380Y-71325771D01*
X109652380Y-71325771D02*
X109557142Y-71278152D01*
X109557142Y-71278152D02*
X109366666Y-71278152D01*
X109366666Y-71278152D02*
X109271428Y-71325771D01*
X109271428Y-71325771D02*
X109223809Y-71421009D01*
X109223809Y-71421009D02*
X109223809Y-71516247D01*
X109223809Y-71516247D02*
X109699999Y-71611485D01*
X124116547Y-46860952D02*
X123481547Y-46860952D01*
X123481547Y-46860952D02*
X123481547Y-47102857D01*
X123481547Y-47102857D02*
X123511785Y-47163333D01*
X123511785Y-47163333D02*
X123542023Y-47193571D01*
X123542023Y-47193571D02*
X123602499Y-47223809D01*
X123602499Y-47223809D02*
X123693213Y-47223809D01*
X123693213Y-47223809D02*
X123753689Y-47193571D01*
X123753689Y-47193571D02*
X123783928Y-47163333D01*
X123783928Y-47163333D02*
X123814166Y-47102857D01*
X123814166Y-47102857D02*
X123814166Y-46860952D01*
X124116547Y-47495952D02*
X123693213Y-47495952D01*
X123481547Y-47495952D02*
X123511785Y-47465714D01*
X123511785Y-47465714D02*
X123542023Y-47495952D01*
X123542023Y-47495952D02*
X123511785Y-47526190D01*
X123511785Y-47526190D02*
X123481547Y-47495952D01*
X123481547Y-47495952D02*
X123542023Y-47495952D01*
X124086309Y-48070476D02*
X124116547Y-48010000D01*
X124116547Y-48010000D02*
X124116547Y-47889047D01*
X124116547Y-47889047D02*
X124086309Y-47828571D01*
X124086309Y-47828571D02*
X124056070Y-47798333D01*
X124056070Y-47798333D02*
X123995594Y-47768095D01*
X123995594Y-47768095D02*
X123814166Y-47768095D01*
X123814166Y-47768095D02*
X123753689Y-47798333D01*
X123753689Y-47798333D02*
X123723451Y-47828571D01*
X123723451Y-47828571D02*
X123693213Y-47889047D01*
X123693213Y-47889047D02*
X123693213Y-48010000D01*
X123693213Y-48010000D02*
X123723451Y-48070476D01*
X124116547Y-48433333D02*
X124086309Y-48372857D01*
X124086309Y-48372857D02*
X124056070Y-48342619D01*
X124056070Y-48342619D02*
X123995594Y-48312381D01*
X123995594Y-48312381D02*
X123814166Y-48312381D01*
X123814166Y-48312381D02*
X123753689Y-48342619D01*
X123753689Y-48342619D02*
X123723451Y-48372857D01*
X123723451Y-48372857D02*
X123693213Y-48433333D01*
X123693213Y-48433333D02*
X123693213Y-48524048D01*
X123693213Y-48524048D02*
X123723451Y-48584524D01*
X123723451Y-48584524D02*
X123753689Y-48614762D01*
X123753689Y-48614762D02*
X123814166Y-48645000D01*
X123814166Y-48645000D02*
X123995594Y-48645000D01*
X123995594Y-48645000D02*
X124056070Y-48614762D01*
X124056070Y-48614762D02*
X124086309Y-48584524D01*
X124086309Y-48584524D02*
X124116547Y-48524048D01*
X124116547Y-48524048D02*
X124116547Y-48433333D01*
X123935118Y-48886905D02*
X123935118Y-49189286D01*
X124116547Y-48826429D02*
X123481547Y-49038095D01*
X123481547Y-49038095D02*
X124116547Y-49249762D01*
X119816547Y-48705595D02*
X119181547Y-48705595D01*
X119181547Y-48705595D02*
X119181547Y-48947500D01*
X119181547Y-48947500D02*
X119211785Y-49007976D01*
X119211785Y-49007976D02*
X119242023Y-49038214D01*
X119242023Y-49038214D02*
X119302499Y-49068452D01*
X119302499Y-49068452D02*
X119393213Y-49068452D01*
X119393213Y-49068452D02*
X119453689Y-49038214D01*
X119453689Y-49038214D02*
X119483928Y-49007976D01*
X119483928Y-49007976D02*
X119514166Y-48947500D01*
X119514166Y-48947500D02*
X119514166Y-48705595D01*
X119816547Y-49340595D02*
X119393213Y-49340595D01*
X119181547Y-49340595D02*
X119211785Y-49310357D01*
X119211785Y-49310357D02*
X119242023Y-49340595D01*
X119242023Y-49340595D02*
X119211785Y-49370833D01*
X119211785Y-49370833D02*
X119181547Y-49340595D01*
X119181547Y-49340595D02*
X119242023Y-49340595D01*
X119786309Y-49915119D02*
X119816547Y-49854643D01*
X119816547Y-49854643D02*
X119816547Y-49733690D01*
X119816547Y-49733690D02*
X119786309Y-49673214D01*
X119786309Y-49673214D02*
X119756070Y-49642976D01*
X119756070Y-49642976D02*
X119695594Y-49612738D01*
X119695594Y-49612738D02*
X119514166Y-49612738D01*
X119514166Y-49612738D02*
X119453689Y-49642976D01*
X119453689Y-49642976D02*
X119423451Y-49673214D01*
X119423451Y-49673214D02*
X119393213Y-49733690D01*
X119393213Y-49733690D02*
X119393213Y-49854643D01*
X119393213Y-49854643D02*
X119423451Y-49915119D01*
X119816547Y-50277976D02*
X119786309Y-50217500D01*
X119786309Y-50217500D02*
X119756070Y-50187262D01*
X119756070Y-50187262D02*
X119695594Y-50157024D01*
X119695594Y-50157024D02*
X119514166Y-50157024D01*
X119514166Y-50157024D02*
X119453689Y-50187262D01*
X119453689Y-50187262D02*
X119423451Y-50217500D01*
X119423451Y-50217500D02*
X119393213Y-50277976D01*
X119393213Y-50277976D02*
X119393213Y-50368691D01*
X119393213Y-50368691D02*
X119423451Y-50429167D01*
X119423451Y-50429167D02*
X119453689Y-50459405D01*
X119453689Y-50459405D02*
X119514166Y-50489643D01*
X119514166Y-50489643D02*
X119695594Y-50489643D01*
X119695594Y-50489643D02*
X119756070Y-50459405D01*
X119756070Y-50459405D02*
X119786309Y-50429167D01*
X119786309Y-50429167D02*
X119816547Y-50368691D01*
X119816547Y-50368691D02*
X119816547Y-50277976D01*
X119483928Y-50973453D02*
X119514166Y-51064167D01*
X119514166Y-51064167D02*
X119544404Y-51094405D01*
X119544404Y-51094405D02*
X119604880Y-51124643D01*
X119604880Y-51124643D02*
X119695594Y-51124643D01*
X119695594Y-51124643D02*
X119756070Y-51094405D01*
X119756070Y-51094405D02*
X119786309Y-51064167D01*
X119786309Y-51064167D02*
X119816547Y-51003691D01*
X119816547Y-51003691D02*
X119816547Y-50761786D01*
X119816547Y-50761786D02*
X119181547Y-50761786D01*
X119181547Y-50761786D02*
X119181547Y-50973453D01*
X119181547Y-50973453D02*
X119211785Y-51033929D01*
X119211785Y-51033929D02*
X119242023Y-51064167D01*
X119242023Y-51064167D02*
X119302499Y-51094405D01*
X119302499Y-51094405D02*
X119362975Y-51094405D01*
X119362975Y-51094405D02*
X119423451Y-51064167D01*
X119423451Y-51064167D02*
X119453689Y-51033929D01*
X119453689Y-51033929D02*
X119483928Y-50973453D01*
X119483928Y-50973453D02*
X119483928Y-50761786D01*
X105123809Y-65154819D02*
X105123809Y-64154819D01*
X105123809Y-64154819D02*
X104742857Y-64154819D01*
X104742857Y-64154819D02*
X104647619Y-64202438D01*
X104647619Y-64202438D02*
X104600000Y-64250057D01*
X104600000Y-64250057D02*
X104552381Y-64345295D01*
X104552381Y-64345295D02*
X104552381Y-64488152D01*
X104552381Y-64488152D02*
X104600000Y-64583390D01*
X104600000Y-64583390D02*
X104647619Y-64631009D01*
X104647619Y-64631009D02*
X104742857Y-64678628D01*
X104742857Y-64678628D02*
X105123809Y-64678628D01*
X103695238Y-65154819D02*
X103695238Y-64631009D01*
X103695238Y-64631009D02*
X103742857Y-64535771D01*
X103742857Y-64535771D02*
X103838095Y-64488152D01*
X103838095Y-64488152D02*
X104028571Y-64488152D01*
X104028571Y-64488152D02*
X104123809Y-64535771D01*
X103695238Y-65107200D02*
X103790476Y-65154819D01*
X103790476Y-65154819D02*
X104028571Y-65154819D01*
X104028571Y-65154819D02*
X104123809Y-65107200D01*
X104123809Y-65107200D02*
X104171428Y-65011961D01*
X104171428Y-65011961D02*
X104171428Y-64916723D01*
X104171428Y-64916723D02*
X104123809Y-64821485D01*
X104123809Y-64821485D02*
X104028571Y-64773866D01*
X104028571Y-64773866D02*
X103790476Y-64773866D01*
X103790476Y-64773866D02*
X103695238Y-64726247D01*
X103219047Y-65154819D02*
X103219047Y-64488152D01*
X103219047Y-64678628D02*
X103171428Y-64583390D01*
X103171428Y-64583390D02*
X103123809Y-64535771D01*
X103123809Y-64535771D02*
X103028571Y-64488152D01*
X103028571Y-64488152D02*
X102933333Y-64488152D01*
X102742856Y-64488152D02*
X102361904Y-64488152D01*
X102599999Y-64154819D02*
X102599999Y-65011961D01*
X102599999Y-65011961D02*
X102552380Y-65107200D01*
X102552380Y-65107200D02*
X102457142Y-65154819D01*
X102457142Y-65154819D02*
X102361904Y-65154819D01*
X100933332Y-64631009D02*
X101266665Y-64631009D01*
X101266665Y-65154819D02*
X101266665Y-64154819D01*
X101266665Y-64154819D02*
X100790475Y-64154819D01*
X99980951Y-65154819D02*
X99980951Y-64631009D01*
X99980951Y-64631009D02*
X100028570Y-64535771D01*
X100028570Y-64535771D02*
X100123808Y-64488152D01*
X100123808Y-64488152D02*
X100314284Y-64488152D01*
X100314284Y-64488152D02*
X100409522Y-64535771D01*
X99980951Y-65107200D02*
X100076189Y-65154819D01*
X100076189Y-65154819D02*
X100314284Y-65154819D01*
X100314284Y-65154819D02*
X100409522Y-65107200D01*
X100409522Y-65107200D02*
X100457141Y-65011961D01*
X100457141Y-65011961D02*
X100457141Y-64916723D01*
X100457141Y-64916723D02*
X100409522Y-64821485D01*
X100409522Y-64821485D02*
X100314284Y-64773866D01*
X100314284Y-64773866D02*
X100076189Y-64773866D01*
X100076189Y-64773866D02*
X99980951Y-64726247D01*
X99504760Y-64488152D02*
X99504760Y-65154819D01*
X99504760Y-64583390D02*
X99457141Y-64535771D01*
X99457141Y-64535771D02*
X99361903Y-64488152D01*
X99361903Y-64488152D02*
X99219046Y-64488152D01*
X99219046Y-64488152D02*
X99123808Y-64535771D01*
X99123808Y-64535771D02*
X99076189Y-64631009D01*
X99076189Y-64631009D02*
X99076189Y-65154819D01*
X124614286Y-65154819D02*
X124614286Y-64154819D01*
X124614286Y-64631009D02*
X124042858Y-64631009D01*
X124042858Y-65154819D02*
X124042858Y-64154819D01*
X123185715Y-65107200D02*
X123280953Y-65154819D01*
X123280953Y-65154819D02*
X123471429Y-65154819D01*
X123471429Y-65154819D02*
X123566667Y-65107200D01*
X123566667Y-65107200D02*
X123614286Y-65011961D01*
X123614286Y-65011961D02*
X123614286Y-64631009D01*
X123614286Y-64631009D02*
X123566667Y-64535771D01*
X123566667Y-64535771D02*
X123471429Y-64488152D01*
X123471429Y-64488152D02*
X123280953Y-64488152D01*
X123280953Y-64488152D02*
X123185715Y-64535771D01*
X123185715Y-64535771D02*
X123138096Y-64631009D01*
X123138096Y-64631009D02*
X123138096Y-64726247D01*
X123138096Y-64726247D02*
X123614286Y-64821485D01*
X122280953Y-65154819D02*
X122280953Y-64631009D01*
X122280953Y-64631009D02*
X122328572Y-64535771D01*
X122328572Y-64535771D02*
X122423810Y-64488152D01*
X122423810Y-64488152D02*
X122614286Y-64488152D01*
X122614286Y-64488152D02*
X122709524Y-64535771D01*
X122280953Y-65107200D02*
X122376191Y-65154819D01*
X122376191Y-65154819D02*
X122614286Y-65154819D01*
X122614286Y-65154819D02*
X122709524Y-65107200D01*
X122709524Y-65107200D02*
X122757143Y-65011961D01*
X122757143Y-65011961D02*
X122757143Y-64916723D01*
X122757143Y-64916723D02*
X122709524Y-64821485D01*
X122709524Y-64821485D02*
X122614286Y-64773866D01*
X122614286Y-64773866D02*
X122376191Y-64773866D01*
X122376191Y-64773866D02*
X122280953Y-64726247D01*
X121947619Y-64488152D02*
X121566667Y-64488152D01*
X121804762Y-64154819D02*
X121804762Y-65011961D01*
X121804762Y-65011961D02*
X121757143Y-65107200D01*
X121757143Y-65107200D02*
X121661905Y-65154819D01*
X121661905Y-65154819D02*
X121566667Y-65154819D01*
X121233333Y-65154819D02*
X121233333Y-64154819D01*
X121233333Y-64535771D02*
X121138095Y-64488152D01*
X121138095Y-64488152D02*
X120947619Y-64488152D01*
X120947619Y-64488152D02*
X120852381Y-64535771D01*
X120852381Y-64535771D02*
X120804762Y-64583390D01*
X120804762Y-64583390D02*
X120757143Y-64678628D01*
X120757143Y-64678628D02*
X120757143Y-64964342D01*
X120757143Y-64964342D02*
X120804762Y-65059580D01*
X120804762Y-65059580D02*
X120852381Y-65107200D01*
X120852381Y-65107200D02*
X120947619Y-65154819D01*
X120947619Y-65154819D02*
X121138095Y-65154819D01*
X121138095Y-65154819D02*
X121233333Y-65107200D01*
X120328571Y-65154819D02*
X120328571Y-64488152D01*
X120328571Y-64678628D02*
X120280952Y-64583390D01*
X120280952Y-64583390D02*
X120233333Y-64535771D01*
X120233333Y-64535771D02*
X120138095Y-64488152D01*
X120138095Y-64488152D02*
X120042857Y-64488152D01*
X119328571Y-65107200D02*
X119423809Y-65154819D01*
X119423809Y-65154819D02*
X119614285Y-65154819D01*
X119614285Y-65154819D02*
X119709523Y-65107200D01*
X119709523Y-65107200D02*
X119757142Y-65011961D01*
X119757142Y-65011961D02*
X119757142Y-64631009D01*
X119757142Y-64631009D02*
X119709523Y-64535771D01*
X119709523Y-64535771D02*
X119614285Y-64488152D01*
X119614285Y-64488152D02*
X119423809Y-64488152D01*
X119423809Y-64488152D02*
X119328571Y-64535771D01*
X119328571Y-64535771D02*
X119280952Y-64631009D01*
X119280952Y-64631009D02*
X119280952Y-64726247D01*
X119280952Y-64726247D02*
X119757142Y-64821485D01*
X118423809Y-65154819D02*
X118423809Y-64631009D01*
X118423809Y-64631009D02*
X118471428Y-64535771D01*
X118471428Y-64535771D02*
X118566666Y-64488152D01*
X118566666Y-64488152D02*
X118757142Y-64488152D01*
X118757142Y-64488152D02*
X118852380Y-64535771D01*
X118423809Y-65107200D02*
X118519047Y-65154819D01*
X118519047Y-65154819D02*
X118757142Y-65154819D01*
X118757142Y-65154819D02*
X118852380Y-65107200D01*
X118852380Y-65107200D02*
X118899999Y-65011961D01*
X118899999Y-65011961D02*
X118899999Y-64916723D01*
X118899999Y-64916723D02*
X118852380Y-64821485D01*
X118852380Y-64821485D02*
X118757142Y-64773866D01*
X118757142Y-64773866D02*
X118519047Y-64773866D01*
X118519047Y-64773866D02*
X118423809Y-64726247D01*
X117947618Y-65154819D02*
X117947618Y-64154819D01*
X117852380Y-64773866D02*
X117566666Y-65154819D01*
X117566666Y-64488152D02*
X117947618Y-64869104D01*
X116042856Y-64631009D02*
X116376189Y-64631009D01*
X116376189Y-65154819D02*
X116376189Y-64154819D01*
X116376189Y-64154819D02*
X115899999Y-64154819D01*
X115090475Y-65154819D02*
X115090475Y-64631009D01*
X115090475Y-64631009D02*
X115138094Y-64535771D01*
X115138094Y-64535771D02*
X115233332Y-64488152D01*
X115233332Y-64488152D02*
X115423808Y-64488152D01*
X115423808Y-64488152D02*
X115519046Y-64535771D01*
X115090475Y-65107200D02*
X115185713Y-65154819D01*
X115185713Y-65154819D02*
X115423808Y-65154819D01*
X115423808Y-65154819D02*
X115519046Y-65107200D01*
X115519046Y-65107200D02*
X115566665Y-65011961D01*
X115566665Y-65011961D02*
X115566665Y-64916723D01*
X115566665Y-64916723D02*
X115519046Y-64821485D01*
X115519046Y-64821485D02*
X115423808Y-64773866D01*
X115423808Y-64773866D02*
X115185713Y-64773866D01*
X115185713Y-64773866D02*
X115090475Y-64726247D01*
X114614284Y-64488152D02*
X114614284Y-65154819D01*
X114614284Y-64583390D02*
X114566665Y-64535771D01*
X114566665Y-64535771D02*
X114471427Y-64488152D01*
X114471427Y-64488152D02*
X114328570Y-64488152D01*
X114328570Y-64488152D02*
X114233332Y-64535771D01*
X114233332Y-64535771D02*
X114185713Y-64631009D01*
X114185713Y-64631009D02*
X114185713Y-65154819D01*
D11*
%TO.C,J9*%
X105509416Y-71110000D02*
X105509416Y-69860000D01*
X105809416Y-66090000D02*
X117929416Y-66090000D01*
X105809416Y-68200000D02*
X106419416Y-68200000D01*
X105809416Y-69500000D02*
X106419416Y-69500000D01*
X105809416Y-70810000D02*
X105809416Y-66090000D01*
X106419416Y-66700000D02*
X117319416Y-66700000D01*
X106419416Y-70200000D02*
X106419416Y-66700000D01*
X106759416Y-71110000D02*
X105509416Y-71110000D01*
X107269416Y-71010000D02*
X107269416Y-70810000D01*
X107569416Y-70810000D02*
X107569416Y-71010000D01*
X107569416Y-70910000D02*
X107269416Y-70910000D01*
X107569416Y-71010000D02*
X107269416Y-71010000D01*
X108369416Y-70200000D02*
X106419416Y-70200000D01*
X108369416Y-70810000D02*
X108369416Y-70200000D01*
X108769416Y-66700000D02*
X108769416Y-67200000D01*
X108769416Y-67200000D02*
X108969416Y-67200000D01*
X108869416Y-66700000D02*
X108869416Y-67200000D01*
X108969416Y-67200000D02*
X108969416Y-66700000D01*
X110769416Y-66700000D02*
X110769416Y-67200000D01*
X110769416Y-67200000D02*
X110969416Y-67200000D01*
X110869416Y-66700000D02*
X110869416Y-67200000D01*
X110969416Y-67200000D02*
X110969416Y-66700000D01*
X112769416Y-66700000D02*
X112769416Y-67200000D01*
X112769416Y-67200000D02*
X112969416Y-67200000D01*
X112869416Y-66700000D02*
X112869416Y-67200000D01*
X112969416Y-67200000D02*
X112969416Y-66700000D01*
X114769416Y-66700000D02*
X114769416Y-67200000D01*
X114769416Y-67200000D02*
X114969416Y-67200000D01*
X114869416Y-66700000D02*
X114869416Y-67200000D01*
X114969416Y-67200000D02*
X114969416Y-66700000D01*
X115369416Y-70200000D02*
X115369416Y-70810000D01*
X117319416Y-66700000D02*
X117319416Y-70200000D01*
X117319416Y-70200000D02*
X115369416Y-70200000D01*
X117929416Y-66090000D02*
X117929416Y-70810000D01*
X117929416Y-68200000D02*
X117319416Y-68200000D01*
X117929416Y-69500000D02*
X117319416Y-69500000D01*
X117929416Y-70810000D02*
X105809416Y-70810000D01*
%TO.C,J7*%
X99049416Y-65380000D02*
X105019416Y-65380000D01*
X99049416Y-73000000D02*
X99049416Y-65380000D01*
X99809416Y-66140000D02*
X99809416Y-69190000D01*
X99809416Y-72240000D02*
X99809416Y-69190000D01*
X102759416Y-65390000D02*
X102759416Y-66140000D01*
X102759416Y-66140000D02*
X99809416Y-66140000D01*
X102759416Y-72240000D02*
X99809416Y-72240000D01*
X102759416Y-72990000D02*
X102759416Y-72240000D01*
X104259416Y-65390000D02*
X105009416Y-65390000D01*
X104259416Y-67190000D02*
X104259416Y-65390000D01*
X104259416Y-68690000D02*
X105009416Y-68690000D01*
X104259416Y-69690000D02*
X104259416Y-68690000D01*
X104259416Y-71190000D02*
X105009416Y-71190000D01*
X104259416Y-72990000D02*
X104259416Y-71190000D01*
X105009416Y-65390000D02*
X105009416Y-67190000D01*
X105009416Y-67190000D02*
X104259416Y-67190000D01*
X105009416Y-68690000D02*
X105009416Y-69690000D01*
X105009416Y-69690000D02*
X104259416Y-69690000D01*
X105009416Y-71190000D02*
X105009416Y-72990000D01*
X105009416Y-72990000D02*
X104259416Y-72990000D01*
X105019416Y-65380000D02*
X105019416Y-73000000D01*
X105019416Y-73000000D02*
X99049416Y-73000000D01*
X105309416Y-72040000D02*
X105309416Y-73290000D01*
X105309416Y-73290000D02*
X104059416Y-73290000D01*
%TO.C,J6*%
X118689416Y-65400000D02*
X124659416Y-65400000D01*
X118689416Y-73020000D02*
X118689416Y-65400000D01*
X119449416Y-66160000D02*
X119449416Y-69210000D01*
X119449416Y-72260000D02*
X119449416Y-69210000D01*
X122399416Y-65410000D02*
X122399416Y-66160000D01*
X122399416Y-66160000D02*
X119449416Y-66160000D01*
X122399416Y-72260000D02*
X119449416Y-72260000D01*
X122399416Y-73010000D02*
X122399416Y-72260000D01*
X123899416Y-65410000D02*
X124649416Y-65410000D01*
X123899416Y-67210000D02*
X123899416Y-65410000D01*
X123899416Y-68710000D02*
X124649416Y-68710000D01*
X123899416Y-69710000D02*
X123899416Y-68710000D01*
X123899416Y-71210000D02*
X124649416Y-71210000D01*
X123899416Y-73010000D02*
X123899416Y-71210000D01*
X124649416Y-65410000D02*
X124649416Y-67210000D01*
X124649416Y-67210000D02*
X123899416Y-67210000D01*
X124649416Y-68710000D02*
X124649416Y-69710000D01*
X124649416Y-69710000D02*
X123899416Y-69710000D01*
X124649416Y-71210000D02*
X124649416Y-73010000D01*
X124649416Y-73010000D02*
X123899416Y-73010000D01*
X124659416Y-65400000D02*
X124659416Y-73020000D01*
X124659416Y-73020000D02*
X118689416Y-73020000D01*
X124949416Y-72060000D02*
X124949416Y-73310000D01*
X124949416Y-73310000D02*
X123699416Y-73310000D01*
%TD*%
M02*
