%TF.GenerationSoftware,KiCad,Pcbnew,9.0.4*%
%TF.CreationDate,2025-09-30T16:10:09-07:00*%
%TF.ProjectId,Toolhead PCB,546f6f6c-6865-4616-9420-5043422e6b69,0.5*%
%TF.SameCoordinates,Original*%
%TF.FileFunction,Legend,Top*%
%TF.FilePolarity,Positive*%
%FSLAX46Y46*%
G04 Gerber Fmt 4.6, Leading zero omitted, Abs format (unit mm)*
G04 Created by KiCad (PCBNEW 9.0.4) date 2025-09-30 16:10:09*
%MOMM*%
%LPD*%
G01*
G04 APERTURE LIST*
%ADD10C,0.100000*%
%ADD11C,0.150000*%
%ADD12C,0.120000*%
G04 APERTURE END LIST*
D10*
X104879416Y-62000000D02*
G75*
G02*
X99379416Y-62000000I-2750000J0D01*
G01*
X99379416Y-62000000D02*
G75*
G02*
X104879416Y-62000000I2750000J0D01*
G01*
X123379416Y-62000000D02*
G75*
G02*
X117879416Y-62000000I-2750000J0D01*
G01*
X117879416Y-62000000D02*
G75*
G02*
X123379416Y-62000000I2750000J0D01*
G01*
D11*
X126109047Y-48285963D02*
X126109047Y-47650963D01*
X126109047Y-47953344D02*
X126471904Y-47953344D01*
X126471904Y-48285963D02*
X126471904Y-47650963D01*
X127016190Y-48255725D02*
X126955714Y-48285963D01*
X126955714Y-48285963D02*
X126834761Y-48285963D01*
X126834761Y-48285963D02*
X126774285Y-48255725D01*
X126774285Y-48255725D02*
X126744047Y-48195248D01*
X126744047Y-48195248D02*
X126744047Y-47953344D01*
X126744047Y-47953344D02*
X126774285Y-47892867D01*
X126774285Y-47892867D02*
X126834761Y-47862629D01*
X126834761Y-47862629D02*
X126955714Y-47862629D01*
X126955714Y-47862629D02*
X127016190Y-47892867D01*
X127016190Y-47892867D02*
X127046428Y-47953344D01*
X127046428Y-47953344D02*
X127046428Y-48013820D01*
X127046428Y-48013820D02*
X126744047Y-48074296D01*
X127590714Y-48285963D02*
X127590714Y-47953344D01*
X127590714Y-47953344D02*
X127560476Y-47892867D01*
X127560476Y-47892867D02*
X127500000Y-47862629D01*
X127500000Y-47862629D02*
X127379047Y-47862629D01*
X127379047Y-47862629D02*
X127318571Y-47892867D01*
X127590714Y-48255725D02*
X127530238Y-48285963D01*
X127530238Y-48285963D02*
X127379047Y-48285963D01*
X127379047Y-48285963D02*
X127318571Y-48255725D01*
X127318571Y-48255725D02*
X127288333Y-48195248D01*
X127288333Y-48195248D02*
X127288333Y-48134772D01*
X127288333Y-48134772D02*
X127318571Y-48074296D01*
X127318571Y-48074296D02*
X127379047Y-48044058D01*
X127379047Y-48044058D02*
X127530238Y-48044058D01*
X127530238Y-48044058D02*
X127590714Y-48013820D01*
X127802381Y-47862629D02*
X128044285Y-47862629D01*
X127893095Y-47650963D02*
X127893095Y-48195248D01*
X127893095Y-48195248D02*
X127923333Y-48255725D01*
X127923333Y-48255725D02*
X127983809Y-48285963D01*
X127983809Y-48285963D02*
X128044285Y-48285963D01*
X128497857Y-48255725D02*
X128437381Y-48285963D01*
X128437381Y-48285963D02*
X128316428Y-48285963D01*
X128316428Y-48285963D02*
X128255952Y-48255725D01*
X128255952Y-48255725D02*
X128225714Y-48195248D01*
X128225714Y-48195248D02*
X128225714Y-47953344D01*
X128225714Y-47953344D02*
X128255952Y-47892867D01*
X128255952Y-47892867D02*
X128316428Y-47862629D01*
X128316428Y-47862629D02*
X128437381Y-47862629D01*
X128437381Y-47862629D02*
X128497857Y-47892867D01*
X128497857Y-47892867D02*
X128528095Y-47953344D01*
X128528095Y-47953344D02*
X128528095Y-48013820D01*
X128528095Y-48013820D02*
X128225714Y-48074296D01*
X128800238Y-48285963D02*
X128800238Y-47862629D01*
X128800238Y-47983582D02*
X128830476Y-47923105D01*
X128830476Y-47923105D02*
X128860714Y-47892867D01*
X128860714Y-47892867D02*
X128921190Y-47862629D01*
X128921190Y-47862629D02*
X128981667Y-47862629D01*
X127474116Y-59571428D02*
X127474116Y-58428571D01*
X127474116Y-46571428D02*
X127474116Y-45428571D01*
X128045544Y-45999999D02*
X126902687Y-45999999D01*
X99265833Y-48850963D02*
X99628690Y-48850963D01*
X99447261Y-49485963D02*
X99447261Y-48850963D01*
X99840357Y-49485963D02*
X99840357Y-48850963D01*
X100112500Y-49485963D02*
X100112500Y-49153344D01*
X100112500Y-49153344D02*
X100082262Y-49092867D01*
X100082262Y-49092867D02*
X100021786Y-49062629D01*
X100021786Y-49062629D02*
X99931071Y-49062629D01*
X99931071Y-49062629D02*
X99870595Y-49092867D01*
X99870595Y-49092867D02*
X99840357Y-49123105D01*
X100656786Y-49455725D02*
X100596310Y-49485963D01*
X100596310Y-49485963D02*
X100475357Y-49485963D01*
X100475357Y-49485963D02*
X100414881Y-49455725D01*
X100414881Y-49455725D02*
X100384643Y-49395248D01*
X100384643Y-49395248D02*
X100384643Y-49153344D01*
X100384643Y-49153344D02*
X100414881Y-49092867D01*
X100414881Y-49092867D02*
X100475357Y-49062629D01*
X100475357Y-49062629D02*
X100596310Y-49062629D01*
X100596310Y-49062629D02*
X100656786Y-49092867D01*
X100656786Y-49092867D02*
X100687024Y-49153344D01*
X100687024Y-49153344D02*
X100687024Y-49213820D01*
X100687024Y-49213820D02*
X100384643Y-49274296D01*
X100959167Y-49485963D02*
X100959167Y-49062629D01*
X100959167Y-49183582D02*
X100989405Y-49123105D01*
X100989405Y-49123105D02*
X101019643Y-49092867D01*
X101019643Y-49092867D02*
X101080119Y-49062629D01*
X101080119Y-49062629D02*
X101140596Y-49062629D01*
X101352262Y-49485963D02*
X101352262Y-49062629D01*
X101352262Y-49123105D02*
X101382500Y-49092867D01*
X101382500Y-49092867D02*
X101442976Y-49062629D01*
X101442976Y-49062629D02*
X101533691Y-49062629D01*
X101533691Y-49062629D02*
X101594167Y-49092867D01*
X101594167Y-49092867D02*
X101624405Y-49153344D01*
X101624405Y-49153344D02*
X101624405Y-49485963D01*
X101624405Y-49153344D02*
X101654643Y-49092867D01*
X101654643Y-49092867D02*
X101715119Y-49062629D01*
X101715119Y-49062629D02*
X101805833Y-49062629D01*
X101805833Y-49062629D02*
X101866310Y-49092867D01*
X101866310Y-49092867D02*
X101896548Y-49153344D01*
X101896548Y-49153344D02*
X101896548Y-49485963D01*
X102198929Y-49485963D02*
X102198929Y-49062629D01*
X102198929Y-48850963D02*
X102168691Y-48881201D01*
X102168691Y-48881201D02*
X102198929Y-48911439D01*
X102198929Y-48911439D02*
X102229167Y-48881201D01*
X102229167Y-48881201D02*
X102198929Y-48850963D01*
X102198929Y-48850963D02*
X102198929Y-48911439D01*
X102471072Y-49455725D02*
X102531548Y-49485963D01*
X102531548Y-49485963D02*
X102652500Y-49485963D01*
X102652500Y-49485963D02*
X102712977Y-49455725D01*
X102712977Y-49455725D02*
X102743215Y-49395248D01*
X102743215Y-49395248D02*
X102743215Y-49365010D01*
X102743215Y-49365010D02*
X102712977Y-49304534D01*
X102712977Y-49304534D02*
X102652500Y-49274296D01*
X102652500Y-49274296D02*
X102561786Y-49274296D01*
X102561786Y-49274296D02*
X102501310Y-49244058D01*
X102501310Y-49244058D02*
X102471072Y-49183582D01*
X102471072Y-49183582D02*
X102471072Y-49153344D01*
X102471072Y-49153344D02*
X102501310Y-49092867D01*
X102501310Y-49092867D02*
X102561786Y-49062629D01*
X102561786Y-49062629D02*
X102652500Y-49062629D01*
X102652500Y-49062629D02*
X102712977Y-49092867D01*
X102924644Y-49062629D02*
X103166548Y-49062629D01*
X103015358Y-48850963D02*
X103015358Y-49395248D01*
X103015358Y-49395248D02*
X103045596Y-49455725D01*
X103045596Y-49455725D02*
X103106072Y-49485963D01*
X103106072Y-49485963D02*
X103166548Y-49485963D01*
X103468929Y-49485963D02*
X103408453Y-49455725D01*
X103408453Y-49455725D02*
X103378215Y-49425486D01*
X103378215Y-49425486D02*
X103347977Y-49365010D01*
X103347977Y-49365010D02*
X103347977Y-49183582D01*
X103347977Y-49183582D02*
X103378215Y-49123105D01*
X103378215Y-49123105D02*
X103408453Y-49092867D01*
X103408453Y-49092867D02*
X103468929Y-49062629D01*
X103468929Y-49062629D02*
X103559644Y-49062629D01*
X103559644Y-49062629D02*
X103620120Y-49092867D01*
X103620120Y-49092867D02*
X103650358Y-49123105D01*
X103650358Y-49123105D02*
X103680596Y-49183582D01*
X103680596Y-49183582D02*
X103680596Y-49365010D01*
X103680596Y-49365010D02*
X103650358Y-49425486D01*
X103650358Y-49425486D02*
X103620120Y-49455725D01*
X103620120Y-49455725D02*
X103559644Y-49485963D01*
X103559644Y-49485963D02*
X103468929Y-49485963D01*
X103952739Y-49485963D02*
X103952739Y-49062629D01*
X103952739Y-49183582D02*
X103982977Y-49123105D01*
X103982977Y-49123105D02*
X104013215Y-49092867D01*
X104013215Y-49092867D02*
X104073691Y-49062629D01*
X104073691Y-49062629D02*
X104134168Y-49062629D01*
X107966667Y-67554819D02*
X107966667Y-66554819D01*
X109014285Y-67554819D02*
X108680952Y-67078628D01*
X108442857Y-67554819D02*
X108442857Y-66554819D01*
X108442857Y-66554819D02*
X108823809Y-66554819D01*
X108823809Y-66554819D02*
X108919047Y-66602438D01*
X108919047Y-66602438D02*
X108966666Y-66650057D01*
X108966666Y-66650057D02*
X109014285Y-66745295D01*
X109014285Y-66745295D02*
X109014285Y-66888152D01*
X109014285Y-66888152D02*
X108966666Y-66983390D01*
X108966666Y-66983390D02*
X108919047Y-67031009D01*
X108919047Y-67031009D02*
X108823809Y-67078628D01*
X108823809Y-67078628D02*
X108442857Y-67078628D01*
X110157142Y-66507200D02*
X109300000Y-67792914D01*
X110442857Y-67269104D02*
X110919047Y-67269104D01*
X110347619Y-67554819D02*
X110680952Y-66554819D01*
X110680952Y-66554819D02*
X111014285Y-67554819D01*
X111347619Y-67554819D02*
X111347619Y-66554819D01*
X111347619Y-66554819D02*
X111585714Y-66554819D01*
X111585714Y-66554819D02*
X111728571Y-66602438D01*
X111728571Y-66602438D02*
X111823809Y-66697676D01*
X111823809Y-66697676D02*
X111871428Y-66792914D01*
X111871428Y-66792914D02*
X111919047Y-66983390D01*
X111919047Y-66983390D02*
X111919047Y-67126247D01*
X111919047Y-67126247D02*
X111871428Y-67316723D01*
X111871428Y-67316723D02*
X111823809Y-67411961D01*
X111823809Y-67411961D02*
X111728571Y-67507200D01*
X111728571Y-67507200D02*
X111585714Y-67554819D01*
X111585714Y-67554819D02*
X111347619Y-67554819D01*
X112252381Y-66554819D02*
X112919047Y-67554819D01*
X112919047Y-66554819D02*
X112252381Y-67554819D01*
X113776190Y-67554819D02*
X113300000Y-67554819D01*
X113300000Y-67554819D02*
X113300000Y-66554819D01*
D12*
%TO.C,J4*%
X124649416Y-47290000D02*
X130069416Y-47290000D01*
X124649416Y-56010000D02*
X124649416Y-47290000D01*
X125949416Y-57710000D02*
X124649416Y-56010000D01*
X125949416Y-57710000D02*
X128769416Y-57710000D01*
X128769416Y-57710000D02*
X130069416Y-56010000D01*
X130069416Y-56010000D02*
X130069416Y-47290000D01*
%TO.C,J5*%
X99124416Y-49680000D02*
X99124416Y-51100000D01*
X99124416Y-51100000D02*
X103624416Y-51100000D01*
X99124416Y-55880000D02*
X103624416Y-55880000D01*
X99124416Y-57300000D02*
X99124416Y-55880000D01*
X99434416Y-54440000D02*
X100034416Y-54740000D01*
X99434416Y-55040000D02*
X99434416Y-54440000D01*
X100034416Y-54740000D02*
X99434416Y-55040000D01*
X103624416Y-51100000D02*
X103624416Y-53490000D01*
X103624416Y-55880000D02*
X103624416Y-53490000D01*
X104734416Y-51990000D02*
X104734416Y-52490000D01*
X104734416Y-52490000D02*
X110234416Y-52490000D01*
X104734416Y-54490000D02*
X104734416Y-54990000D01*
X104734416Y-54990000D02*
X110234416Y-54990000D01*
X110234416Y-51990000D02*
X104734416Y-51990000D01*
X110234416Y-52490000D02*
X110234416Y-51990000D01*
X110234416Y-54490000D02*
X104734416Y-54490000D01*
X110234416Y-54990000D02*
X110234416Y-54490000D01*
X110844416Y-49680000D02*
X99124416Y-49680000D01*
X110844416Y-53490000D02*
X110844416Y-49680000D01*
X110844416Y-53490000D02*
X110844416Y-57300000D01*
X110844416Y-57300000D02*
X99124416Y-57300000D01*
%TO.C,J8*%
X105839416Y-59345000D02*
X105839416Y-64645000D01*
X106399416Y-59355000D02*
X105829416Y-59355000D01*
X106399416Y-64655000D02*
X105829416Y-64655000D01*
X108939416Y-59355000D02*
X108019416Y-59355000D01*
X108939416Y-64655000D02*
X108019416Y-64655000D01*
X111479416Y-59355000D02*
X110559416Y-59355000D01*
X111479416Y-64655000D02*
X110559416Y-64655000D01*
X114019416Y-59355000D02*
X113099416Y-59355000D01*
X114019416Y-64655000D02*
X113099416Y-64655000D01*
X115639416Y-57965000D02*
X115639416Y-59355000D01*
X116209416Y-59355000D02*
X115639416Y-59355000D01*
X116209416Y-59355000D02*
X116209416Y-64655000D01*
X116209416Y-64655000D02*
X115639416Y-64655000D01*
%TD*%
M02*
