%TF.GenerationSoftware,KiCad,Pcbnew,9.0.4*%
%TF.CreationDate,2025-09-30T16:10:09-07:00*%
%TF.ProjectId,Toolhead PCB,546f6f6c-6865-4616-9420-5043422e6b69,0.5*%
%TF.SameCoordinates,Original*%
%TF.FileFunction,Legend,Bot*%
%TF.FilePolarity,Positive*%
%FSLAX46Y46*%
G04 Gerber Fmt 4.6, Leading zero omitted, Abs format (unit mm)*
G04 Created by KiCad (PCBNEW 9.0.4) date 2025-09-30 16:10:09*
%MOMM*%
%LPD*%
G01*
G04 APERTURE LIST*
%ADD10C,0.150000*%
%ADD11C,0.120000*%
G04 APERTURE END LIST*
D10*
X122585963Y-48705595D02*
X121950963Y-48705595D01*
X121950963Y-48705595D02*
X121950963Y-48947500D01*
X121950963Y-48947500D02*
X121981201Y-49007976D01*
X121981201Y-49007976D02*
X122011439Y-49038214D01*
X122011439Y-49038214D02*
X122071915Y-49068452D01*
X122071915Y-49068452D02*
X122162629Y-49068452D01*
X122162629Y-49068452D02*
X122223105Y-49038214D01*
X122223105Y-49038214D02*
X122253344Y-49007976D01*
X122253344Y-49007976D02*
X122283582Y-48947500D01*
X122283582Y-48947500D02*
X122283582Y-48705595D01*
X122585963Y-49340595D02*
X122162629Y-49340595D01*
X121950963Y-49340595D02*
X121981201Y-49310357D01*
X121981201Y-49310357D02*
X122011439Y-49340595D01*
X122011439Y-49340595D02*
X121981201Y-49370833D01*
X121981201Y-49370833D02*
X121950963Y-49340595D01*
X121950963Y-49340595D02*
X122011439Y-49340595D01*
X122555725Y-49915119D02*
X122585963Y-49854643D01*
X122585963Y-49854643D02*
X122585963Y-49733690D01*
X122585963Y-49733690D02*
X122555725Y-49673214D01*
X122555725Y-49673214D02*
X122525486Y-49642976D01*
X122525486Y-49642976D02*
X122465010Y-49612738D01*
X122465010Y-49612738D02*
X122283582Y-49612738D01*
X122283582Y-49612738D02*
X122223105Y-49642976D01*
X122223105Y-49642976D02*
X122192867Y-49673214D01*
X122192867Y-49673214D02*
X122162629Y-49733690D01*
X122162629Y-49733690D02*
X122162629Y-49854643D01*
X122162629Y-49854643D02*
X122192867Y-49915119D01*
X122585963Y-50277976D02*
X122555725Y-50217500D01*
X122555725Y-50217500D02*
X122525486Y-50187262D01*
X122525486Y-50187262D02*
X122465010Y-50157024D01*
X122465010Y-50157024D02*
X122283582Y-50157024D01*
X122283582Y-50157024D02*
X122223105Y-50187262D01*
X122223105Y-50187262D02*
X122192867Y-50217500D01*
X122192867Y-50217500D02*
X122162629Y-50277976D01*
X122162629Y-50277976D02*
X122162629Y-50368691D01*
X122162629Y-50368691D02*
X122192867Y-50429167D01*
X122192867Y-50429167D02*
X122223105Y-50459405D01*
X122223105Y-50459405D02*
X122283582Y-50489643D01*
X122283582Y-50489643D02*
X122465010Y-50489643D01*
X122465010Y-50489643D02*
X122525486Y-50459405D01*
X122525486Y-50459405D02*
X122555725Y-50429167D01*
X122555725Y-50429167D02*
X122585963Y-50368691D01*
X122585963Y-50368691D02*
X122585963Y-50277976D01*
X122525486Y-51124643D02*
X122555725Y-51094405D01*
X122555725Y-51094405D02*
X122585963Y-51003691D01*
X122585963Y-51003691D02*
X122585963Y-50943215D01*
X122585963Y-50943215D02*
X122555725Y-50852500D01*
X122555725Y-50852500D02*
X122495248Y-50792024D01*
X122495248Y-50792024D02*
X122434772Y-50761786D01*
X122434772Y-50761786D02*
X122313820Y-50731548D01*
X122313820Y-50731548D02*
X122223105Y-50731548D01*
X122223105Y-50731548D02*
X122102153Y-50761786D01*
X122102153Y-50761786D02*
X122041677Y-50792024D01*
X122041677Y-50792024D02*
X121981201Y-50852500D01*
X121981201Y-50852500D02*
X121950963Y-50943215D01*
X121950963Y-50943215D02*
X121950963Y-51003691D01*
X121950963Y-51003691D02*
X121981201Y-51094405D01*
X121981201Y-51094405D02*
X122011439Y-51124643D01*
X114128571Y-71788152D02*
X114128571Y-72788152D01*
X113652381Y-72311961D02*
X113604762Y-72407200D01*
X113604762Y-72407200D02*
X113509524Y-72454819D01*
X114128571Y-72311961D02*
X114080952Y-72407200D01*
X114080952Y-72407200D02*
X113985714Y-72454819D01*
X113985714Y-72454819D02*
X113795238Y-72454819D01*
X113795238Y-72454819D02*
X113700000Y-72407200D01*
X113700000Y-72407200D02*
X113652381Y-72311961D01*
X113652381Y-72311961D02*
X113652381Y-71788152D01*
X113080952Y-72454819D02*
X113080952Y-71454819D01*
X113080952Y-71454819D02*
X112700000Y-71454819D01*
X112700000Y-71454819D02*
X112604762Y-71502438D01*
X112604762Y-71502438D02*
X112557143Y-71550057D01*
X112557143Y-71550057D02*
X112509524Y-71645295D01*
X112509524Y-71645295D02*
X112509524Y-71788152D01*
X112509524Y-71788152D02*
X112557143Y-71883390D01*
X112557143Y-71883390D02*
X112604762Y-71931009D01*
X112604762Y-71931009D02*
X112700000Y-71978628D01*
X112700000Y-71978628D02*
X113080952Y-71978628D01*
X112080952Y-72454819D02*
X112080952Y-71788152D01*
X112080952Y-71978628D02*
X112033333Y-71883390D01*
X112033333Y-71883390D02*
X111985714Y-71835771D01*
X111985714Y-71835771D02*
X111890476Y-71788152D01*
X111890476Y-71788152D02*
X111795238Y-71788152D01*
X111319047Y-72454819D02*
X111414285Y-72407200D01*
X111414285Y-72407200D02*
X111461904Y-72359580D01*
X111461904Y-72359580D02*
X111509523Y-72264342D01*
X111509523Y-72264342D02*
X111509523Y-71978628D01*
X111509523Y-71978628D02*
X111461904Y-71883390D01*
X111461904Y-71883390D02*
X111414285Y-71835771D01*
X111414285Y-71835771D02*
X111319047Y-71788152D01*
X111319047Y-71788152D02*
X111176190Y-71788152D01*
X111176190Y-71788152D02*
X111080952Y-71835771D01*
X111080952Y-71835771D02*
X111033333Y-71883390D01*
X111033333Y-71883390D02*
X110985714Y-71978628D01*
X110985714Y-71978628D02*
X110985714Y-72264342D01*
X110985714Y-72264342D02*
X111033333Y-72359580D01*
X111033333Y-72359580D02*
X111080952Y-72407200D01*
X111080952Y-72407200D02*
X111176190Y-72454819D01*
X111176190Y-72454819D02*
X111319047Y-72454819D01*
X110557142Y-72454819D02*
X110557142Y-71454819D01*
X110557142Y-71835771D02*
X110461904Y-71788152D01*
X110461904Y-71788152D02*
X110271428Y-71788152D01*
X110271428Y-71788152D02*
X110176190Y-71835771D01*
X110176190Y-71835771D02*
X110128571Y-71883390D01*
X110128571Y-71883390D02*
X110080952Y-71978628D01*
X110080952Y-71978628D02*
X110080952Y-72264342D01*
X110080952Y-72264342D02*
X110128571Y-72359580D01*
X110128571Y-72359580D02*
X110176190Y-72407200D01*
X110176190Y-72407200D02*
X110271428Y-72454819D01*
X110271428Y-72454819D02*
X110461904Y-72454819D01*
X110461904Y-72454819D02*
X110557142Y-72407200D01*
X109271428Y-72407200D02*
X109366666Y-72454819D01*
X109366666Y-72454819D02*
X109557142Y-72454819D01*
X109557142Y-72454819D02*
X109652380Y-72407200D01*
X109652380Y-72407200D02*
X109699999Y-72311961D01*
X109699999Y-72311961D02*
X109699999Y-71931009D01*
X109699999Y-71931009D02*
X109652380Y-71835771D01*
X109652380Y-71835771D02*
X109557142Y-71788152D01*
X109557142Y-71788152D02*
X109366666Y-71788152D01*
X109366666Y-71788152D02*
X109271428Y-71835771D01*
X109271428Y-71835771D02*
X109223809Y-71931009D01*
X109223809Y-71931009D02*
X109223809Y-72026247D01*
X109223809Y-72026247D02*
X109699999Y-72121485D01*
X123585963Y-48750952D02*
X122950963Y-48750952D01*
X122950963Y-48750952D02*
X122950963Y-48992857D01*
X122950963Y-48992857D02*
X122981201Y-49053333D01*
X122981201Y-49053333D02*
X123011439Y-49083571D01*
X123011439Y-49083571D02*
X123071915Y-49113809D01*
X123071915Y-49113809D02*
X123162629Y-49113809D01*
X123162629Y-49113809D02*
X123223105Y-49083571D01*
X123223105Y-49083571D02*
X123253344Y-49053333D01*
X123253344Y-49053333D02*
X123283582Y-48992857D01*
X123283582Y-48992857D02*
X123283582Y-48750952D01*
X123585963Y-49385952D02*
X123162629Y-49385952D01*
X122950963Y-49385952D02*
X122981201Y-49355714D01*
X122981201Y-49355714D02*
X123011439Y-49385952D01*
X123011439Y-49385952D02*
X122981201Y-49416190D01*
X122981201Y-49416190D02*
X122950963Y-49385952D01*
X122950963Y-49385952D02*
X123011439Y-49385952D01*
X123555725Y-49960476D02*
X123585963Y-49900000D01*
X123585963Y-49900000D02*
X123585963Y-49779047D01*
X123585963Y-49779047D02*
X123555725Y-49718571D01*
X123555725Y-49718571D02*
X123525486Y-49688333D01*
X123525486Y-49688333D02*
X123465010Y-49658095D01*
X123465010Y-49658095D02*
X123283582Y-49658095D01*
X123283582Y-49658095D02*
X123223105Y-49688333D01*
X123223105Y-49688333D02*
X123192867Y-49718571D01*
X123192867Y-49718571D02*
X123162629Y-49779047D01*
X123162629Y-49779047D02*
X123162629Y-49900000D01*
X123162629Y-49900000D02*
X123192867Y-49960476D01*
X123585963Y-50323333D02*
X123555725Y-50262857D01*
X123555725Y-50262857D02*
X123525486Y-50232619D01*
X123525486Y-50232619D02*
X123465010Y-50202381D01*
X123465010Y-50202381D02*
X123283582Y-50202381D01*
X123283582Y-50202381D02*
X123223105Y-50232619D01*
X123223105Y-50232619D02*
X123192867Y-50262857D01*
X123192867Y-50262857D02*
X123162629Y-50323333D01*
X123162629Y-50323333D02*
X123162629Y-50414048D01*
X123162629Y-50414048D02*
X123192867Y-50474524D01*
X123192867Y-50474524D02*
X123223105Y-50504762D01*
X123223105Y-50504762D02*
X123283582Y-50535000D01*
X123283582Y-50535000D02*
X123465010Y-50535000D01*
X123465010Y-50535000D02*
X123525486Y-50504762D01*
X123525486Y-50504762D02*
X123555725Y-50474524D01*
X123555725Y-50474524D02*
X123585963Y-50414048D01*
X123585963Y-50414048D02*
X123585963Y-50323333D01*
X123404534Y-50776905D02*
X123404534Y-51079286D01*
X123585963Y-50716429D02*
X122950963Y-50928095D01*
X122950963Y-50928095D02*
X123585963Y-51139762D01*
X119185963Y-48705595D02*
X118550963Y-48705595D01*
X118550963Y-48705595D02*
X118550963Y-48947500D01*
X118550963Y-48947500D02*
X118581201Y-49007976D01*
X118581201Y-49007976D02*
X118611439Y-49038214D01*
X118611439Y-49038214D02*
X118671915Y-49068452D01*
X118671915Y-49068452D02*
X118762629Y-49068452D01*
X118762629Y-49068452D02*
X118823105Y-49038214D01*
X118823105Y-49038214D02*
X118853344Y-49007976D01*
X118853344Y-49007976D02*
X118883582Y-48947500D01*
X118883582Y-48947500D02*
X118883582Y-48705595D01*
X119185963Y-49340595D02*
X118762629Y-49340595D01*
X118550963Y-49340595D02*
X118581201Y-49310357D01*
X118581201Y-49310357D02*
X118611439Y-49340595D01*
X118611439Y-49340595D02*
X118581201Y-49370833D01*
X118581201Y-49370833D02*
X118550963Y-49340595D01*
X118550963Y-49340595D02*
X118611439Y-49340595D01*
X119155725Y-49915119D02*
X119185963Y-49854643D01*
X119185963Y-49854643D02*
X119185963Y-49733690D01*
X119185963Y-49733690D02*
X119155725Y-49673214D01*
X119155725Y-49673214D02*
X119125486Y-49642976D01*
X119125486Y-49642976D02*
X119065010Y-49612738D01*
X119065010Y-49612738D02*
X118883582Y-49612738D01*
X118883582Y-49612738D02*
X118823105Y-49642976D01*
X118823105Y-49642976D02*
X118792867Y-49673214D01*
X118792867Y-49673214D02*
X118762629Y-49733690D01*
X118762629Y-49733690D02*
X118762629Y-49854643D01*
X118762629Y-49854643D02*
X118792867Y-49915119D01*
X119185963Y-50277976D02*
X119155725Y-50217500D01*
X119155725Y-50217500D02*
X119125486Y-50187262D01*
X119125486Y-50187262D02*
X119065010Y-50157024D01*
X119065010Y-50157024D02*
X118883582Y-50157024D01*
X118883582Y-50157024D02*
X118823105Y-50187262D01*
X118823105Y-50187262D02*
X118792867Y-50217500D01*
X118792867Y-50217500D02*
X118762629Y-50277976D01*
X118762629Y-50277976D02*
X118762629Y-50368691D01*
X118762629Y-50368691D02*
X118792867Y-50429167D01*
X118792867Y-50429167D02*
X118823105Y-50459405D01*
X118823105Y-50459405D02*
X118883582Y-50489643D01*
X118883582Y-50489643D02*
X119065010Y-50489643D01*
X119065010Y-50489643D02*
X119125486Y-50459405D01*
X119125486Y-50459405D02*
X119155725Y-50429167D01*
X119155725Y-50429167D02*
X119185963Y-50368691D01*
X119185963Y-50368691D02*
X119185963Y-50277976D01*
X118853344Y-50973453D02*
X118883582Y-51064167D01*
X118883582Y-51064167D02*
X118913820Y-51094405D01*
X118913820Y-51094405D02*
X118974296Y-51124643D01*
X118974296Y-51124643D02*
X119065010Y-51124643D01*
X119065010Y-51124643D02*
X119125486Y-51094405D01*
X119125486Y-51094405D02*
X119155725Y-51064167D01*
X119155725Y-51064167D02*
X119185963Y-51003691D01*
X119185963Y-51003691D02*
X119185963Y-50761786D01*
X119185963Y-50761786D02*
X118550963Y-50761786D01*
X118550963Y-50761786D02*
X118550963Y-50973453D01*
X118550963Y-50973453D02*
X118581201Y-51033929D01*
X118581201Y-51033929D02*
X118611439Y-51064167D01*
X118611439Y-51064167D02*
X118671915Y-51094405D01*
X118671915Y-51094405D02*
X118732391Y-51094405D01*
X118732391Y-51094405D02*
X118792867Y-51064167D01*
X118792867Y-51064167D02*
X118823105Y-51033929D01*
X118823105Y-51033929D02*
X118853344Y-50973453D01*
X118853344Y-50973453D02*
X118853344Y-50761786D01*
X105009523Y-65254819D02*
X105009523Y-64254819D01*
X105009523Y-64254819D02*
X104628571Y-64254819D01*
X104628571Y-64254819D02*
X104533333Y-64302438D01*
X104533333Y-64302438D02*
X104485714Y-64350057D01*
X104485714Y-64350057D02*
X104438095Y-64445295D01*
X104438095Y-64445295D02*
X104438095Y-64588152D01*
X104438095Y-64588152D02*
X104485714Y-64683390D01*
X104485714Y-64683390D02*
X104533333Y-64731009D01*
X104533333Y-64731009D02*
X104628571Y-64778628D01*
X104628571Y-64778628D02*
X105009523Y-64778628D01*
X103580952Y-65254819D02*
X103580952Y-64731009D01*
X103580952Y-64731009D02*
X103628571Y-64635771D01*
X103628571Y-64635771D02*
X103723809Y-64588152D01*
X103723809Y-64588152D02*
X103914285Y-64588152D01*
X103914285Y-64588152D02*
X104009523Y-64635771D01*
X103580952Y-65207200D02*
X103676190Y-65254819D01*
X103676190Y-65254819D02*
X103914285Y-65254819D01*
X103914285Y-65254819D02*
X104009523Y-65207200D01*
X104009523Y-65207200D02*
X104057142Y-65111961D01*
X104057142Y-65111961D02*
X104057142Y-65016723D01*
X104057142Y-65016723D02*
X104009523Y-64921485D01*
X104009523Y-64921485D02*
X103914285Y-64873866D01*
X103914285Y-64873866D02*
X103676190Y-64873866D01*
X103676190Y-64873866D02*
X103580952Y-64826247D01*
X103104761Y-65254819D02*
X103104761Y-64588152D01*
X103104761Y-64778628D02*
X103057142Y-64683390D01*
X103057142Y-64683390D02*
X103009523Y-64635771D01*
X103009523Y-64635771D02*
X102914285Y-64588152D01*
X102914285Y-64588152D02*
X102819047Y-64588152D01*
X102628570Y-64588152D02*
X102247618Y-64588152D01*
X102485713Y-64254819D02*
X102485713Y-65111961D01*
X102485713Y-65111961D02*
X102438094Y-65207200D01*
X102438094Y-65207200D02*
X102342856Y-65254819D01*
X102342856Y-65254819D02*
X102247618Y-65254819D01*
X124600000Y-65254819D02*
X124600000Y-64254819D01*
X124600000Y-64731009D02*
X124028572Y-64731009D01*
X124028572Y-65254819D02*
X124028572Y-64254819D01*
X123171429Y-65207200D02*
X123266667Y-65254819D01*
X123266667Y-65254819D02*
X123457143Y-65254819D01*
X123457143Y-65254819D02*
X123552381Y-65207200D01*
X123552381Y-65207200D02*
X123600000Y-65111961D01*
X123600000Y-65111961D02*
X123600000Y-64731009D01*
X123600000Y-64731009D02*
X123552381Y-64635771D01*
X123552381Y-64635771D02*
X123457143Y-64588152D01*
X123457143Y-64588152D02*
X123266667Y-64588152D01*
X123266667Y-64588152D02*
X123171429Y-64635771D01*
X123171429Y-64635771D02*
X123123810Y-64731009D01*
X123123810Y-64731009D02*
X123123810Y-64826247D01*
X123123810Y-64826247D02*
X123600000Y-64921485D01*
X122266667Y-65254819D02*
X122266667Y-64731009D01*
X122266667Y-64731009D02*
X122314286Y-64635771D01*
X122314286Y-64635771D02*
X122409524Y-64588152D01*
X122409524Y-64588152D02*
X122600000Y-64588152D01*
X122600000Y-64588152D02*
X122695238Y-64635771D01*
X122266667Y-65207200D02*
X122361905Y-65254819D01*
X122361905Y-65254819D02*
X122600000Y-65254819D01*
X122600000Y-65254819D02*
X122695238Y-65207200D01*
X122695238Y-65207200D02*
X122742857Y-65111961D01*
X122742857Y-65111961D02*
X122742857Y-65016723D01*
X122742857Y-65016723D02*
X122695238Y-64921485D01*
X122695238Y-64921485D02*
X122600000Y-64873866D01*
X122600000Y-64873866D02*
X122361905Y-64873866D01*
X122361905Y-64873866D02*
X122266667Y-64826247D01*
X121933333Y-64588152D02*
X121552381Y-64588152D01*
X121790476Y-64254819D02*
X121790476Y-65111961D01*
X121790476Y-65111961D02*
X121742857Y-65207200D01*
X121742857Y-65207200D02*
X121647619Y-65254819D01*
X121647619Y-65254819D02*
X121552381Y-65254819D01*
X121219047Y-65254819D02*
X121219047Y-64254819D01*
X121219047Y-64635771D02*
X121123809Y-64588152D01*
X121123809Y-64588152D02*
X120933333Y-64588152D01*
X120933333Y-64588152D02*
X120838095Y-64635771D01*
X120838095Y-64635771D02*
X120790476Y-64683390D01*
X120790476Y-64683390D02*
X120742857Y-64778628D01*
X120742857Y-64778628D02*
X120742857Y-65064342D01*
X120742857Y-65064342D02*
X120790476Y-65159580D01*
X120790476Y-65159580D02*
X120838095Y-65207200D01*
X120838095Y-65207200D02*
X120933333Y-65254819D01*
X120933333Y-65254819D02*
X121123809Y-65254819D01*
X121123809Y-65254819D02*
X121219047Y-65207200D01*
X120314285Y-65254819D02*
X120314285Y-64588152D01*
X120314285Y-64778628D02*
X120266666Y-64683390D01*
X120266666Y-64683390D02*
X120219047Y-64635771D01*
X120219047Y-64635771D02*
X120123809Y-64588152D01*
X120123809Y-64588152D02*
X120028571Y-64588152D01*
X119314285Y-65207200D02*
X119409523Y-65254819D01*
X119409523Y-65254819D02*
X119599999Y-65254819D01*
X119599999Y-65254819D02*
X119695237Y-65207200D01*
X119695237Y-65207200D02*
X119742856Y-65111961D01*
X119742856Y-65111961D02*
X119742856Y-64731009D01*
X119742856Y-64731009D02*
X119695237Y-64635771D01*
X119695237Y-64635771D02*
X119599999Y-64588152D01*
X119599999Y-64588152D02*
X119409523Y-64588152D01*
X119409523Y-64588152D02*
X119314285Y-64635771D01*
X119314285Y-64635771D02*
X119266666Y-64731009D01*
X119266666Y-64731009D02*
X119266666Y-64826247D01*
X119266666Y-64826247D02*
X119742856Y-64921485D01*
X118409523Y-65254819D02*
X118409523Y-64731009D01*
X118409523Y-64731009D02*
X118457142Y-64635771D01*
X118457142Y-64635771D02*
X118552380Y-64588152D01*
X118552380Y-64588152D02*
X118742856Y-64588152D01*
X118742856Y-64588152D02*
X118838094Y-64635771D01*
X118409523Y-65207200D02*
X118504761Y-65254819D01*
X118504761Y-65254819D02*
X118742856Y-65254819D01*
X118742856Y-65254819D02*
X118838094Y-65207200D01*
X118838094Y-65207200D02*
X118885713Y-65111961D01*
X118885713Y-65111961D02*
X118885713Y-65016723D01*
X118885713Y-65016723D02*
X118838094Y-64921485D01*
X118838094Y-64921485D02*
X118742856Y-64873866D01*
X118742856Y-64873866D02*
X118504761Y-64873866D01*
X118504761Y-64873866D02*
X118409523Y-64826247D01*
X117933332Y-65254819D02*
X117933332Y-64254819D01*
X117838094Y-64873866D02*
X117552380Y-65254819D01*
X117552380Y-64588152D02*
X117933332Y-64969104D01*
D11*
%TO.C,J3*%
X118039416Y-45950000D02*
X122759416Y-45950000D01*
X118039416Y-60070000D02*
X118039416Y-45950000D01*
X118649416Y-46560000D02*
X122149416Y-46560000D01*
X118649416Y-49010000D02*
X119149416Y-49010000D01*
X118649416Y-49110000D02*
X119149416Y-49110000D01*
X118649416Y-51010000D02*
X119149416Y-51010000D01*
X118649416Y-51110000D02*
X119149416Y-51110000D01*
X118649416Y-53010000D02*
X119149416Y-53010000D01*
X118649416Y-53110000D02*
X119149416Y-53110000D01*
X118649416Y-55010000D02*
X119149416Y-55010000D01*
X118649416Y-55110000D02*
X119149416Y-55110000D01*
X118649416Y-57010000D02*
X119149416Y-57010000D01*
X118649416Y-57110000D02*
X119149416Y-57110000D01*
X118649416Y-59460000D02*
X118649416Y-46560000D01*
X119149416Y-48910000D02*
X118649416Y-48910000D01*
X119149416Y-49110000D02*
X119149416Y-48910000D01*
X119149416Y-50910000D02*
X118649416Y-50910000D01*
X119149416Y-51110000D02*
X119149416Y-50910000D01*
X119149416Y-52910000D02*
X118649416Y-52910000D01*
X119149416Y-53110000D02*
X119149416Y-52910000D01*
X119149416Y-54910000D02*
X118649416Y-54910000D01*
X119149416Y-55110000D02*
X119149416Y-54910000D01*
X119149416Y-56910000D02*
X118649416Y-56910000D01*
X119149416Y-57110000D02*
X119149416Y-56910000D01*
X120149416Y-45950000D02*
X120149416Y-46560000D01*
X120149416Y-60070000D02*
X120149416Y-59460000D01*
X121449416Y-45950000D02*
X121449416Y-46560000D01*
X121449416Y-60070000D02*
X121449416Y-59460000D01*
X122149416Y-46560000D02*
X122149416Y-48510000D01*
X122149416Y-48510000D02*
X122759416Y-48510000D01*
X122149416Y-57510000D02*
X122149416Y-59460000D01*
X122149416Y-59460000D02*
X118649416Y-59460000D01*
X122759416Y-45950000D02*
X122759416Y-60070000D01*
X122759416Y-57510000D02*
X122149416Y-57510000D01*
X122759416Y-58310000D02*
X122959416Y-58310000D01*
X122759416Y-60070000D02*
X118039416Y-60070000D01*
X122859416Y-58310000D02*
X122859416Y-58610000D01*
X122959416Y-58310000D02*
X122959416Y-58610000D01*
X122959416Y-58610000D02*
X122759416Y-58610000D01*
X123059416Y-59120000D02*
X123059416Y-60370000D01*
X123059416Y-60370000D02*
X121809416Y-60370000D01*
%TO.C,J9*%
X105509416Y-71620000D02*
X105509416Y-70370000D01*
X105809416Y-66600000D02*
X117929416Y-66600000D01*
X105809416Y-68710000D02*
X106419416Y-68710000D01*
X105809416Y-70010000D02*
X106419416Y-70010000D01*
X105809416Y-71320000D02*
X105809416Y-66600000D01*
X106419416Y-67210000D02*
X117319416Y-67210000D01*
X106419416Y-70710000D02*
X106419416Y-67210000D01*
X106759416Y-71620000D02*
X105509416Y-71620000D01*
X107269416Y-71520000D02*
X107269416Y-71320000D01*
X107569416Y-71320000D02*
X107569416Y-71520000D01*
X107569416Y-71420000D02*
X107269416Y-71420000D01*
X107569416Y-71520000D02*
X107269416Y-71520000D01*
X108369416Y-70710000D02*
X106419416Y-70710000D01*
X108369416Y-71320000D02*
X108369416Y-70710000D01*
X108769416Y-67210000D02*
X108769416Y-67710000D01*
X108769416Y-67710000D02*
X108969416Y-67710000D01*
X108869416Y-67210000D02*
X108869416Y-67710000D01*
X108969416Y-67710000D02*
X108969416Y-67210000D01*
X110769416Y-67210000D02*
X110769416Y-67710000D01*
X110769416Y-67710000D02*
X110969416Y-67710000D01*
X110869416Y-67210000D02*
X110869416Y-67710000D01*
X110969416Y-67710000D02*
X110969416Y-67210000D01*
X112769416Y-67210000D02*
X112769416Y-67710000D01*
X112769416Y-67710000D02*
X112969416Y-67710000D01*
X112869416Y-67210000D02*
X112869416Y-67710000D01*
X112969416Y-67710000D02*
X112969416Y-67210000D01*
X114769416Y-67210000D02*
X114769416Y-67710000D01*
X114769416Y-67710000D02*
X114969416Y-67710000D01*
X114869416Y-67210000D02*
X114869416Y-67710000D01*
X114969416Y-67710000D02*
X114969416Y-67210000D01*
X115369416Y-70710000D02*
X115369416Y-71320000D01*
X117319416Y-67210000D02*
X117319416Y-70710000D01*
X117319416Y-70710000D02*
X115369416Y-70710000D01*
X117929416Y-66600000D02*
X117929416Y-71320000D01*
X117929416Y-68710000D02*
X117319416Y-68710000D01*
X117929416Y-70010000D02*
X117319416Y-70010000D01*
X117929416Y-71320000D02*
X105809416Y-71320000D01*
%TO.C,J2*%
X114859416Y-45950000D02*
X119579416Y-45950000D01*
X114859416Y-60070000D02*
X114859416Y-45950000D01*
X115469416Y-46560000D02*
X118969416Y-46560000D01*
X115469416Y-49010000D02*
X115969416Y-49010000D01*
X115469416Y-49110000D02*
X115969416Y-49110000D01*
X115469416Y-51010000D02*
X115969416Y-51010000D01*
X115469416Y-51110000D02*
X115969416Y-51110000D01*
X115469416Y-53010000D02*
X115969416Y-53010000D01*
X115469416Y-53110000D02*
X115969416Y-53110000D01*
X115469416Y-55010000D02*
X115969416Y-55010000D01*
X115469416Y-55110000D02*
X115969416Y-55110000D01*
X115469416Y-57010000D02*
X115969416Y-57010000D01*
X115469416Y-57110000D02*
X115969416Y-57110000D01*
X115469416Y-59460000D02*
X115469416Y-46560000D01*
X115969416Y-48910000D02*
X115469416Y-48910000D01*
X115969416Y-49110000D02*
X115969416Y-48910000D01*
X115969416Y-50910000D02*
X115469416Y-50910000D01*
X115969416Y-51110000D02*
X115969416Y-50910000D01*
X115969416Y-52910000D02*
X115469416Y-52910000D01*
X115969416Y-53110000D02*
X115969416Y-52910000D01*
X115969416Y-54910000D02*
X115469416Y-54910000D01*
X115969416Y-55110000D02*
X115969416Y-54910000D01*
X115969416Y-56910000D02*
X115469416Y-56910000D01*
X115969416Y-57110000D02*
X115969416Y-56910000D01*
X116969416Y-45950000D02*
X116969416Y-46560000D01*
X116969416Y-60070000D02*
X116969416Y-59460000D01*
X118269416Y-45950000D02*
X118269416Y-46560000D01*
X118269416Y-60070000D02*
X118269416Y-59460000D01*
X118969416Y-46560000D02*
X118969416Y-48510000D01*
X118969416Y-48510000D02*
X119579416Y-48510000D01*
X118969416Y-57510000D02*
X118969416Y-59460000D01*
X118969416Y-59460000D02*
X115469416Y-59460000D01*
X119579416Y-45950000D02*
X119579416Y-60070000D01*
X119579416Y-57510000D02*
X118969416Y-57510000D01*
X119579416Y-58310000D02*
X119779416Y-58310000D01*
X119579416Y-60070000D02*
X114859416Y-60070000D01*
X119679416Y-58310000D02*
X119679416Y-58610000D01*
X119779416Y-58310000D02*
X119779416Y-58610000D01*
X119779416Y-58610000D02*
X119579416Y-58610000D01*
X119879416Y-59120000D02*
X119879416Y-60370000D01*
X119879416Y-60370000D02*
X118629416Y-60370000D01*
%TO.C,J7*%
X99049416Y-65380000D02*
X105019416Y-65380000D01*
X99049416Y-73000000D02*
X99049416Y-65380000D01*
X99809416Y-66140000D02*
X99809416Y-69190000D01*
X99809416Y-72240000D02*
X99809416Y-69190000D01*
X102759416Y-65390000D02*
X102759416Y-66140000D01*
X102759416Y-66140000D02*
X99809416Y-66140000D01*
X102759416Y-72240000D02*
X99809416Y-72240000D01*
X102759416Y-72990000D02*
X102759416Y-72240000D01*
X104259416Y-65390000D02*
X105009416Y-65390000D01*
X104259416Y-67190000D02*
X104259416Y-65390000D01*
X104259416Y-68690000D02*
X105009416Y-68690000D01*
X104259416Y-69690000D02*
X104259416Y-68690000D01*
X104259416Y-71190000D02*
X105009416Y-71190000D01*
X104259416Y-72990000D02*
X104259416Y-71190000D01*
X105009416Y-65390000D02*
X105009416Y-67190000D01*
X105009416Y-67190000D02*
X104259416Y-67190000D01*
X105009416Y-68690000D02*
X105009416Y-69690000D01*
X105009416Y-69690000D02*
X104259416Y-69690000D01*
X105009416Y-71190000D02*
X105009416Y-72990000D01*
X105009416Y-72990000D02*
X104259416Y-72990000D01*
X105019416Y-65380000D02*
X105019416Y-73000000D01*
X105019416Y-73000000D02*
X99049416Y-73000000D01*
X105309416Y-72040000D02*
X105309416Y-73290000D01*
X105309416Y-73290000D02*
X104059416Y-73290000D01*
%TO.C,J6*%
X118689416Y-65400000D02*
X124659416Y-65400000D01*
X118689416Y-73020000D02*
X118689416Y-65400000D01*
X119449416Y-66160000D02*
X119449416Y-69210000D01*
X119449416Y-72260000D02*
X119449416Y-69210000D01*
X122399416Y-65410000D02*
X122399416Y-66160000D01*
X122399416Y-66160000D02*
X119449416Y-66160000D01*
X122399416Y-72260000D02*
X119449416Y-72260000D01*
X122399416Y-73010000D02*
X122399416Y-72260000D01*
X123899416Y-65410000D02*
X124649416Y-65410000D01*
X123899416Y-67210000D02*
X123899416Y-65410000D01*
X123899416Y-68710000D02*
X124649416Y-68710000D01*
X123899416Y-69710000D02*
X123899416Y-68710000D01*
X123899416Y-71210000D02*
X124649416Y-71210000D01*
X123899416Y-73010000D02*
X123899416Y-71210000D01*
X124649416Y-65410000D02*
X124649416Y-67210000D01*
X124649416Y-67210000D02*
X123899416Y-67210000D01*
X124649416Y-68710000D02*
X124649416Y-69710000D01*
X124649416Y-69710000D02*
X123899416Y-69710000D01*
X124649416Y-71210000D02*
X124649416Y-73010000D01*
X124649416Y-73010000D02*
X123899416Y-73010000D01*
X124659416Y-65400000D02*
X124659416Y-73020000D01*
X124659416Y-73020000D02*
X118689416Y-73020000D01*
X124949416Y-72060000D02*
X124949416Y-73310000D01*
X124949416Y-73310000D02*
X123699416Y-73310000D01*
%TD*%
M02*
