%TF.GenerationSoftware,KiCad,Pcbnew,9.0.4*%
%TF.CreationDate,2025-09-30T03:12:06-07:00*%
%TF.ProjectId,Toolhead PCB,546f6f6c-6865-4616-9420-5043422e6b69,0.5*%
%TF.SameCoordinates,Original*%
%TF.FileFunction,Soldermask,Top*%
%TF.FilePolarity,Negative*%
%FSLAX46Y46*%
G04 Gerber Fmt 4.6, Leading zero omitted, Abs format (unit mm)*
G04 Created by KiCad (PCBNEW 9.0.4) date 2025-09-30 03:12:06*
%MOMM*%
%LPD*%
G01*
G04 APERTURE LIST*
G04 Aperture macros list*
%AMRoundRect*
0 Rectangle with rounded corners*
0 $1 Rounding radius*
0 $2 $3 $4 $5 $6 $7 $8 $9 X,Y pos of 4 corners*
0 Add a 4 corners polygon primitive as box body*
4,1,4,$2,$3,$4,$5,$6,$7,$8,$9,$2,$3,0*
0 Add four circle primitives for the rounded corners*
1,1,$1+$1,$2,$3*
1,1,$1+$1,$4,$5*
1,1,$1+$1,$6,$7*
1,1,$1+$1,$8,$9*
0 Add four rect primitives between the rounded corners*
20,1,$1+$1,$2,$3,$4,$5,0*
20,1,$1+$1,$4,$5,$6,$7,0*
20,1,$1+$1,$6,$7,$8,$9,0*
20,1,$1+$1,$8,$9,$2,$3,0*%
G04 Aperture macros list end*
%ADD10RoundRect,0.750000X0.750000X-0.750000X0.750000X0.750000X-0.750000X0.750000X-0.750000X-0.750000X0*%
%ADD11C,3.000000*%
%ADD12C,3.200000*%
%ADD13C,4.500000*%
%ADD14RoundRect,0.250000X0.750000X-0.600000X0.750000X0.600000X-0.750000X0.600000X-0.750000X-0.600000X0*%
%ADD15O,2.000000X1.700000*%
%ADD16R,1.000000X3.150000*%
%ADD17R,1.700000X1.700000*%
%ADD18C,1.700000*%
%ADD19RoundRect,0.250000X0.625000X-0.350000X0.625000X0.350000X-0.625000X0.350000X-0.625000X-0.350000X0*%
%ADD20O,1.750000X1.200000*%
%ADD21RoundRect,0.250000X-0.350000X-0.625000X0.350000X-0.625000X0.350000X0.625000X-0.350000X0.625000X0*%
%ADD22O,1.200000X1.750000*%
%ADD23RoundRect,0.250001X0.899999X-0.899999X0.899999X0.899999X-0.899999X0.899999X-0.899999X-0.899999X0*%
%ADD24C,2.300000*%
G04 APERTURE END LIST*
D10*
%TO.C,J4*%
X127359416Y-55000000D03*
D11*
X127359416Y-50000000D03*
%TD*%
D12*
%TO.C,Hole*%
X120640000Y-62010000D03*
%TD*%
D13*
%TO.C,Hole*%
X111720000Y-49400000D03*
%TD*%
D12*
%TO.C,Hole*%
X102140000Y-62000000D03*
%TD*%
D14*
%TO.C,J5*%
X101534416Y-54740000D03*
D15*
X101534416Y-52240000D03*
%TD*%
D16*
%TO.C,J8*%
X114829416Y-64530000D03*
X112289416Y-64530000D03*
D17*
X112299416Y-63265000D03*
D16*
X109749416Y-64530000D03*
D18*
X109759416Y-63265000D03*
D16*
X107209416Y-64530000D03*
D18*
X107219416Y-63265000D03*
D16*
X107209416Y-59480000D03*
D17*
X107219416Y-60725000D03*
D16*
X109749416Y-59480000D03*
D18*
X109759416Y-60725000D03*
D16*
X112289416Y-59480000D03*
D18*
X112299416Y-60725000D03*
D16*
X114829416Y-59480000D03*
D18*
X114839416Y-60725000D03*
%TD*%
D19*
%TO.C,J3*%
X120949416Y-58010000D03*
D20*
X120949416Y-56010000D03*
X120949416Y-54010000D03*
X120949416Y-52010000D03*
X120949416Y-50010000D03*
X120949416Y-48010000D03*
%TD*%
D21*
%TO.C,J9*%
X107869416Y-69510000D03*
D22*
X109869416Y-69510000D03*
X111869416Y-69510000D03*
X113869416Y-69510000D03*
X115869416Y-69510000D03*
%TD*%
D23*
%TO.C,J1*%
X125269416Y-54890000D03*
D24*
X125269416Y-50090000D03*
%TD*%
D19*
%TO.C,J2*%
X117769416Y-58010000D03*
D20*
X117769416Y-56010000D03*
X117769416Y-54010000D03*
X117769416Y-52010000D03*
X117769416Y-50010000D03*
X117769416Y-48010000D03*
%TD*%
D14*
%TO.C,J7*%
X102559416Y-70440000D03*
D15*
X102559416Y-67940000D03*
%TD*%
D14*
%TO.C,J6*%
X122199416Y-70460000D03*
D15*
X122199416Y-67960000D03*
%TD*%
M02*
