%TF.GenerationSoftware,KiCad,Pcbnew,9.0.4*%
%TF.CreationDate,2025-09-30T21:06:53-07:00*%
%TF.ProjectId,Toolhead PCB,546f6f6c-6865-4616-9420-5043422e6b69,0.5*%
%TF.SameCoordinates,Original*%
%TF.FileFunction,Legend,Top*%
%TF.FilePolarity,Positive*%
%FSLAX46Y46*%
G04 Gerber Fmt 4.6, Leading zero omitted, Abs format (unit mm)*
G04 Created by KiCad (PCBNEW 9.0.4) date 2025-09-30 21:06:53*
%MOMM*%
%LPD*%
G01*
G04 APERTURE LIST*
%ADD10C,0.100000*%
%ADD11C,0.150000*%
%ADD12C,0.120000*%
G04 APERTURE END LIST*
D10*
X104879416Y-62000000D02*
G75*
G02*
X99379416Y-62000000I-2750000J0D01*
G01*
X99379416Y-62000000D02*
G75*
G02*
X104879416Y-62000000I2750000J0D01*
G01*
X123379416Y-62000000D02*
G75*
G02*
X117879416Y-62000000I-2750000J0D01*
G01*
X117879416Y-62000000D02*
G75*
G02*
X123379416Y-62000000I2750000J0D01*
G01*
D11*
X126349631Y-47585963D02*
X126349631Y-46950963D01*
X126349631Y-47253344D02*
X126712488Y-47253344D01*
X126712488Y-47585963D02*
X126712488Y-46950963D01*
X127256774Y-47555725D02*
X127196298Y-47585963D01*
X127196298Y-47585963D02*
X127075345Y-47585963D01*
X127075345Y-47585963D02*
X127014869Y-47555725D01*
X127014869Y-47555725D02*
X126984631Y-47495248D01*
X126984631Y-47495248D02*
X126984631Y-47253344D01*
X126984631Y-47253344D02*
X127014869Y-47192867D01*
X127014869Y-47192867D02*
X127075345Y-47162629D01*
X127075345Y-47162629D02*
X127196298Y-47162629D01*
X127196298Y-47162629D02*
X127256774Y-47192867D01*
X127256774Y-47192867D02*
X127287012Y-47253344D01*
X127287012Y-47253344D02*
X127287012Y-47313820D01*
X127287012Y-47313820D02*
X126984631Y-47374296D01*
X127831298Y-47585963D02*
X127831298Y-47253344D01*
X127831298Y-47253344D02*
X127801060Y-47192867D01*
X127801060Y-47192867D02*
X127740584Y-47162629D01*
X127740584Y-47162629D02*
X127619631Y-47162629D01*
X127619631Y-47162629D02*
X127559155Y-47192867D01*
X127831298Y-47555725D02*
X127770822Y-47585963D01*
X127770822Y-47585963D02*
X127619631Y-47585963D01*
X127619631Y-47585963D02*
X127559155Y-47555725D01*
X127559155Y-47555725D02*
X127528917Y-47495248D01*
X127528917Y-47495248D02*
X127528917Y-47434772D01*
X127528917Y-47434772D02*
X127559155Y-47374296D01*
X127559155Y-47374296D02*
X127619631Y-47344058D01*
X127619631Y-47344058D02*
X127770822Y-47344058D01*
X127770822Y-47344058D02*
X127831298Y-47313820D01*
X128042965Y-47162629D02*
X128284869Y-47162629D01*
X128133679Y-46950963D02*
X128133679Y-47495248D01*
X128133679Y-47495248D02*
X128163917Y-47555725D01*
X128163917Y-47555725D02*
X128224393Y-47585963D01*
X128224393Y-47585963D02*
X128284869Y-47585963D01*
X128738441Y-47555725D02*
X128677965Y-47585963D01*
X128677965Y-47585963D02*
X128557012Y-47585963D01*
X128557012Y-47585963D02*
X128496536Y-47555725D01*
X128496536Y-47555725D02*
X128466298Y-47495248D01*
X128466298Y-47495248D02*
X128466298Y-47253344D01*
X128466298Y-47253344D02*
X128496536Y-47192867D01*
X128496536Y-47192867D02*
X128557012Y-47162629D01*
X128557012Y-47162629D02*
X128677965Y-47162629D01*
X128677965Y-47162629D02*
X128738441Y-47192867D01*
X128738441Y-47192867D02*
X128768679Y-47253344D01*
X128768679Y-47253344D02*
X128768679Y-47313820D01*
X128768679Y-47313820D02*
X128466298Y-47374296D01*
X129040822Y-47585963D02*
X129040822Y-47162629D01*
X129040822Y-47283582D02*
X129071060Y-47223105D01*
X129071060Y-47223105D02*
X129101298Y-47192867D01*
X129101298Y-47192867D02*
X129161774Y-47162629D01*
X129161774Y-47162629D02*
X129222251Y-47162629D01*
X127714700Y-58871428D02*
X127714700Y-57728571D01*
X127714700Y-45871428D02*
X127714700Y-44728571D01*
X128286128Y-45299999D02*
X127143271Y-45299999D01*
X100081773Y-48040250D02*
X100432266Y-48134164D01*
X100092670Y-48700570D02*
X100257020Y-48087207D01*
X100472371Y-48802311D02*
X100636721Y-48188948D01*
X100735241Y-48872746D02*
X100821329Y-48551461D01*
X100821329Y-48551461D02*
X100807774Y-48485219D01*
X100807774Y-48485219D02*
X100757184Y-48440359D01*
X100757184Y-48440359D02*
X100669561Y-48416881D01*
X100669561Y-48416881D02*
X100603319Y-48430436D01*
X100603319Y-48430436D02*
X100566285Y-48451818D01*
X101268807Y-48984410D02*
X101202565Y-48997966D01*
X101202565Y-48997966D02*
X101085734Y-48966661D01*
X101085734Y-48966661D02*
X101035145Y-48921801D01*
X101035145Y-48921801D02*
X101021589Y-48855559D01*
X101021589Y-48855559D02*
X101084199Y-48621897D01*
X101084199Y-48621897D02*
X101129059Y-48571308D01*
X101129059Y-48571308D02*
X101195301Y-48557752D01*
X101195301Y-48557752D02*
X101312132Y-48589057D01*
X101312132Y-48589057D02*
X101362721Y-48633917D01*
X101362721Y-48633917D02*
X101376277Y-48700159D01*
X101376277Y-48700159D02*
X101360624Y-48758574D01*
X101360624Y-48758574D02*
X101052894Y-48738728D01*
X101553059Y-49091880D02*
X101662625Y-48682971D01*
X101631320Y-48799803D02*
X101676181Y-48749213D01*
X101676181Y-48749213D02*
X101713215Y-48727832D01*
X101713215Y-48727832D02*
X101779456Y-48714276D01*
X101779456Y-48714276D02*
X101837872Y-48729929D01*
X101932759Y-49193621D02*
X102042326Y-48784712D01*
X102026673Y-48843127D02*
X102063707Y-48821746D01*
X102063707Y-48821746D02*
X102129949Y-48808191D01*
X102129949Y-48808191D02*
X102217572Y-48831669D01*
X102217572Y-48831669D02*
X102268162Y-48876529D01*
X102268162Y-48876529D02*
X102281717Y-48942771D01*
X102281717Y-48942771D02*
X102195629Y-49264056D01*
X102281717Y-48942771D02*
X102326577Y-48892182D01*
X102326577Y-48892182D02*
X102392819Y-48878626D01*
X102392819Y-48878626D02*
X102480442Y-48902105D01*
X102480442Y-48902105D02*
X102531032Y-48946965D01*
X102531032Y-48946965D02*
X102544587Y-49013207D01*
X102544587Y-49013207D02*
X102458499Y-49334492D01*
X102750577Y-49412754D02*
X102860143Y-49003845D01*
X102914927Y-48799391D02*
X102877893Y-48820773D01*
X102877893Y-48820773D02*
X102899274Y-48857807D01*
X102899274Y-48857807D02*
X102936308Y-48836425D01*
X102936308Y-48836425D02*
X102914927Y-48799391D01*
X102914927Y-48799391D02*
X102899274Y-48857807D01*
X103021273Y-49453982D02*
X103071862Y-49498842D01*
X103071862Y-49498842D02*
X103188693Y-49530147D01*
X103188693Y-49530147D02*
X103254935Y-49516592D01*
X103254935Y-49516592D02*
X103299795Y-49466002D01*
X103299795Y-49466002D02*
X103307621Y-49436795D01*
X103307621Y-49436795D02*
X103294066Y-49370553D01*
X103294066Y-49370553D02*
X103243476Y-49325693D01*
X103243476Y-49325693D02*
X103155853Y-49302214D01*
X103155853Y-49302214D02*
X103105264Y-49257354D01*
X103105264Y-49257354D02*
X103091708Y-49191112D01*
X103091708Y-49191112D02*
X103099535Y-49161905D01*
X103099535Y-49161905D02*
X103144395Y-49111315D01*
X103144395Y-49111315D02*
X103210637Y-49097760D01*
X103210637Y-49097760D02*
X103298260Y-49121238D01*
X103298260Y-49121238D02*
X103348849Y-49166099D01*
X103561130Y-49191674D02*
X103794792Y-49254284D01*
X103703537Y-49010699D02*
X103562665Y-49536438D01*
X103562665Y-49536438D02*
X103576220Y-49602680D01*
X103576220Y-49602680D02*
X103626810Y-49647540D01*
X103626810Y-49647540D02*
X103685225Y-49663192D01*
X103977303Y-49741454D02*
X103926713Y-49696594D01*
X103926713Y-49696594D02*
X103905332Y-49659560D01*
X103905332Y-49659560D02*
X103891776Y-49593319D01*
X103891776Y-49593319D02*
X103938734Y-49418072D01*
X103938734Y-49418072D02*
X103983594Y-49367483D01*
X103983594Y-49367483D02*
X104020628Y-49346101D01*
X104020628Y-49346101D02*
X104086869Y-49332546D01*
X104086869Y-49332546D02*
X104174493Y-49356024D01*
X104174493Y-49356024D02*
X104225082Y-49400884D01*
X104225082Y-49400884D02*
X104246464Y-49437918D01*
X104246464Y-49437918D02*
X104260019Y-49504160D01*
X104260019Y-49504160D02*
X104213062Y-49679407D01*
X104213062Y-49679407D02*
X104168202Y-49729996D01*
X104168202Y-49729996D02*
X104131168Y-49751378D01*
X104131168Y-49751378D02*
X104064926Y-49764933D01*
X104064926Y-49764933D02*
X103977303Y-49741454D01*
X104444627Y-49866674D02*
X104554194Y-49457765D01*
X104522889Y-49574596D02*
X104567749Y-49524007D01*
X104567749Y-49524007D02*
X104604783Y-49502625D01*
X104604783Y-49502625D02*
X104671025Y-49489070D01*
X104671025Y-49489070D02*
X104729440Y-49504722D01*
X107966667Y-67554819D02*
X107966667Y-66554819D01*
X109014285Y-67554819D02*
X108680952Y-67078628D01*
X108442857Y-67554819D02*
X108442857Y-66554819D01*
X108442857Y-66554819D02*
X108823809Y-66554819D01*
X108823809Y-66554819D02*
X108919047Y-66602438D01*
X108919047Y-66602438D02*
X108966666Y-66650057D01*
X108966666Y-66650057D02*
X109014285Y-66745295D01*
X109014285Y-66745295D02*
X109014285Y-66888152D01*
X109014285Y-66888152D02*
X108966666Y-66983390D01*
X108966666Y-66983390D02*
X108919047Y-67031009D01*
X108919047Y-67031009D02*
X108823809Y-67078628D01*
X108823809Y-67078628D02*
X108442857Y-67078628D01*
X110157142Y-66507200D02*
X109300000Y-67792914D01*
X110442857Y-67269104D02*
X110919047Y-67269104D01*
X110347619Y-67554819D02*
X110680952Y-66554819D01*
X110680952Y-66554819D02*
X111014285Y-67554819D01*
X111347619Y-67554819D02*
X111347619Y-66554819D01*
X111347619Y-66554819D02*
X111585714Y-66554819D01*
X111585714Y-66554819D02*
X111728571Y-66602438D01*
X111728571Y-66602438D02*
X111823809Y-66697676D01*
X111823809Y-66697676D02*
X111871428Y-66792914D01*
X111871428Y-66792914D02*
X111919047Y-66983390D01*
X111919047Y-66983390D02*
X111919047Y-67126247D01*
X111919047Y-67126247D02*
X111871428Y-67316723D01*
X111871428Y-67316723D02*
X111823809Y-67411961D01*
X111823809Y-67411961D02*
X111728571Y-67507200D01*
X111728571Y-67507200D02*
X111585714Y-67554819D01*
X111585714Y-67554819D02*
X111347619Y-67554819D01*
X112252381Y-66554819D02*
X112919047Y-67554819D01*
X112919047Y-66554819D02*
X112252381Y-67554819D01*
X113776190Y-67554819D02*
X113300000Y-67554819D01*
X113300000Y-67554819D02*
X113300000Y-66554819D01*
D12*
%TO.C,J4*%
X124890000Y-46590000D02*
X130310000Y-46590000D01*
X124890000Y-55310000D02*
X124890000Y-46590000D01*
X126190000Y-57010000D02*
X124890000Y-55310000D01*
X126190000Y-57010000D02*
X129010000Y-57010000D01*
X129010000Y-57010000D02*
X130310000Y-55310000D01*
X130310000Y-55310000D02*
X130310000Y-46590000D01*
%TO.C,J5*%
X97758404Y-56164792D02*
X98125927Y-54793178D01*
X98125927Y-54793178D02*
X102472593Y-55957863D01*
X98642772Y-54062034D02*
X98798063Y-53482478D01*
X98798063Y-53482478D02*
X99299973Y-53927547D01*
X99299973Y-53927547D02*
X98642772Y-54062034D01*
X99363082Y-50176052D02*
X103709748Y-51340738D01*
X99730605Y-48804437D02*
X99363082Y-50176052D01*
X102472593Y-55957863D02*
X103091171Y-53649300D01*
X103709748Y-51340738D02*
X103091171Y-53649300D01*
X103775120Y-55385478D02*
X109087712Y-56808983D01*
X103904529Y-54902516D02*
X103775120Y-55385478D01*
X104422167Y-52970664D02*
X109734761Y-54394169D01*
X104551577Y-52487701D02*
X104422167Y-52970664D01*
X109079055Y-59198151D02*
X97758404Y-56164792D01*
X109087712Y-56808983D02*
X109217122Y-56326021D01*
X109217122Y-56326021D02*
X103904529Y-54902516D01*
X109734761Y-54394169D02*
X109864169Y-53911206D01*
X109864169Y-53911206D02*
X104551577Y-52487701D01*
X110065156Y-55517974D02*
X109079055Y-59198151D01*
X110065156Y-55517974D02*
X111051256Y-51837796D01*
X111051256Y-51837796D02*
X99730605Y-48804437D01*
%TO.C,J8*%
X105839416Y-59345000D02*
X105839416Y-64645000D01*
X106399416Y-59355000D02*
X105829416Y-59355000D01*
X106399416Y-64655000D02*
X105829416Y-64655000D01*
X108939416Y-59355000D02*
X108019416Y-59355000D01*
X108939416Y-64655000D02*
X108019416Y-64655000D01*
X111479416Y-59355000D02*
X110559416Y-59355000D01*
X111479416Y-64655000D02*
X110559416Y-64655000D01*
X114019416Y-59355000D02*
X113099416Y-59355000D01*
X114019416Y-64655000D02*
X113099416Y-64655000D01*
X115639416Y-57965000D02*
X115639416Y-59355000D01*
X116209416Y-59355000D02*
X115639416Y-59355000D01*
X116209416Y-59355000D02*
X116209416Y-64655000D01*
X116209416Y-64655000D02*
X115639416Y-64655000D01*
%TD*%
M02*
