%TF.GenerationSoftware,KiCad,Pcbnew,9.0.4*%
%TF.CreationDate,2025-09-30T03:12:06-07:00*%
%TF.ProjectId,Toolhead PCB,546f6f6c-6865-4616-9420-5043422e6b69,0.5*%
%TF.SameCoordinates,Original*%
%TF.FileFunction,Legend,Top*%
%TF.FilePolarity,Positive*%
%FSLAX46Y46*%
G04 Gerber Fmt 4.6, Leading zero omitted, Abs format (unit mm)*
G04 Created by KiCad (PCBNEW 9.0.4) date 2025-09-30 03:12:06*
%MOMM*%
%LPD*%
G01*
G04 APERTURE LIST*
%ADD10C,0.100000*%
%ADD11C,0.150000*%
%ADD12C,0.120000*%
G04 APERTURE END LIST*
D10*
X104879416Y-62000000D02*
G75*
G02*
X99379416Y-62000000I-2750000J0D01*
G01*
X99379416Y-62000000D02*
G75*
G02*
X104879416Y-62000000I2750000J0D01*
G01*
X123379416Y-62000000D02*
G75*
G02*
X117879416Y-62000000I-2750000J0D01*
G01*
X117879416Y-62000000D02*
G75*
G02*
X123379416Y-62000000I2750000J0D01*
G01*
D11*
X122814235Y-52833333D02*
X123528520Y-52833333D01*
X123528520Y-52833333D02*
X123671377Y-52880952D01*
X123671377Y-52880952D02*
X123766616Y-52976190D01*
X123766616Y-52976190D02*
X123814235Y-53119047D01*
X123814235Y-53119047D02*
X123814235Y-53214285D01*
X123147568Y-51928571D02*
X123814235Y-51928571D01*
X122766616Y-52166666D02*
X123480901Y-52404761D01*
X123480901Y-52404761D02*
X123480901Y-51785714D01*
X127474116Y-59571428D02*
X127474116Y-58428571D01*
X127474116Y-46571428D02*
X127474116Y-45428571D01*
X128045544Y-45999999D02*
X126902687Y-45999999D01*
X97479235Y-53823333D02*
X98193520Y-53823333D01*
X98193520Y-53823333D02*
X98336377Y-53870952D01*
X98336377Y-53870952D02*
X98431616Y-53966190D01*
X98431616Y-53966190D02*
X98479235Y-54109047D01*
X98479235Y-54109047D02*
X98479235Y-54204285D01*
X97479235Y-52870952D02*
X97479235Y-53347142D01*
X97479235Y-53347142D02*
X97955425Y-53394761D01*
X97955425Y-53394761D02*
X97907806Y-53347142D01*
X97907806Y-53347142D02*
X97860187Y-53251904D01*
X97860187Y-53251904D02*
X97860187Y-53013809D01*
X97860187Y-53013809D02*
X97907806Y-52918571D01*
X97907806Y-52918571D02*
X97955425Y-52870952D01*
X97955425Y-52870952D02*
X98050663Y-52823333D01*
X98050663Y-52823333D02*
X98288758Y-52823333D01*
X98288758Y-52823333D02*
X98383996Y-52870952D01*
X98383996Y-52870952D02*
X98431616Y-52918571D01*
X98431616Y-52918571D02*
X98479235Y-53013809D01*
X98479235Y-53013809D02*
X98479235Y-53251904D01*
X98479235Y-53251904D02*
X98431616Y-53347142D01*
X98431616Y-53347142D02*
X98383996Y-53394761D01*
X108086083Y-57354819D02*
X108086083Y-56354819D01*
X109133701Y-57354819D02*
X108800368Y-56878628D01*
X108562273Y-57354819D02*
X108562273Y-56354819D01*
X108562273Y-56354819D02*
X108943225Y-56354819D01*
X108943225Y-56354819D02*
X109038463Y-56402438D01*
X109038463Y-56402438D02*
X109086082Y-56450057D01*
X109086082Y-56450057D02*
X109133701Y-56545295D01*
X109133701Y-56545295D02*
X109133701Y-56688152D01*
X109133701Y-56688152D02*
X109086082Y-56783390D01*
X109086082Y-56783390D02*
X109038463Y-56831009D01*
X109038463Y-56831009D02*
X108943225Y-56878628D01*
X108943225Y-56878628D02*
X108562273Y-56878628D01*
X110276558Y-56307200D02*
X109419416Y-57592914D01*
X110562273Y-57069104D02*
X111038463Y-57069104D01*
X110467035Y-57354819D02*
X110800368Y-56354819D01*
X110800368Y-56354819D02*
X111133701Y-57354819D01*
X111467035Y-57354819D02*
X111467035Y-56354819D01*
X111467035Y-56354819D02*
X111705130Y-56354819D01*
X111705130Y-56354819D02*
X111847987Y-56402438D01*
X111847987Y-56402438D02*
X111943225Y-56497676D01*
X111943225Y-56497676D02*
X111990844Y-56592914D01*
X111990844Y-56592914D02*
X112038463Y-56783390D01*
X112038463Y-56783390D02*
X112038463Y-56926247D01*
X112038463Y-56926247D02*
X111990844Y-57116723D01*
X111990844Y-57116723D02*
X111943225Y-57211961D01*
X111943225Y-57211961D02*
X111847987Y-57307200D01*
X111847987Y-57307200D02*
X111705130Y-57354819D01*
X111705130Y-57354819D02*
X111467035Y-57354819D01*
X112371797Y-56354819D02*
X113038463Y-57354819D01*
X113038463Y-56354819D02*
X112371797Y-57354819D01*
X113895606Y-57354819D02*
X113419416Y-57354819D01*
X113419416Y-57354819D02*
X113419416Y-56354819D01*
D12*
%TO.C,J4*%
X124649416Y-47290000D02*
X130069416Y-47290000D01*
X124649416Y-56010000D02*
X124649416Y-47290000D01*
X125949416Y-57710000D02*
X124649416Y-56010000D01*
X125949416Y-57710000D02*
X128769416Y-57710000D01*
X128769416Y-57710000D02*
X130069416Y-56010000D01*
X130069416Y-56010000D02*
X130069416Y-47290000D01*
%TO.C,J5*%
X99124416Y-49680000D02*
X99124416Y-51100000D01*
X99124416Y-51100000D02*
X103624416Y-51100000D01*
X99124416Y-55880000D02*
X103624416Y-55880000D01*
X99124416Y-57300000D02*
X99124416Y-55880000D01*
X99434416Y-54440000D02*
X100034416Y-54740000D01*
X99434416Y-55040000D02*
X99434416Y-54440000D01*
X100034416Y-54740000D02*
X99434416Y-55040000D01*
X103624416Y-51100000D02*
X103624416Y-53490000D01*
X103624416Y-55880000D02*
X103624416Y-53490000D01*
X104734416Y-51990000D02*
X104734416Y-52490000D01*
X104734416Y-52490000D02*
X110234416Y-52490000D01*
X104734416Y-54490000D02*
X104734416Y-54990000D01*
X104734416Y-54990000D02*
X110234416Y-54990000D01*
X110234416Y-51990000D02*
X104734416Y-51990000D01*
X110234416Y-52490000D02*
X110234416Y-51990000D01*
X110234416Y-54490000D02*
X104734416Y-54490000D01*
X110234416Y-54990000D02*
X110234416Y-54490000D01*
X110844416Y-49680000D02*
X99124416Y-49680000D01*
X110844416Y-53490000D02*
X110844416Y-49680000D01*
X110844416Y-53490000D02*
X110844416Y-57300000D01*
X110844416Y-57300000D02*
X99124416Y-57300000D01*
%TO.C,J8*%
X105839416Y-59345000D02*
X105839416Y-64645000D01*
X106399416Y-59355000D02*
X105829416Y-59355000D01*
X106399416Y-64655000D02*
X105829416Y-64655000D01*
X108939416Y-59355000D02*
X108019416Y-59355000D01*
X108939416Y-64655000D02*
X108019416Y-64655000D01*
X111479416Y-59355000D02*
X110559416Y-59355000D01*
X111479416Y-64655000D02*
X110559416Y-64655000D01*
X114019416Y-59355000D02*
X113099416Y-59355000D01*
X114019416Y-64655000D02*
X113099416Y-64655000D01*
X115639416Y-57965000D02*
X115639416Y-59355000D01*
X116209416Y-59355000D02*
X115639416Y-59355000D01*
X116209416Y-59355000D02*
X116209416Y-64655000D01*
X116209416Y-64655000D02*
X115639416Y-64655000D01*
%TD*%
M02*
