%TF.GenerationSoftware,KiCad,Pcbnew,9.0.4*%
%TF.CreationDate,2025-09-25T23:05:09-07:00*%
%TF.ProjectId,Toolhead PCB,546f6f6c-6865-4616-9420-5043422e6b69,0.5*%
%TF.SameCoordinates,Original*%
%TF.FileFunction,Copper,L1,Top*%
%TF.FilePolarity,Positive*%
%FSLAX46Y46*%
G04 Gerber Fmt 4.6, Leading zero omitted, Abs format (unit mm)*
G04 Created by KiCad (PCBNEW 9.0.4) date 2025-09-25 23:05:09*
%MOMM*%
%LPD*%
G01*
G04 APERTURE LIST*
G04 Aperture macros list*
%AMRoundRect*
0 Rectangle with rounded corners*
0 $1 Rounding radius*
0 $2 $3 $4 $5 $6 $7 $8 $9 X,Y pos of 4 corners*
0 Add a 4 corners polygon primitive as box body*
4,1,4,$2,$3,$4,$5,$6,$7,$8,$9,$2,$3,0*
0 Add four circle primitives for the rounded corners*
1,1,$1+$1,$2,$3*
1,1,$1+$1,$4,$5*
1,1,$1+$1,$6,$7*
1,1,$1+$1,$8,$9*
0 Add four rect primitives between the rounded corners*
20,1,$1+$1,$2,$3,$4,$5,0*
20,1,$1+$1,$4,$5,$6,$7,0*
20,1,$1+$1,$6,$7,$8,$9,0*
20,1,$1+$1,$8,$9,$2,$3,0*%
G04 Aperture macros list end*
%TA.AperFunction,ComponentPad*%
%ADD10RoundRect,0.250000X0.625000X-0.350000X0.625000X0.350000X-0.625000X0.350000X-0.625000X-0.350000X0*%
%TD*%
%TA.AperFunction,ComponentPad*%
%ADD11O,1.750000X1.200000*%
%TD*%
%TA.AperFunction,SMDPad,CuDef*%
%ADD12R,1.000000X3.150000*%
%TD*%
%TA.AperFunction,ComponentPad*%
%ADD13R,1.700000X1.700000*%
%TD*%
%TA.AperFunction,ComponentPad*%
%ADD14C,1.700000*%
%TD*%
%TA.AperFunction,ComponentPad*%
%ADD15RoundRect,0.750000X-0.750000X0.750000X-0.750000X-0.750000X0.750000X-0.750000X0.750000X0.750000X0*%
%TD*%
%TA.AperFunction,ComponentPad*%
%ADD16C,3.000000*%
%TD*%
%TA.AperFunction,ComponentPad*%
%ADD17RoundRect,0.250000X0.750000X0.750000X-0.750000X0.750000X-0.750000X-0.750000X0.750000X-0.750000X0*%
%TD*%
%TA.AperFunction,ComponentPad*%
%ADD18C,2.000000*%
%TD*%
%TA.AperFunction,ComponentPad*%
%ADD19RoundRect,0.250000X0.750000X-0.600000X0.750000X0.600000X-0.750000X0.600000X-0.750000X-0.600000X0*%
%TD*%
%TA.AperFunction,ComponentPad*%
%ADD20O,2.000000X1.700000*%
%TD*%
%TA.AperFunction,ComponentPad*%
%ADD21RoundRect,0.250000X-0.350000X-0.625000X0.350000X-0.625000X0.350000X0.625000X-0.350000X0.625000X0*%
%TD*%
%TA.AperFunction,ComponentPad*%
%ADD22O,1.200000X1.750000*%
%TD*%
%TA.AperFunction,ViaPad*%
%ADD23C,3.125001*%
%TD*%
%TA.AperFunction,ViaPad*%
%ADD24C,4.500001*%
%TD*%
%TA.AperFunction,ViaPad*%
%ADD25C,1.200000*%
%TD*%
%TA.AperFunction,Conductor*%
%ADD26C,2.000000*%
%TD*%
%TA.AperFunction,Conductor*%
%ADD27C,1.000000*%
%TD*%
%TA.AperFunction,Conductor*%
%ADD28C,0.200000*%
%TD*%
%TA.AperFunction,Conductor*%
%ADD29C,0.500000*%
%TD*%
G04 APERTURE END LIST*
D10*
%TO.P,J3,1,Pin_1*%
%TO.N,Net-(J10-Pin_8)*%
X100330000Y-62480000D03*
D11*
%TO.P,J3,2,Pin_2*%
%TO.N,Net-(J10-Pin_6)*%
X100330000Y-60480000D03*
%TO.P,J3,3,Pin_3*%
%TO.N,Net-(J10-Pin_4)*%
X100330000Y-58480000D03*
%TO.P,J3,4,Pin_4*%
%TO.N,Net-(J3-Pin_4)*%
X100330000Y-56480000D03*
%TO.P,J3,5,Pin_5*%
%TO.N,Net-(J3-Pin_5)*%
X100330000Y-54480000D03*
%TO.P,J3,6,Pin_6*%
%TO.N,Net-(J3-Pin_6)*%
X100330000Y-52480000D03*
%TD*%
D12*
%TO.P,J8,1,Pin_1*%
%TO.N,Net-(J10-Pin_1)*%
X120470000Y-63000000D03*
%TO.P,J8,2,Pin_2*%
%TO.N,Net-(J10-Pin_2)*%
X120470000Y-68050000D03*
%TO.P,J8,3,Pin_3*%
%TO.N,Net-(J10-Pin_3)*%
X117930000Y-63000000D03*
%TO.P,J8,4,Pin_4*%
%TO.N,Net-(J10-Pin_4)*%
X117930000Y-68050000D03*
%TO.P,J8,5,Pin_5*%
%TO.N,Net-(J10-Pin_5)*%
X115390000Y-63000000D03*
%TO.P,J8,6,Pin_6*%
%TO.N,Net-(J10-Pin_6)*%
X115390000Y-68050000D03*
%TO.P,J8,7,Pin_7*%
%TO.N,Net-(J10-Pin_7)*%
X112850000Y-63000000D03*
%TO.P,J8,8,Pin_8*%
%TO.N,Net-(J10-Pin_8)*%
X112850000Y-68050000D03*
%TD*%
D13*
%TO.P,J10,1,Pin_1*%
%TO.N,Net-(J10-Pin_1)*%
X120460000Y-64230000D03*
D14*
%TO.P,J10,2,Pin_2*%
%TO.N,Net-(J10-Pin_2)*%
X120460000Y-66770000D03*
%TO.P,J10,3,Pin_3*%
%TO.N,Net-(J10-Pin_3)*%
X117920000Y-64230000D03*
%TO.P,J10,4,Pin_4*%
%TO.N,Net-(J10-Pin_4)*%
X117920000Y-66770000D03*
%TO.P,J10,5,Pin_5*%
%TO.N,Net-(J10-Pin_5)*%
X115380000Y-64230000D03*
%TO.P,J10,6,Pin_6*%
%TO.N,Net-(J10-Pin_6)*%
X115380000Y-66770000D03*
%TO.P,J10,7,Pin_7*%
%TO.N,Net-(J10-Pin_7)*%
X112840000Y-64230000D03*
%TO.P,J10,8,Pin_8*%
%TO.N,Net-(J10-Pin_8)*%
X112840000Y-66770000D03*
%TD*%
D15*
%TO.P,J4,1,Pin_1*%
%TO.N,Net-(J1-Pin_2)*%
X133000000Y-54690000D03*
D16*
%TO.P,J4,2,Pin_2*%
%TO.N,Net-(J1-Pin_1)*%
X133000000Y-59690000D03*
%TD*%
D10*
%TO.P,J9,1,Pin_1*%
%TO.N,Net-(J2-Pin_1)*%
X105840000Y-60470000D03*
D11*
%TO.P,J9,2,Pin_2*%
%TO.N,Net-(J10-Pin_6)*%
X105840000Y-58470000D03*
%TO.P,J9,3,Pin_3*%
%TO.N,Net-(J2-Pin_2)*%
X105840000Y-56470000D03*
%TO.P,J9,4,Pin_4*%
%TO.N,Net-(J10-Pin_8)*%
X105840000Y-54470000D03*
%TO.P,J9,5,Pin_5*%
%TO.N,Net-(J10-Pin_6)*%
X105840000Y-52470000D03*
%TD*%
D17*
%TO.P,J1,1,Pin_1*%
%TO.N,Net-(J1-Pin_1)*%
X128640000Y-59890000D03*
D18*
%TO.P,J1,2,Pin_2*%
%TO.N,Net-(J1-Pin_2)*%
X126100000Y-59890000D03*
%TD*%
D19*
%TO.P,J5,1,Pin_1*%
%TO.N,Net-(J3-Pin_4)*%
X126840000Y-55450000D03*
D20*
%TO.P,J5,2,Pin_2*%
%TO.N,Net-(J10-Pin_6)*%
X126840000Y-52950000D03*
%TD*%
D21*
%TO.P,J2,1,Pin_1*%
%TO.N,Net-(J2-Pin_1)*%
X111640000Y-57480000D03*
D22*
%TO.P,J2,2,Pin_2*%
%TO.N,Net-(J2-Pin_2)*%
X113640000Y-57480000D03*
%TO.P,J2,3,Pin_3*%
%TO.N,Net-(J10-Pin_7)*%
X115640000Y-57480000D03*
%TO.P,J2,4,Pin_4*%
%TO.N,Net-(J10-Pin_5)*%
X117640000Y-57480000D03*
%TO.P,J2,5,Pin_5*%
%TO.N,Net-(J10-Pin_3)*%
X119640000Y-57480000D03*
%TO.P,J2,6,Pin_6*%
%TO.N,Net-(J10-Pin_1)*%
X121640000Y-57480000D03*
%TD*%
D19*
%TO.P,J7,1,Pin_1*%
%TO.N,Net-(J1-Pin_2)*%
X101380000Y-70430000D03*
D20*
%TO.P,J7,2,Pin_2*%
%TO.N,Net-(J3-Pin_5)*%
X101380000Y-67930000D03*
%TD*%
D19*
%TO.P,J6,1,Pin_1*%
%TO.N,Net-(J1-Pin_2)*%
X131785000Y-70490000D03*
D20*
%TO.P,J6,2,Pin_2*%
%TO.N,Net-(J3-Pin_6)*%
X131785000Y-67990000D03*
%TD*%
D23*
%TO.N,*%
X126250000Y-65500000D03*
X107750000Y-65500000D03*
D24*
%TO.N,Net-(J3-Pin_6)*%
X117450000Y-52800000D03*
D25*
%TO.N,Net-(J10-Pin_1)*%
X120450000Y-61750000D03*
%TO.N,Net-(J10-Pin_3)*%
X117940000Y-61750000D03*
%TO.N,Net-(J10-Pin_5)*%
X115380000Y-61750000D03*
%TO.N,Net-(J10-Pin_7)*%
X112860000Y-61750000D03*
%TO.N,Net-(J10-Pin_4)*%
X103590000Y-58510000D03*
%TO.N,Net-(J10-Pin_8)*%
X103790000Y-63830000D03*
X109740000Y-54440000D03*
%TO.N,Net-(J10-Pin_6)*%
X115380000Y-69300000D03*
%TD*%
D26*
%TO.N,Net-(J1-Pin_1)*%
X128640000Y-59890000D02*
X132800000Y-59890000D01*
X132800000Y-59890000D02*
X133000000Y-59690000D01*
X132880000Y-59690000D02*
X133000000Y-59690000D01*
D27*
%TO.N,Net-(J1-Pin_2)*%
X133000000Y-54690000D02*
X133000000Y-54710000D01*
D28*
X133000000Y-54690000D02*
X133000000Y-55060000D01*
D27*
X133900000Y-69060000D02*
X132470000Y-70490000D01*
X129921000Y-61591000D02*
X133900000Y-65570000D01*
X133900000Y-65570000D02*
X133900000Y-69060000D01*
X132470000Y-70490000D02*
X131785000Y-70490000D01*
D26*
X126100000Y-58475787D02*
X126886787Y-57689000D01*
D27*
X126100000Y-60201844D02*
X127489156Y-61591000D01*
D26*
X130001000Y-57689000D02*
X133000000Y-54690000D01*
X126100000Y-59890000D02*
X126100000Y-58475787D01*
X126886787Y-57689000D02*
X130001000Y-57689000D01*
D27*
X126100000Y-59890000D02*
X126100000Y-60201844D01*
X127489156Y-61591000D02*
X129921000Y-61591000D01*
D29*
%TO.N,Net-(J3-Pin_6)*%
X100330000Y-52480000D02*
X100370000Y-52480000D01*
D28*
%TO.N,Net-(J10-Pin_1)*%
X120693000Y-63997000D02*
X120460000Y-64230000D01*
X120440000Y-61790000D02*
X120440000Y-62524000D01*
X120460000Y-61770000D02*
X120440000Y-61790000D01*
X120440000Y-62524000D02*
X120693000Y-62777000D01*
%TO.N,Net-(J10-Pin_3)*%
X117920000Y-61720000D02*
X117911085Y-61728915D01*
X117911085Y-61728915D02*
X117911085Y-62981085D01*
X117920000Y-63010000D02*
X117920000Y-64230000D01*
X117911085Y-62981085D02*
X117930000Y-63000000D01*
%TO.N,Net-(J10-Pin_5)*%
X115346770Y-62956770D02*
X115390000Y-63000000D01*
X115380000Y-62873000D02*
X115380000Y-64230000D01*
X115346770Y-61803230D02*
X115346770Y-62956770D01*
X115346770Y-61803230D02*
X115346770Y-62839770D01*
X115346770Y-62839770D02*
X115380000Y-62873000D01*
X115400000Y-61750000D02*
X115346770Y-61803230D01*
%TO.N,Net-(J10-Pin_7)*%
X112840000Y-62100057D02*
X112840000Y-64230000D01*
%TO.N,Net-(J10-Pin_4)*%
X111400000Y-64855402D02*
X112034598Y-65490000D01*
X103590000Y-58510000D02*
X103590000Y-60720000D01*
X104810000Y-61940000D02*
X110490000Y-61940000D01*
X112034598Y-65490000D02*
X116640000Y-65490000D01*
X111400000Y-62850000D02*
X111400000Y-64855402D01*
X110490000Y-61940000D02*
X111400000Y-62850000D01*
X103590000Y-60720000D02*
X104810000Y-61940000D01*
X116640000Y-65490000D02*
X117920000Y-66770000D01*
D27*
%TO.N,Net-(J10-Pin_8)*%
X100330000Y-62480000D02*
X102440000Y-62480000D01*
X103790000Y-63830000D02*
X103790000Y-66950000D01*
X105840000Y-54470000D02*
X109710000Y-54470000D01*
X109710000Y-54470000D02*
X109740000Y-54440000D01*
X102230000Y-62270000D02*
X102440000Y-62480000D01*
X105840000Y-54470000D02*
X105565000Y-54470000D01*
X102230000Y-57805000D02*
X102230000Y-62270000D01*
X112850000Y-69090000D02*
X111710000Y-70230000D01*
X105565000Y-54470000D02*
X102230000Y-57805000D01*
X102440000Y-62480000D02*
X103790000Y-63830000D01*
X112850000Y-68050000D02*
X112850000Y-69090000D01*
X107070000Y-70230000D02*
X111710000Y-70230000D01*
X103790000Y-66950000D02*
X107070000Y-70230000D01*
D29*
%TO.N,Net-(J10-Pin_6)*%
X126540000Y-53250000D02*
X126840000Y-52950000D01*
%TD*%
%TA.AperFunction,Conductor*%
%TO.N,Net-(J10-Pin_7)*%
G36*
X112866511Y-61753364D02*
G01*
X113234359Y-61999889D01*
X113350393Y-62077653D01*
X113355357Y-62085105D01*
X113354386Y-62092519D01*
X112943210Y-62931918D01*
X112936493Y-62937840D01*
X112932703Y-62938471D01*
X112747613Y-62938471D01*
X112739340Y-62935044D01*
X112736916Y-62931511D01*
X112365098Y-62092326D01*
X112364881Y-62083376D01*
X112369280Y-62077871D01*
X112853487Y-61753364D01*
X112862267Y-61751606D01*
X112866511Y-61753364D01*
G37*
%TD.AperFunction*%
%TD*%
%TA.AperFunction,Conductor*%
%TO.N,Net-(J10-Pin_5)*%
G36*
X115385805Y-61753647D02*
G01*
X115869650Y-62077169D01*
X115874623Y-62084616D01*
X115873199Y-62092882D01*
X115451456Y-62801036D01*
X115449677Y-62803322D01*
X115320791Y-62932208D01*
X115312518Y-62935635D01*
X115304245Y-62932208D01*
X115302043Y-62929148D01*
X115238287Y-62801036D01*
X114885697Y-62092544D01*
X114885080Y-62083612D01*
X114889655Y-62077617D01*
X115372788Y-61753654D01*
X115381566Y-61751894D01*
X115385805Y-61753647D01*
G37*
%TD.AperFunction*%
%TD*%
%TA.AperFunction,Conductor*%
%TO.N,Net-(J10-Pin_3)*%
G36*
X117946511Y-61753364D02*
G01*
X118430321Y-62077605D01*
X118435285Y-62085056D01*
X118434271Y-62092558D01*
X118014319Y-62932006D01*
X118007552Y-62937871D01*
X118003855Y-62938471D01*
X117818771Y-62938471D01*
X117810498Y-62935044D01*
X117808033Y-62931417D01*
X117444986Y-62092283D01*
X117444846Y-62083329D01*
X117449208Y-62077919D01*
X117933487Y-61753364D01*
X117942267Y-61751606D01*
X117946511Y-61753364D01*
G37*
%TD.AperFunction*%
%TD*%
%TA.AperFunction,Conductor*%
%TO.N,Net-(J10-Pin_4)*%
G36*
X103596511Y-58513364D02*
G01*
X104080555Y-58837761D01*
X104085519Y-58845213D01*
X104084644Y-58852426D01*
X103693150Y-59691717D01*
X103686547Y-59697766D01*
X103682547Y-59698471D01*
X103497453Y-59698471D01*
X103489180Y-59695044D01*
X103486850Y-59691717D01*
X103095355Y-58852426D01*
X103094963Y-58843480D01*
X103099442Y-58837763D01*
X103583487Y-58513364D01*
X103592267Y-58511606D01*
X103596511Y-58513364D01*
G37*
%TD.AperFunction*%
%TD*%
%TA.AperFunction,Conductor*%
%TO.N,Net-(J10-Pin_1)*%
G36*
X121025543Y-61864470D02*
G01*
X121032984Y-61869452D01*
X121034723Y-61878236D01*
X121034369Y-61879583D01*
X120764579Y-62703632D01*
X120761733Y-62708265D01*
X120631116Y-62838882D01*
X120622843Y-62842309D01*
X120614570Y-62838882D01*
X120614063Y-62838342D01*
X119959910Y-62093355D01*
X119957028Y-62084879D01*
X119960983Y-62076845D01*
X119962179Y-62075924D01*
X120445255Y-61752000D01*
X120454032Y-61750240D01*
X121025543Y-61864470D01*
G37*
%TD.AperFunction*%
%TD*%
%TA.AperFunction,Conductor*%
%TO.N,Net-(J10-Pin_5)*%
G36*
X115386511Y-61753364D02*
G01*
X115870286Y-62077581D01*
X115875250Y-62085033D01*
X115874214Y-62092577D01*
X115450016Y-62932048D01*
X115443227Y-62937886D01*
X115439574Y-62938471D01*
X115254492Y-62938471D01*
X115246219Y-62935044D01*
X115243734Y-62931371D01*
X114884931Y-62092260D01*
X114884829Y-62083306D01*
X114889172Y-62077943D01*
X115373487Y-61753364D01*
X115382267Y-61751606D01*
X115386511Y-61753364D01*
G37*
%TD.AperFunction*%
%TD*%
M02*
