%TF.GenerationSoftware,KiCad,Pcbnew,9.0.4*%
%TF.CreationDate,2025-09-24T12:44:57-07:00*%
%TF.ProjectId,Toolhead PCB,546f6f6c-6865-4616-9420-5043422e6b69,0.5*%
%TF.SameCoordinates,Original*%
%TF.FileFunction,Copper,L1,Top*%
%TF.FilePolarity,Positive*%
%FSLAX46Y46*%
G04 Gerber Fmt 4.6, Leading zero omitted, Abs format (unit mm)*
G04 Created by KiCad (PCBNEW 9.0.4) date 2025-09-24 12:44:57*
%MOMM*%
%LPD*%
G01*
G04 APERTURE LIST*
G04 Aperture macros list*
%AMRoundRect*
0 Rectangle with rounded corners*
0 $1 Rounding radius*
0 $2 $3 $4 $5 $6 $7 $8 $9 X,Y pos of 4 corners*
0 Add a 4 corners polygon primitive as box body*
4,1,4,$2,$3,$4,$5,$6,$7,$8,$9,$2,$3,0*
0 Add four circle primitives for the rounded corners*
1,1,$1+$1,$2,$3*
1,1,$1+$1,$4,$5*
1,1,$1+$1,$6,$7*
1,1,$1+$1,$8,$9*
0 Add four rect primitives between the rounded corners*
20,1,$1+$1,$2,$3,$4,$5,0*
20,1,$1+$1,$4,$5,$6,$7,0*
20,1,$1+$1,$6,$7,$8,$9,0*
20,1,$1+$1,$8,$9,$2,$3,0*%
G04 Aperture macros list end*
%TA.AperFunction,ComponentPad*%
%ADD10RoundRect,0.250000X0.625000X-0.350000X0.625000X0.350000X-0.625000X0.350000X-0.625000X-0.350000X0*%
%TD*%
%TA.AperFunction,ComponentPad*%
%ADD11O,1.750000X1.200000*%
%TD*%
%TA.AperFunction,SMDPad,CuDef*%
%ADD12R,1.000000X3.150000*%
%TD*%
%TA.AperFunction,ComponentPad*%
%ADD13R,1.700000X1.700000*%
%TD*%
%TA.AperFunction,ComponentPad*%
%ADD14C,1.700000*%
%TD*%
%TA.AperFunction,ComponentPad*%
%ADD15RoundRect,0.750000X-0.750000X0.750000X-0.750000X-0.750000X0.750000X-0.750000X0.750000X0.750000X0*%
%TD*%
%TA.AperFunction,ComponentPad*%
%ADD16C,3.000000*%
%TD*%
%TA.AperFunction,ComponentPad*%
%ADD17RoundRect,0.250000X0.750000X0.750000X-0.750000X0.750000X-0.750000X-0.750000X0.750000X-0.750000X0*%
%TD*%
%TA.AperFunction,ComponentPad*%
%ADD18C,2.000000*%
%TD*%
%TA.AperFunction,ComponentPad*%
%ADD19RoundRect,0.250000X0.750000X-0.600000X0.750000X0.600000X-0.750000X0.600000X-0.750000X-0.600000X0*%
%TD*%
%TA.AperFunction,ComponentPad*%
%ADD20O,2.000000X1.700000*%
%TD*%
%TA.AperFunction,ComponentPad*%
%ADD21RoundRect,0.250000X-0.350000X-0.625000X0.350000X-0.625000X0.350000X0.625000X-0.350000X0.625000X0*%
%TD*%
%TA.AperFunction,ComponentPad*%
%ADD22O,1.200000X1.750000*%
%TD*%
%TA.AperFunction,ViaPad*%
%ADD23C,3.126000*%
%TD*%
%TA.AperFunction,ViaPad*%
%ADD24C,4.001000*%
%TD*%
%TA.AperFunction,ViaPad*%
%ADD25C,0.600000*%
%TD*%
%TA.AperFunction,ViaPad*%
%ADD26C,1.200000*%
%TD*%
%TA.AperFunction,Conductor*%
%ADD27C,2.000000*%
%TD*%
%TA.AperFunction,Conductor*%
%ADD28C,1.000000*%
%TD*%
%TA.AperFunction,Conductor*%
%ADD29C,0.200000*%
%TD*%
%TA.AperFunction,Conductor*%
%ADD30C,0.500000*%
%TD*%
G04 APERTURE END LIST*
D10*
%TO.P,J3,1,Pin_1*%
%TO.N,Net-(J10-Pin_8)*%
X100330000Y-62480000D03*
D11*
%TO.P,J3,2,Pin_2*%
%TO.N,Net-(J10-Pin_6)*%
X100330000Y-60480000D03*
%TO.P,J3,3,Pin_3*%
%TO.N,Net-(J10-Pin_4)*%
X100330000Y-58480000D03*
%TO.P,J3,4,Pin_4*%
%TO.N,Net-(J3-Pin_4)*%
X100330000Y-56480000D03*
%TO.P,J3,5,Pin_5*%
%TO.N,Net-(J3-Pin_5)*%
X100330000Y-54480000D03*
%TO.P,J3,6,Pin_6*%
%TO.N,Net-(J3-Pin_6)*%
X100330000Y-52480000D03*
%TD*%
D12*
%TO.P,J8,1,Pin_1*%
%TO.N,Net-(J10-Pin_1)*%
X120470000Y-63000000D03*
%TO.P,J8,2,Pin_2*%
%TO.N,Net-(J10-Pin_2)*%
X120470000Y-68050000D03*
%TO.P,J8,3,Pin_3*%
%TO.N,Net-(J10-Pin_3)*%
X117930000Y-63000000D03*
%TO.P,J8,4,Pin_4*%
%TO.N,Net-(J10-Pin_4)*%
X117930000Y-68050000D03*
%TO.P,J8,5,Pin_5*%
%TO.N,Net-(J10-Pin_5)*%
X115390000Y-63000000D03*
%TO.P,J8,6,Pin_6*%
%TO.N,Net-(J10-Pin_6)*%
X115390000Y-68050000D03*
%TO.P,J8,7,Pin_7*%
%TO.N,Net-(J10-Pin_7)*%
X112850000Y-63000000D03*
%TO.P,J8,8,Pin_8*%
%TO.N,Net-(J10-Pin_8)*%
X112850000Y-68050000D03*
%TD*%
D13*
%TO.P,J10,1,Pin_1*%
%TO.N,Net-(J10-Pin_1)*%
X120460000Y-64230000D03*
D14*
%TO.P,J10,2,Pin_2*%
%TO.N,Net-(J10-Pin_2)*%
X120460000Y-66770000D03*
%TO.P,J10,3,Pin_3*%
%TO.N,Net-(J10-Pin_3)*%
X117920000Y-64230000D03*
%TO.P,J10,4,Pin_4*%
%TO.N,Net-(J10-Pin_4)*%
X117920000Y-66770000D03*
%TO.P,J10,5,Pin_5*%
%TO.N,Net-(J10-Pin_5)*%
X115380000Y-64230000D03*
%TO.P,J10,6,Pin_6*%
%TO.N,Net-(J10-Pin_6)*%
X115380000Y-66770000D03*
%TO.P,J10,7,Pin_7*%
%TO.N,Net-(J10-Pin_7)*%
X112840000Y-64230000D03*
%TO.P,J10,8,Pin_8*%
%TO.N,Net-(J10-Pin_8)*%
X112840000Y-66770000D03*
%TD*%
D15*
%TO.P,J4,1,Pin_1*%
%TO.N,Net-(J1-Pin_2)*%
X133000000Y-54690000D03*
D16*
%TO.P,J4,2,Pin_2*%
%TO.N,Net-(J1-Pin_1)*%
X133000000Y-59690000D03*
%TD*%
D10*
%TO.P,J9,1,Pin_1*%
%TO.N,Net-(J2-Pin_1)*%
X105840000Y-60470000D03*
D11*
%TO.P,J9,2,Pin_2*%
%TO.N,Net-(J10-Pin_6)*%
X105840000Y-58470000D03*
%TO.P,J9,3,Pin_3*%
%TO.N,Net-(J2-Pin_2)*%
X105840000Y-56470000D03*
%TO.P,J9,4,Pin_4*%
%TO.N,Net-(J10-Pin_8)*%
X105840000Y-54470000D03*
%TO.P,J9,5,Pin_5*%
%TO.N,Net-(J10-Pin_6)*%
X105840000Y-52470000D03*
%TD*%
D17*
%TO.P,J1,1,Pin_1*%
%TO.N,Net-(J1-Pin_1)*%
X128640000Y-59890000D03*
D18*
%TO.P,J1,2,Pin_2*%
%TO.N,Net-(J1-Pin_2)*%
X126100000Y-59890000D03*
%TD*%
D19*
%TO.P,J5,1,Pin_1*%
%TO.N,Net-(J3-Pin_4)*%
X126840000Y-55450000D03*
D20*
%TO.P,J5,2,Pin_2*%
%TO.N,Net-(J10-Pin_6)*%
X126840000Y-52950000D03*
%TD*%
D21*
%TO.P,J2,1,Pin_1*%
%TO.N,Net-(J2-Pin_1)*%
X111640000Y-57480000D03*
D22*
%TO.P,J2,2,Pin_2*%
%TO.N,Net-(J2-Pin_2)*%
X113640000Y-57480000D03*
%TO.P,J2,3,Pin_3*%
%TO.N,Net-(J10-Pin_7)*%
X115640000Y-57480000D03*
%TO.P,J2,4,Pin_4*%
%TO.N,Net-(J10-Pin_5)*%
X117640000Y-57480000D03*
%TO.P,J2,5,Pin_5*%
%TO.N,Net-(J10-Pin_3)*%
X119640000Y-57480000D03*
%TO.P,J2,6,Pin_6*%
%TO.N,Net-(J10-Pin_1)*%
X121640000Y-57480000D03*
%TD*%
D19*
%TO.P,J7,1,Pin_1*%
%TO.N,Net-(J1-Pin_2)*%
X101380000Y-70430000D03*
D20*
%TO.P,J7,2,Pin_2*%
%TO.N,Net-(J3-Pin_5)*%
X101380000Y-67930000D03*
%TD*%
D19*
%TO.P,J6,1,Pin_1*%
%TO.N,Net-(J1-Pin_2)*%
X131785000Y-70490000D03*
D20*
%TO.P,J6,2,Pin_2*%
%TO.N,Net-(J3-Pin_6)*%
X131785000Y-67990000D03*
%TD*%
D23*
%TO.N,*%
X126250000Y-65500000D03*
X107750000Y-65500000D03*
D24*
X117450000Y-52400000D03*
D25*
%TO.N,Net-(J10-Pin_1)*%
X120440000Y-61900000D03*
%TO.N,Net-(J10-Pin_3)*%
X117911085Y-61822067D03*
%TO.N,Net-(J10-Pin_5)*%
X115346770Y-61822067D03*
%TO.N,Net-(J10-Pin_7)*%
X112782455Y-61822067D03*
%TO.N,Net-(J10-Pin_4)*%
X103590000Y-58510000D03*
D26*
%TO.N,Net-(J10-Pin_8)*%
X103790000Y-63830000D03*
X109740000Y-54440000D03*
%TO.N,Net-(J10-Pin_6)*%
X115430000Y-68960000D03*
%TD*%
D27*
%TO.N,Net-(J1-Pin_1)*%
X128640000Y-59890000D02*
X132800000Y-59890000D01*
X132800000Y-59890000D02*
X133000000Y-59690000D01*
X132880000Y-59690000D02*
X133000000Y-59690000D01*
D28*
%TO.N,Net-(J1-Pin_2)*%
X133000000Y-54690000D02*
X133000000Y-54710000D01*
D29*
X133000000Y-54690000D02*
X133000000Y-55060000D01*
D28*
X133900000Y-69060000D02*
X132470000Y-70490000D01*
X129921000Y-61591000D02*
X133900000Y-65570000D01*
X133900000Y-65570000D02*
X133900000Y-69060000D01*
X132470000Y-70490000D02*
X131785000Y-70490000D01*
D27*
X126100000Y-58475787D02*
X126886787Y-57689000D01*
D28*
X126100000Y-60201844D02*
X127489156Y-61591000D01*
D27*
X130001000Y-57689000D02*
X133000000Y-54690000D01*
X126100000Y-59890000D02*
X126100000Y-58475787D01*
X126886787Y-57689000D02*
X130001000Y-57689000D01*
D28*
X126100000Y-59890000D02*
X126100000Y-60201844D01*
X127489156Y-61591000D02*
X129921000Y-61591000D01*
D30*
%TO.N,Net-(J3-Pin_6)*%
X100330000Y-52480000D02*
X100370000Y-52480000D01*
D29*
%TO.N,Net-(J10-Pin_1)*%
X120693000Y-63997000D02*
X120460000Y-64230000D01*
X120693000Y-62777000D02*
X120440000Y-62524000D01*
X120440000Y-62524000D02*
X120440000Y-61900000D01*
%TO.N,Net-(J10-Pin_3)*%
X117911085Y-62981085D02*
X117930000Y-63000000D01*
X117920000Y-63010000D02*
X117920000Y-64230000D01*
X117911085Y-61822067D02*
X117911085Y-62981085D01*
%TO.N,Net-(J10-Pin_5)*%
X115346770Y-62839770D02*
X115380000Y-62873000D01*
X115346770Y-61822067D02*
X115346770Y-62956770D01*
X115380000Y-62873000D02*
X115380000Y-64230000D01*
X115346770Y-62956770D02*
X115390000Y-63000000D01*
X115346770Y-61822067D02*
X115346770Y-62839770D01*
%TO.N,Net-(J10-Pin_7)*%
X112840000Y-62100057D02*
X112840000Y-64230000D01*
%TO.N,Net-(J10-Pin_4)*%
X111400000Y-64855402D02*
X112034598Y-65490000D01*
X103590000Y-58510000D02*
X103590000Y-60720000D01*
X104810000Y-61940000D02*
X110490000Y-61940000D01*
X112034598Y-65490000D02*
X116640000Y-65490000D01*
X111400000Y-62850000D02*
X111400000Y-64855402D01*
X110490000Y-61940000D02*
X111400000Y-62850000D01*
X103590000Y-60720000D02*
X104810000Y-61940000D01*
X116640000Y-65490000D02*
X117920000Y-66770000D01*
D28*
%TO.N,Net-(J10-Pin_8)*%
X100330000Y-62480000D02*
X102440000Y-62480000D01*
X103790000Y-63830000D02*
X103790000Y-66950000D01*
X105840000Y-54470000D02*
X109710000Y-54470000D01*
X109710000Y-54470000D02*
X109740000Y-54440000D01*
X112850000Y-69090000D02*
X111710000Y-70230000D01*
X105565000Y-54470000D02*
X102440000Y-57595000D01*
X105840000Y-54470000D02*
X105565000Y-54470000D01*
X102440000Y-62480000D02*
X103790000Y-63830000D01*
X112850000Y-68050000D02*
X112850000Y-69090000D01*
X107070000Y-70230000D02*
X111710000Y-70230000D01*
X102440000Y-57595000D02*
X102440000Y-62480000D01*
X103790000Y-66950000D02*
X107070000Y-70230000D01*
D30*
%TO.N,Net-(J10-Pin_6)*%
X126540000Y-53250000D02*
X126840000Y-52950000D01*
%TD*%
%TA.AperFunction,Conductor*%
%TO.N,Net-(J10-Pin_4)*%
G36*
X103870930Y-58565835D02*
G01*
X103878358Y-58570834D01*
X103880077Y-58579622D01*
X103879608Y-58581290D01*
X103692796Y-59096524D01*
X103686755Y-59103134D01*
X103681797Y-59104236D01*
X103498203Y-59104236D01*
X103489930Y-59100809D01*
X103487204Y-59096524D01*
X103439544Y-58965078D01*
X103300391Y-58581288D01*
X103300792Y-58572344D01*
X103307402Y-58566303D01*
X103309056Y-58565837D01*
X103587682Y-58509469D01*
X103592318Y-58509469D01*
X103870930Y-58565835D01*
G37*
%TD.AperFunction*%
%TD*%
M02*
