%TF.GenerationSoftware,KiCad,Pcbnew,9.0.4*%
%TF.CreationDate,2025-09-30T03:12:06-07:00*%
%TF.ProjectId,Toolhead PCB,546f6f6c-6865-4616-9420-5043422e6b69,0.5*%
%TF.SameCoordinates,Original*%
%TF.FileFunction,Copper,L1,Top*%
%TF.FilePolarity,Positive*%
%FSLAX46Y46*%
G04 Gerber Fmt 4.6, Leading zero omitted, Abs format (unit mm)*
G04 Created by KiCad (PCBNEW 9.0.4) date 2025-09-30 03:12:06*
%MOMM*%
%LPD*%
G01*
G04 APERTURE LIST*
G04 Aperture macros list*
%AMRoundRect*
0 Rectangle with rounded corners*
0 $1 Rounding radius*
0 $2 $3 $4 $5 $6 $7 $8 $9 X,Y pos of 4 corners*
0 Add a 4 corners polygon primitive as box body*
4,1,4,$2,$3,$4,$5,$6,$7,$8,$9,$2,$3,0*
0 Add four circle primitives for the rounded corners*
1,1,$1+$1,$2,$3*
1,1,$1+$1,$4,$5*
1,1,$1+$1,$6,$7*
1,1,$1+$1,$8,$9*
0 Add four rect primitives between the rounded corners*
20,1,$1+$1,$2,$3,$4,$5,0*
20,1,$1+$1,$4,$5,$6,$7,0*
20,1,$1+$1,$6,$7,$8,$9,0*
20,1,$1+$1,$8,$9,$2,$3,0*%
G04 Aperture macros list end*
%TA.AperFunction,ComponentPad*%
%ADD10RoundRect,0.750000X0.750000X-0.750000X0.750000X0.750000X-0.750000X0.750000X-0.750000X-0.750000X0*%
%TD*%
%TA.AperFunction,ComponentPad*%
%ADD11C,3.000000*%
%TD*%
%TA.AperFunction,ComponentPad*%
%ADD12RoundRect,0.250000X0.750000X-0.600000X0.750000X0.600000X-0.750000X0.600000X-0.750000X-0.600000X0*%
%TD*%
%TA.AperFunction,ComponentPad*%
%ADD13O,2.000000X1.700000*%
%TD*%
%TA.AperFunction,SMDPad,CuDef*%
%ADD14R,1.000000X3.150000*%
%TD*%
%TA.AperFunction,ComponentPad*%
%ADD15R,1.700000X1.700000*%
%TD*%
%TA.AperFunction,ComponentPad*%
%ADD16C,1.700000*%
%TD*%
%TA.AperFunction,ComponentPad*%
%ADD17RoundRect,0.250000X0.625000X-0.350000X0.625000X0.350000X-0.625000X0.350000X-0.625000X-0.350000X0*%
%TD*%
%TA.AperFunction,ComponentPad*%
%ADD18O,1.750000X1.200000*%
%TD*%
%TA.AperFunction,ComponentPad*%
%ADD19RoundRect,0.250000X-0.350000X-0.625000X0.350000X-0.625000X0.350000X0.625000X-0.350000X0.625000X0*%
%TD*%
%TA.AperFunction,ComponentPad*%
%ADD20O,1.200000X1.750000*%
%TD*%
%TA.AperFunction,ComponentPad*%
%ADD21RoundRect,0.250001X0.899999X-0.899999X0.899999X0.899999X-0.899999X0.899999X-0.899999X-0.899999X0*%
%TD*%
%TA.AperFunction,ComponentPad*%
%ADD22C,2.300000*%
%TD*%
%TA.AperFunction,Conductor*%
%ADD23C,0.200000*%
%TD*%
%TA.AperFunction,Conductor*%
%ADD24C,0.500000*%
%TD*%
%TA.AperFunction,Conductor*%
%ADD25C,0.300000*%
%TD*%
%TA.AperFunction,Conductor*%
%ADD26C,0.400000*%
%TD*%
G04 APERTURE END LIST*
D10*
%TO.P,J4,1,Pin_1*%
%TO.N,/Heater-*%
X127359416Y-55000000D03*
D11*
%TO.P,J4,2,Pin_2*%
%TO.N,/+24V*%
X127359416Y-50000000D03*
%TD*%
D12*
%TO.P,J5,1,Pin_1*%
%TO.N,/TH0+*%
X101534416Y-54740000D03*
D13*
%TO.P,J5,2,Pin_2*%
%TO.N,/GND*%
X101534416Y-52240000D03*
%TD*%
D14*
%TO.P,J8,*%
%TO.N,*%
X114829416Y-64530000D03*
%TO.P,J8,1,O*%
%TO.N,/Z-Stop*%
X112289416Y-64530000D03*
D15*
X112299416Y-63265000D03*
D14*
%TO.P,J8,2,G*%
%TO.N,/GND*%
X109749416Y-64530000D03*
D16*
X109759416Y-63265000D03*
D14*
%TO.P,J8,3,V*%
%TO.N,/5V*%
X107209416Y-64530000D03*
D16*
X107219416Y-63265000D03*
D14*
%TO.P,J8,4,CS*%
%TO.N,/CS*%
X107209416Y-59480000D03*
D15*
X107219416Y-60725000D03*
D14*
%TO.P,J8,5,MI*%
%TO.N,/MI*%
X109749416Y-59480000D03*
D16*
X109759416Y-60725000D03*
D14*
%TO.P,J8,6,MO*%
%TO.N,/MO*%
X112289416Y-59480000D03*
D16*
X112299416Y-60725000D03*
D14*
%TO.P,J8,7,SC*%
%TO.N,/SC*%
X114829416Y-59480000D03*
D16*
X114839416Y-60725000D03*
%TD*%
D17*
%TO.P,J3,1,Pin_1*%
%TO.N,/5V*%
X120949416Y-58010000D03*
D18*
%TO.P,J3,2,Pin_2*%
%TO.N,/GND*%
X120949416Y-56010000D03*
%TO.P,J3,3,Pin_3*%
%TO.N,/Z-Stop*%
X120949416Y-54010000D03*
%TO.P,J3,4,Pin_4*%
%TO.N,/TH0+*%
X120949416Y-52010000D03*
%TO.P,J3,5,Pin_5*%
%TO.N,/FAN3- Part*%
X120949416Y-50010000D03*
%TO.P,J3,6,Pin_6*%
%TO.N,/FAN2- Heatbreak*%
X120949416Y-48010000D03*
%TD*%
D19*
%TO.P,J9,1,Pin_1*%
%TO.N,/\u00B5Probe*%
X107869416Y-69510000D03*
D20*
%TO.P,J9,2,Pin_2*%
%TO.N,/GND*%
X109869416Y-69510000D03*
%TO.P,J9,3,Pin_3*%
%TO.N,/Servo*%
X111869416Y-69510000D03*
%TO.P,J9,4,Pin_4*%
%TO.N,/5V*%
X113869416Y-69510000D03*
%TO.P,J9,5,Pin_5*%
%TO.N,/GND*%
X115869416Y-69510000D03*
%TD*%
D21*
%TO.P,J1,1,Pin_1*%
%TO.N,/Heater-*%
X125269416Y-54890000D03*
D22*
%TO.P,J1,2,Pin_2*%
%TO.N,/+24V*%
X125269416Y-50090000D03*
%TD*%
D17*
%TO.P,J2,1,Pin_1*%
%TO.N,/\u00B5Probe*%
X117769416Y-58010000D03*
D18*
%TO.P,J2,2,Pin_2*%
%TO.N,/Servo*%
X117769416Y-56010000D03*
%TO.P,J2,3,Pin_3*%
%TO.N,/SC*%
X117769416Y-54010000D03*
%TO.P,J2,4,Pin_4*%
%TO.N,/MO*%
X117769416Y-52010000D03*
%TO.P,J2,5,Pin_5*%
%TO.N,/MI*%
X117769416Y-50010000D03*
%TO.P,J2,6,Pin_6*%
%TO.N,/CS*%
X117769416Y-48010000D03*
%TD*%
D12*
%TO.P,J7,1,Pin_1*%
%TO.N,/+24V*%
X102559416Y-70440000D03*
D13*
%TO.P,J7,2,Pin_2*%
%TO.N,/FAN3- Part*%
X102559416Y-67940000D03*
%TD*%
D12*
%TO.P,J6,1,Pin_1*%
%TO.N,/+24V*%
X122199416Y-70460000D03*
D13*
%TO.P,J6,2,Pin_2*%
%TO.N,/FAN2- Heatbreak*%
X122199416Y-67960000D03*
%TD*%
D23*
%TO.N,/Z-Stop*%
X119600416Y-55359000D02*
X119600416Y-57940160D01*
X119600416Y-57940160D02*
X116994416Y-60546160D01*
X116994416Y-60546160D02*
X116994416Y-61585000D01*
X116066203Y-62513213D02*
X113051203Y-62513213D01*
X116994416Y-61585000D02*
X116066203Y-62513213D01*
X120949416Y-54010000D02*
X119600416Y-55359000D01*
X113051203Y-62513213D02*
X112299416Y-63265000D01*
%TO.N,/5V*%
X107859416Y-66900000D02*
X107219416Y-66260000D01*
D24*
X120939416Y-58020000D02*
X120299808Y-58020000D01*
X117545416Y-60774392D02*
X117545416Y-65244000D01*
D23*
X113869416Y-69510000D02*
X113869416Y-70530000D01*
D24*
X120949416Y-58010000D02*
X120939416Y-58020000D01*
D23*
X110869416Y-70400000D02*
X110869416Y-67569416D01*
D24*
X120299808Y-58020000D02*
X117545416Y-60774392D01*
D23*
X111324416Y-70855000D02*
X110869416Y-70400000D01*
X110869416Y-67569416D02*
X110200000Y-66900000D01*
D24*
X113809416Y-69450000D02*
X113869416Y-69510000D01*
X107219416Y-64977000D02*
X107219416Y-63265000D01*
D23*
X107219416Y-66260000D02*
X107219416Y-63265000D01*
D24*
X113809416Y-68980000D02*
X113809416Y-69450000D01*
D23*
X110200000Y-66900000D02*
X107859416Y-66900000D01*
X113544416Y-70855000D02*
X111324416Y-70855000D01*
D24*
X117545416Y-65244000D02*
X113809416Y-68980000D01*
D23*
X113869416Y-70530000D02*
X113544416Y-70855000D01*
D24*
X107209416Y-65605000D02*
X107209416Y-64530000D01*
D23*
%TO.N,/GND*%
X106650000Y-67301000D02*
X107199000Y-67301000D01*
D24*
X120949416Y-56010000D02*
X121169416Y-56010000D01*
X123709416Y-63280000D02*
X121879414Y-65110000D01*
D23*
X109869416Y-69510000D02*
X109869416Y-67969416D01*
X101534416Y-52240000D02*
X100119416Y-52240000D01*
D24*
X121169416Y-56010000D02*
X122486416Y-57327000D01*
D23*
X99369416Y-56140000D02*
X100229416Y-57000000D01*
X106234708Y-62000000D02*
X105534708Y-62700000D01*
D24*
X123709416Y-60730000D02*
X123709416Y-63280000D01*
X122486416Y-59507001D02*
X123709416Y-60730000D01*
X109749416Y-69390000D02*
X109869416Y-69510000D01*
X109869416Y-64650000D02*
X109749416Y-64530000D01*
D23*
X106269416Y-62000000D02*
X106234708Y-62000000D01*
D25*
X115869416Y-69510000D02*
X115869416Y-70630584D01*
D24*
X121879414Y-65110000D02*
X120269416Y-65110000D01*
D25*
X110490416Y-71306000D02*
X109869416Y-70685000D01*
D23*
X105534708Y-62700000D02*
X105534708Y-66185708D01*
D24*
X120269416Y-65110000D02*
X115869416Y-69510000D01*
D23*
X109869416Y-67969416D02*
X109201000Y-67301000D01*
X99369416Y-52990000D02*
X99369416Y-56140000D01*
X106269416Y-62000000D02*
X108494416Y-62000000D01*
X105534708Y-66185708D02*
X106650000Y-67301000D01*
D25*
X115194000Y-71306000D02*
X110490416Y-71306000D01*
D24*
X122486416Y-57327000D02*
X122486416Y-59507001D01*
D23*
X108494416Y-62000000D02*
X109759416Y-63265000D01*
X100229416Y-57000000D02*
X101269416Y-57000000D01*
X105534708Y-62700000D02*
X105534708Y-61265292D01*
D25*
X109869416Y-70685000D02*
X109869416Y-69510000D01*
D23*
X100119416Y-52240000D02*
X99369416Y-52990000D01*
D25*
X115869416Y-70630584D02*
X115194000Y-71306000D01*
D23*
X105184708Y-60915292D02*
X105534708Y-61265292D01*
X101269416Y-57000000D02*
X105184708Y-60915292D01*
X109201000Y-67301000D02*
X107199000Y-67301000D01*
X107199000Y-67301000D02*
X107119416Y-67301000D01*
%TO.N,/Servo*%
X116249416Y-57530000D02*
X117769416Y-56010000D01*
X111282642Y-61979774D02*
X115829642Y-61979774D01*
X115829642Y-61979774D02*
X116249416Y-61560000D01*
X111018099Y-62244317D02*
X111282642Y-61979774D01*
X111869416Y-69510000D02*
X111869416Y-67360000D01*
X111018099Y-66508683D02*
X111018099Y-62244317D01*
X116249416Y-61560000D02*
X116249416Y-57530000D01*
X111869416Y-67360000D02*
X111018099Y-66508683D01*
%TO.N,/TH0+*%
X120949416Y-52010000D02*
X120279416Y-52010000D01*
X110492050Y-54740000D02*
X101534416Y-54740000D01*
X116388416Y-47101000D02*
X114730416Y-48759000D01*
X119349416Y-51080000D02*
X119349416Y-47580000D01*
X119349416Y-47580000D02*
X118870416Y-47101000D01*
X114730416Y-50501634D02*
X110492050Y-54740000D01*
X120279416Y-52010000D02*
X119349416Y-51080000D01*
X114730416Y-48759000D02*
X114730416Y-50501634D01*
X118870416Y-47101000D02*
X116388416Y-47101000D01*
D24*
%TO.N,/+24V*%
X128629416Y-57670000D02*
X126589416Y-57670000D01*
X129328416Y-51969000D02*
X129328416Y-56971000D01*
X129328416Y-56971000D02*
X128629416Y-57670000D01*
D25*
X117320416Y-72709000D02*
X107159184Y-72709000D01*
D24*
X126589416Y-57670000D02*
X125813416Y-58446000D01*
D26*
X122199416Y-70460000D02*
X122149416Y-70510000D01*
D24*
X124319416Y-65645505D02*
X124319416Y-69190584D01*
X125813416Y-64151505D02*
X124319416Y-65645505D01*
D25*
X122149416Y-70510000D02*
X119519416Y-70510000D01*
D24*
X122199416Y-69940000D02*
X122199416Y-70460000D01*
X127359416Y-50000000D02*
X129328416Y-51969000D01*
X124319416Y-69190584D02*
X123050000Y-70460000D01*
X125059416Y-49930000D02*
X125069416Y-49940000D01*
D26*
X102559416Y-70610000D02*
X102559416Y-70440000D01*
D25*
X107159184Y-72709000D02*
X104960184Y-70510000D01*
X104960184Y-70510000D02*
X102659416Y-70510000D01*
D24*
X125813416Y-58446000D02*
X125813416Y-64151505D01*
D25*
X119519416Y-70510000D02*
X117320416Y-72709000D01*
D24*
X123050000Y-70460000D02*
X122199416Y-70460000D01*
X125269416Y-50090000D02*
X126895761Y-50090000D01*
D26*
X102659416Y-70510000D02*
X102559416Y-70610000D01*
D23*
%TO.N,/CS*%
X117769416Y-48010000D02*
X116679416Y-48010000D01*
X116679416Y-48010000D02*
X115439416Y-49250000D01*
X115439416Y-50359734D02*
X107209416Y-58589734D01*
X115439416Y-49250000D02*
X115439416Y-50359734D01*
X107209416Y-58589734D02*
X107209416Y-59480000D01*
%TO.N,/MI*%
X116419418Y-50010000D02*
X109749416Y-56680002D01*
X109779416Y-58250000D02*
X109726186Y-58303230D01*
X117769416Y-50010000D02*
X116419418Y-50010000D01*
X109749416Y-56680002D02*
X109749416Y-59480000D01*
%TO.N,/MO*%
X112299416Y-58220000D02*
X112290501Y-58228915D01*
X117769416Y-52010000D02*
X116341234Y-52010000D01*
X116341234Y-52010000D02*
X112289416Y-56061818D01*
X112289416Y-56061818D02*
X112289416Y-59480000D01*
%TO.N,/SC*%
X117769416Y-54010000D02*
X116339416Y-54010000D01*
X116339416Y-54010000D02*
X114829416Y-55520000D01*
X114829416Y-55520000D02*
X114829416Y-59480000D01*
X114839416Y-58270000D02*
X114819416Y-58290000D01*
D25*
%TO.N,/FAN2- Heatbreak*%
X123989416Y-58884438D02*
X125212416Y-60107438D01*
X125212416Y-60107438D02*
X125212416Y-63902563D01*
X125212416Y-63902563D02*
X122279416Y-66835562D01*
X120949416Y-48010000D02*
X123369416Y-50430000D01*
X123989416Y-56690000D02*
X123989416Y-58884438D01*
X123369416Y-50430000D02*
X123369416Y-56070000D01*
X122279416Y-66835562D02*
X122279416Y-67880000D01*
X122279416Y-67880000D02*
X122199416Y-67960000D01*
X123369416Y-56070000D02*
X123989416Y-56690000D01*
%TO.N,/FAN3- Part*%
X123488416Y-56897521D02*
X123488416Y-59091958D01*
X122294456Y-66112000D02*
X120684458Y-66112000D01*
X124711416Y-63695042D02*
X122294456Y-66112000D01*
X119539416Y-67257042D02*
X119539416Y-69710768D01*
X103169416Y-67940000D02*
X102559416Y-67940000D01*
X107437416Y-72208000D02*
X103169416Y-67940000D01*
X120684458Y-66112000D02*
X119539416Y-67257042D01*
X119539416Y-69710768D02*
X117042184Y-72208000D01*
X117042184Y-72208000D02*
X107437416Y-72208000D01*
X122868416Y-51929000D02*
X122868416Y-56277521D01*
X120949416Y-50010000D02*
X122868416Y-51929000D01*
X122868416Y-56277521D02*
X123488416Y-56897521D01*
X124711416Y-60314958D02*
X124711416Y-63695042D01*
X123488416Y-59091958D02*
X124711416Y-60314958D01*
D23*
%TO.N,/\u00B5Probe*%
X107899416Y-69540000D02*
X107869416Y-69510000D01*
X122417416Y-56464331D02*
X123037416Y-57084331D01*
X120497648Y-65661000D02*
X119088416Y-67070232D01*
X107899416Y-70550000D02*
X107899416Y-69540000D01*
X109106416Y-71757000D02*
X107899416Y-70550000D01*
X119088416Y-67070232D02*
X119088416Y-69523958D01*
X119929416Y-53010000D02*
X121909416Y-53010000D01*
X119088416Y-69523958D02*
X116855374Y-71757000D01*
X121909416Y-53010000D02*
X122417416Y-53518000D01*
X116855374Y-71757000D02*
X109106416Y-71757000D01*
X117789416Y-58010000D02*
X119199416Y-56600000D01*
X124260416Y-60501768D02*
X124260416Y-63508232D01*
X123037416Y-57084331D02*
X123037416Y-59278769D01*
X119199416Y-53740000D02*
X119929416Y-53010000D01*
X119199416Y-56600000D02*
X119199416Y-53740000D01*
X117769416Y-58010000D02*
X117789416Y-58010000D01*
X124260416Y-63508232D02*
X122107646Y-65661000D01*
X122417416Y-53518000D02*
X122417416Y-56464331D01*
X123037416Y-59278769D02*
X124260416Y-60501768D01*
X122107646Y-65661000D02*
X120497648Y-65661000D01*
%TD*%
M02*
