%TF.GenerationSoftware,KiCad,Pcbnew,9.0.4*%
%TF.CreationDate,2025-09-10T21:01:24-07:00*%
%TF.ProjectId,Toolhead PCB,546f6f6c-6865-4616-9420-5043422e6b69,0.5*%
%TF.SameCoordinates,Original*%
%TF.FileFunction,Copper,L2,Bot*%
%TF.FilePolarity,Positive*%
%FSLAX46Y46*%
G04 Gerber Fmt 4.6, Leading zero omitted, Abs format (unit mm)*
G04 Created by KiCad (PCBNEW 9.0.4) date 2025-09-10 21:01:24*
%MOMM*%
%LPD*%
G01*
G04 APERTURE LIST*
G04 Aperture macros list*
%AMRoundRect*
0 Rectangle with rounded corners*
0 $1 Rounding radius*
0 $2 $3 $4 $5 $6 $7 $8 $9 X,Y pos of 4 corners*
0 Add a 4 corners polygon primitive as box body*
4,1,4,$2,$3,$4,$5,$6,$7,$8,$9,$2,$3,0*
0 Add four circle primitives for the rounded corners*
1,1,$1+$1,$2,$3*
1,1,$1+$1,$4,$5*
1,1,$1+$1,$6,$7*
1,1,$1+$1,$8,$9*
0 Add four rect primitives between the rounded corners*
20,1,$1+$1,$2,$3,$4,$5,0*
20,1,$1+$1,$4,$5,$6,$7,0*
20,1,$1+$1,$6,$7,$8,$9,0*
20,1,$1+$1,$8,$9,$2,$3,0*%
G04 Aperture macros list end*
%TA.AperFunction,ComponentPad*%
%ADD10RoundRect,0.250000X0.625000X-0.350000X0.625000X0.350000X-0.625000X0.350000X-0.625000X-0.350000X0*%
%TD*%
%TA.AperFunction,ComponentPad*%
%ADD11O,1.750000X1.200000*%
%TD*%
%TA.AperFunction,ComponentPad*%
%ADD12R,1.700000X1.700000*%
%TD*%
%TA.AperFunction,ComponentPad*%
%ADD13C,1.700000*%
%TD*%
%TA.AperFunction,ComponentPad*%
%ADD14C,1.400000*%
%TD*%
%TA.AperFunction,ComponentPad*%
%ADD15RoundRect,0.770000X-0.980000X0.980000X-0.980000X-0.980000X0.980000X-0.980000X0.980000X0.980000X0*%
%TD*%
%TA.AperFunction,ComponentPad*%
%ADD16C,3.500000*%
%TD*%
%TA.AperFunction,ComponentPad*%
%ADD17RoundRect,0.250000X0.750000X0.750000X-0.750000X0.750000X-0.750000X-0.750000X0.750000X-0.750000X0*%
%TD*%
%TA.AperFunction,ComponentPad*%
%ADD18C,2.000000*%
%TD*%
%TA.AperFunction,ComponentPad*%
%ADD19RoundRect,0.250000X0.750000X-0.600000X0.750000X0.600000X-0.750000X0.600000X-0.750000X-0.600000X0*%
%TD*%
%TA.AperFunction,ComponentPad*%
%ADD20O,2.000000X1.700000*%
%TD*%
%TA.AperFunction,ComponentPad*%
%ADD21RoundRect,0.250000X-0.350000X-0.625000X0.350000X-0.625000X0.350000X0.625000X-0.350000X0.625000X0*%
%TD*%
%TA.AperFunction,ComponentPad*%
%ADD22O,1.200000X1.750000*%
%TD*%
%TA.AperFunction,ViaPad*%
%ADD23C,0.600000*%
%TD*%
%TA.AperFunction,ViaPad*%
%ADD24C,1.200000*%
%TD*%
%TA.AperFunction,Conductor*%
%ADD25C,2.000000*%
%TD*%
%TA.AperFunction,Conductor*%
%ADD26C,1.000000*%
%TD*%
%TA.AperFunction,Conductor*%
%ADD27C,1.250000*%
%TD*%
%TA.AperFunction,Conductor*%
%ADD28C,0.200000*%
%TD*%
%TA.AperFunction,Conductor*%
%ADD29C,0.500000*%
%TD*%
G04 APERTURE END LIST*
D10*
%TO.P,J3,1,Pin_1*%
%TO.N,Net-(J10-Pin_8)*%
X100330000Y-62480000D03*
D11*
%TO.P,J3,2,Pin_2*%
%TO.N,Net-(J10-Pin_6)*%
X100330000Y-60480000D03*
%TO.P,J3,3,Pin_3*%
%TO.N,Net-(J10-Pin_4)*%
X100330000Y-58480000D03*
%TO.P,J3,4,Pin_4*%
%TO.N,Net-(J3-Pin_4)*%
X100330000Y-56480000D03*
%TO.P,J3,5,Pin_5*%
%TO.N,Net-(J3-Pin_5)*%
X100330000Y-54480000D03*
%TO.P,J3,6,Pin_6*%
%TO.N,Net-(J3-Pin_6)*%
X100330000Y-52480000D03*
%TD*%
D12*
%TO.P,J10,1,Pin_1*%
%TO.N,Net-(J10-Pin_1)*%
X120460000Y-64230000D03*
D13*
%TO.P,J10,2,Pin_2*%
%TO.N,Net-(J10-Pin_2)*%
X120460000Y-66770000D03*
%TO.P,J10,3,Pin_3*%
%TO.N,Net-(J10-Pin_3)*%
X117920000Y-64230000D03*
%TO.P,J10,4,Pin_4*%
%TO.N,Net-(J10-Pin_4)*%
X117920000Y-66770000D03*
%TO.P,J10,5,Pin_5*%
%TO.N,Net-(J10-Pin_5)*%
X115380000Y-64230000D03*
%TO.P,J10,6,Pin_6*%
%TO.N,Net-(J10-Pin_6)*%
X115380000Y-66770000D03*
%TO.P,J10,7,Pin_7*%
%TO.N,Net-(J10-Pin_7)*%
X112840000Y-64230000D03*
%TO.P,J10,8,Pin_8*%
%TO.N,Net-(J10-Pin_8)*%
X112840000Y-66770000D03*
%TD*%
D14*
%TO.P,J4,*%
%TO.N,*%
X138000000Y-51690000D03*
X138000000Y-62690000D03*
D15*
%TO.P,J4,1,Pin_1*%
%TO.N,Net-(J1-Pin_2)*%
X133000000Y-54690000D03*
D16*
%TO.P,J4,2,Pin_2*%
%TO.N,Net-(J1-Pin_1)*%
X133000000Y-59690000D03*
%TD*%
D10*
%TO.P,J9,1,Pin_1*%
%TO.N,Net-(J2-Pin_1)*%
X105840000Y-60470000D03*
D11*
%TO.P,J9,2,Pin_2*%
%TO.N,Net-(J10-Pin_6)*%
X105840000Y-58470000D03*
%TO.P,J9,3,Pin_3*%
%TO.N,Net-(J2-Pin_2)*%
X105840000Y-56470000D03*
%TO.P,J9,4,Pin_4*%
%TO.N,Net-(J10-Pin_8)*%
X105840000Y-54470000D03*
%TO.P,J9,5,Pin_5*%
%TO.N,Net-(J10-Pin_6)*%
X105840000Y-52470000D03*
%TD*%
D17*
%TO.P,J1,1,Pin_1*%
%TO.N,Net-(J1-Pin_1)*%
X128640000Y-59890000D03*
D18*
%TO.P,J1,2,Pin_2*%
%TO.N,Net-(J1-Pin_2)*%
X126100000Y-59890000D03*
%TD*%
D19*
%TO.P,J5,1,Pin_1*%
%TO.N,Net-(J3-Pin_4)*%
X126840000Y-55450000D03*
D20*
%TO.P,J5,2,Pin_2*%
%TO.N,Net-(J10-Pin_6)*%
X126840000Y-52950000D03*
%TD*%
D21*
%TO.P,J2,1,Pin_1*%
%TO.N,Net-(J2-Pin_1)*%
X111640000Y-57480000D03*
D22*
%TO.P,J2,2,Pin_2*%
%TO.N,Net-(J2-Pin_2)*%
X113640000Y-57480000D03*
%TO.P,J2,3,Pin_3*%
%TO.N,Net-(J10-Pin_7)*%
X115640000Y-57480000D03*
%TO.P,J2,4,Pin_4*%
%TO.N,Net-(J10-Pin_5)*%
X117640000Y-57480000D03*
%TO.P,J2,5,Pin_5*%
%TO.N,Net-(J10-Pin_3)*%
X119640000Y-57480000D03*
%TO.P,J2,6,Pin_6*%
%TO.N,Net-(J10-Pin_1)*%
X121640000Y-57480000D03*
%TD*%
D19*
%TO.P,J7,1,Pin_1*%
%TO.N,Net-(J1-Pin_2)*%
X101380000Y-70430000D03*
D20*
%TO.P,J7,2,Pin_2*%
%TO.N,Net-(J3-Pin_5)*%
X101380000Y-67930000D03*
%TD*%
D19*
%TO.P,J6,1,Pin_1*%
%TO.N,Net-(J1-Pin_2)*%
X131785000Y-70490000D03*
D20*
%TO.P,J6,2,Pin_2*%
%TO.N,Net-(J3-Pin_6)*%
X131785000Y-67990000D03*
%TD*%
D23*
%TO.N,Net-(J10-Pin_1)*%
X120440000Y-61900000D03*
%TO.N,Net-(J10-Pin_3)*%
X117911085Y-61822067D03*
%TO.N,Net-(J10-Pin_5)*%
X115346770Y-61822067D03*
%TO.N,Net-(J10-Pin_7)*%
X112782455Y-61822067D03*
%TO.N,Net-(J10-Pin_4)*%
X103590000Y-58510000D03*
D24*
%TO.N,Net-(J10-Pin_8)*%
X103790000Y-63830000D03*
X109740000Y-54440000D03*
%TO.N,Net-(J10-Pin_6)*%
X115430000Y-68960000D03*
%TD*%
D25*
%TO.N,Net-(J1-Pin_1)*%
X128640000Y-59890000D02*
X132800000Y-59890000D01*
X132800000Y-59890000D02*
X133000000Y-59690000D01*
X133000000Y-59690000D02*
X132810000Y-59690000D01*
D26*
%TO.N,Net-(J1-Pin_2)*%
X103449000Y-72499000D02*
X101380000Y-70430000D01*
X131785000Y-70490000D02*
X129776000Y-72499000D01*
X133900000Y-69050000D02*
X132460000Y-70490000D01*
X127488156Y-61590000D02*
X129920000Y-61590000D01*
D27*
X126100000Y-58475787D02*
X126669787Y-57906000D01*
X126669787Y-57906000D02*
X129784000Y-57906000D01*
D26*
X129776000Y-72499000D02*
X103449000Y-72499000D01*
X132460000Y-70490000D02*
X131785000Y-70490000D01*
X126100000Y-59890000D02*
X126100000Y-60201844D01*
X126100000Y-60201844D02*
X127488156Y-61590000D01*
X129920000Y-61590000D02*
X133900000Y-65570000D01*
D27*
X129784000Y-57906000D02*
X133000000Y-54690000D01*
X126100000Y-59890000D02*
X126100000Y-58475787D01*
D28*
X133000000Y-54690000D02*
X133000000Y-55060000D01*
D26*
X133900000Y-65570000D02*
X133900000Y-69050000D01*
D29*
%TO.N,Net-(J3-Pin_4)*%
X126610000Y-55220000D02*
X126840000Y-55450000D01*
D28*
X127466760Y-51799000D02*
X128141000Y-52473240D01*
X128141000Y-54149000D02*
X126840000Y-55450000D01*
X105238000Y-51302000D02*
X110082000Y-51302000D01*
X128141000Y-52473240D02*
X128141000Y-54149000D01*
X100330000Y-56480000D02*
X100330000Y-56210000D01*
X100330000Y-56210000D02*
X105238000Y-51302000D01*
X119758232Y-55941000D02*
X123900232Y-51799000D01*
X110082000Y-51302000D02*
X114721000Y-55941000D01*
X123900232Y-51799000D02*
X127466760Y-51799000D01*
X114721000Y-55941000D02*
X119758232Y-55941000D01*
D29*
%TO.N,Net-(J3-Pin_5)*%
X98821000Y-55989000D02*
X98821000Y-65371000D01*
X100330000Y-54480000D02*
X98821000Y-55989000D01*
X98821000Y-65371000D02*
X101380000Y-67930000D01*
%TO.N,Net-(J3-Pin_6)*%
X125390000Y-56830000D02*
X124649000Y-57571000D01*
X124649000Y-57571000D02*
X124649000Y-60491024D01*
X128692000Y-54377232D02*
X128291000Y-54778232D01*
X100330000Y-52480000D02*
X102059000Y-50751000D01*
X114949232Y-55390000D02*
X119530000Y-55390000D01*
X128291000Y-56347292D02*
X127808292Y-56830000D01*
X128692000Y-52245008D02*
X128692000Y-54377232D01*
X110310232Y-50751000D02*
X114949232Y-55390000D01*
X128291000Y-54778232D02*
X128291000Y-56347292D01*
X127808292Y-56830000D02*
X125390000Y-56830000D01*
X127094239Y-62541000D02*
X129526082Y-62541000D01*
X124649000Y-60491024D02*
X125498976Y-61341000D01*
X119530000Y-55390000D02*
X123672000Y-51248000D01*
X123672000Y-51248000D02*
X127694992Y-51248000D01*
X131785000Y-64799918D02*
X131785000Y-67990000D01*
X127694992Y-51248000D02*
X128692000Y-52245008D01*
X125498976Y-61341000D02*
X125894239Y-61341000D01*
X102059000Y-50751000D02*
X110310232Y-50751000D01*
X125894239Y-61341000D02*
X127094239Y-62541000D01*
X129526082Y-62541000D02*
X131785000Y-64799918D01*
D28*
%TO.N,Net-(J2-Pin_1)*%
X108320000Y-60470000D02*
X105840000Y-60470000D01*
X111640000Y-57480000D02*
X111310000Y-57480000D01*
X111310000Y-57480000D02*
X108320000Y-60470000D01*
%TO.N,Net-(J2-Pin_2)*%
X113640000Y-57110000D02*
X112484000Y-55954000D01*
X113640000Y-57480000D02*
X113640000Y-57110000D01*
X106356000Y-55954000D02*
X105840000Y-56470000D01*
X112484000Y-55954000D02*
X106356000Y-55954000D01*
%TO.N,Net-(J10-Pin_1)*%
X121640000Y-57480000D02*
X121640000Y-60700000D01*
X121640000Y-60700000D02*
X120440000Y-61900000D01*
%TO.N,Net-(J10-Pin_3)*%
X119640000Y-60093152D02*
X117911085Y-61822067D01*
X119640000Y-57480000D02*
X119640000Y-60093152D01*
%TO.N,Net-(J10-Pin_5)*%
X117640000Y-59528837D02*
X115346770Y-61822067D01*
X117640000Y-57480000D02*
X117640000Y-59528837D01*
%TO.N,Net-(J10-Pin_7)*%
X115640000Y-57480000D02*
X115640000Y-58964522D01*
X115640000Y-58964522D02*
X112782455Y-61822067D01*
%TO.N,Net-(J10-Pin_4)*%
X103165860Y-58480000D02*
X100330000Y-58480000D01*
X103195860Y-58510000D02*
X103165860Y-58480000D01*
X103590000Y-58510000D02*
X103195860Y-58510000D01*
D26*
%TO.N,Net-(J10-Pin_8)*%
X100330000Y-62480000D02*
X102440000Y-62480000D01*
D29*
X109710000Y-54470000D02*
X109740000Y-54440000D01*
D26*
X102440000Y-62480000D02*
X103790000Y-63830000D01*
X105840000Y-54470000D02*
X109710000Y-54470000D01*
D29*
%TO.N,Net-(J10-Pin_6)*%
X122960000Y-69600000D02*
X121620000Y-70940000D01*
X114480000Y-70900000D02*
X115430000Y-69950000D01*
D26*
X103830000Y-60153156D02*
X105513156Y-58470000D01*
D29*
X106670000Y-70900000D02*
X114480000Y-70900000D01*
D26*
X115430000Y-66820000D02*
X115380000Y-66770000D01*
X104060000Y-57360000D02*
X104060000Y-53780000D01*
X105840000Y-58470000D02*
X105170000Y-58470000D01*
D29*
X104841000Y-63394661D02*
X104841000Y-64265339D01*
D26*
X105370000Y-52470000D02*
X105840000Y-52470000D01*
X115430000Y-68960000D02*
X115430000Y-66820000D01*
D29*
X122960000Y-56830000D02*
X122960000Y-69600000D01*
X104280000Y-60930000D02*
X104280000Y-62833661D01*
D26*
X104060000Y-53780000D02*
X105370000Y-52470000D01*
D29*
X123650000Y-56140000D02*
X126840000Y-52950000D01*
X121620000Y-70940000D02*
X116340000Y-70940000D01*
X100330000Y-60480000D02*
X103240000Y-60480000D01*
D26*
X100330000Y-60480000D02*
X103830000Y-60480000D01*
D29*
X105840000Y-52470000D02*
X106470000Y-52470000D01*
X104280000Y-62833661D02*
X104841000Y-63394661D01*
D26*
X103830000Y-60480000D02*
X103830000Y-60153156D01*
D29*
X104841000Y-64265339D02*
X104280000Y-64826339D01*
X103830000Y-60480000D02*
X104280000Y-60930000D01*
D26*
X105170000Y-58470000D02*
X104060000Y-57360000D01*
D29*
X104280000Y-64826339D02*
X104280000Y-68510000D01*
X126840000Y-52950000D02*
X122960000Y-56830000D01*
X115430000Y-69950000D02*
X115430000Y-68960000D01*
D26*
X105513156Y-58470000D02*
X105840000Y-58470000D01*
D29*
X104280000Y-68510000D02*
X106670000Y-70900000D01*
X116340000Y-70940000D02*
X115380000Y-69980000D01*
%TD*%
%TA.AperFunction,Conductor*%
%TO.N,Net-(J10-Pin_1)*%
G36*
X120795277Y-61414902D02*
G01*
X120925097Y-61544722D01*
X120928524Y-61552995D01*
X120927422Y-61557953D01*
X120695193Y-62054373D01*
X120688583Y-62060414D01*
X120679637Y-62060013D01*
X120678127Y-62059164D01*
X120441265Y-61902015D01*
X120437984Y-61898734D01*
X120280835Y-61661872D01*
X120279116Y-61653084D01*
X120284116Y-61645655D01*
X120285621Y-61644808D01*
X120782048Y-61412576D01*
X120790992Y-61412176D01*
X120795277Y-61414902D01*
G37*
%TD.AperFunction*%
%TD*%
%TA.AperFunction,Conductor*%
%TO.N,Net-(J10-Pin_4)*%
G36*
X103429826Y-58270341D02*
G01*
X103430398Y-58271124D01*
X103586341Y-58504182D01*
X103588094Y-58512963D01*
X103586324Y-58517220D01*
X103429694Y-58749981D01*
X103422232Y-58754932D01*
X103413708Y-58753321D01*
X103107459Y-58558539D01*
X103102317Y-58551208D01*
X103103866Y-58542388D01*
X103105460Y-58540399D01*
X103236110Y-58409749D01*
X103237076Y-58408886D01*
X103413385Y-58268477D01*
X103421992Y-58266004D01*
X103429826Y-58270341D01*
G37*
%TD.AperFunction*%
%TD*%
%TA.AperFunction,Conductor*%
%TO.N,Net-(J10-Pin_5)*%
G36*
X115702047Y-61336969D02*
G01*
X115831867Y-61466789D01*
X115835294Y-61475062D01*
X115834192Y-61480020D01*
X115601963Y-61976440D01*
X115595353Y-61982481D01*
X115586407Y-61982080D01*
X115584897Y-61981231D01*
X115348035Y-61824082D01*
X115344754Y-61820801D01*
X115187605Y-61583939D01*
X115185886Y-61575151D01*
X115190886Y-61567722D01*
X115192391Y-61566875D01*
X115688818Y-61334643D01*
X115697762Y-61334243D01*
X115702047Y-61336969D01*
G37*
%TD.AperFunction*%
%TD*%
%TA.AperFunction,Conductor*%
%TO.N,Net-(J10-Pin_3)*%
G36*
X118266362Y-61336969D02*
G01*
X118396182Y-61466789D01*
X118399609Y-61475062D01*
X118398507Y-61480020D01*
X118166278Y-61976440D01*
X118159668Y-61982481D01*
X118150722Y-61982080D01*
X118149212Y-61981231D01*
X117912350Y-61824082D01*
X117909069Y-61820801D01*
X117751920Y-61583939D01*
X117750201Y-61575151D01*
X117755201Y-61567722D01*
X117756706Y-61566875D01*
X118253133Y-61334643D01*
X118262077Y-61334243D01*
X118266362Y-61336969D01*
G37*
%TD.AperFunction*%
%TD*%
%TA.AperFunction,Conductor*%
%TO.N,Net-(J10-Pin_7)*%
G36*
X113137732Y-61336969D02*
G01*
X113267552Y-61466789D01*
X113270979Y-61475062D01*
X113269877Y-61480020D01*
X113037648Y-61976440D01*
X113031038Y-61982481D01*
X113022092Y-61982080D01*
X113020582Y-61981231D01*
X112783720Y-61824082D01*
X112780439Y-61820801D01*
X112623290Y-61583939D01*
X112621571Y-61575151D01*
X112626571Y-61567722D01*
X112628076Y-61566875D01*
X113124503Y-61334643D01*
X113133447Y-61334243D01*
X113137732Y-61336969D01*
G37*
%TD.AperFunction*%
%TD*%
M02*
