%TF.GenerationSoftware,KiCad,Pcbnew,9.0.4*%
%TF.CreationDate,2025-10-10T13:09:45-07:00*%
%TF.ProjectId,Toolhead PCB,546f6f6c-6865-4616-9420-5043422e6b69,0.5*%
%TF.SameCoordinates,Original*%
%TF.FileFunction,Copper,L1,Top*%
%TF.FilePolarity,Positive*%
%FSLAX46Y46*%
G04 Gerber Fmt 4.6, Leading zero omitted, Abs format (unit mm)*
G04 Created by KiCad (PCBNEW 9.0.4) date 2025-10-10 13:09:45*
%MOMM*%
%LPD*%
G01*
G04 APERTURE LIST*
G04 Aperture macros list*
%AMRoundRect*
0 Rectangle with rounded corners*
0 $1 Rounding radius*
0 $2 $3 $4 $5 $6 $7 $8 $9 X,Y pos of 4 corners*
0 Add a 4 corners polygon primitive as box body*
4,1,4,$2,$3,$4,$5,$6,$7,$8,$9,$2,$3,0*
0 Add four circle primitives for the rounded corners*
1,1,$1+$1,$2,$3*
1,1,$1+$1,$4,$5*
1,1,$1+$1,$6,$7*
1,1,$1+$1,$8,$9*
0 Add four rect primitives between the rounded corners*
20,1,$1+$1,$2,$3,$4,$5,0*
20,1,$1+$1,$4,$5,$6,$7,0*
20,1,$1+$1,$6,$7,$8,$9,0*
20,1,$1+$1,$8,$9,$2,$3,0*%
%AMHorizOval*
0 Thick line with rounded ends*
0 $1 width*
0 $2 $3 position (X,Y) of the first rounded end (center of the circle)*
0 $4 $5 position (X,Y) of the second rounded end (center of the circle)*
0 Add line between two ends*
20,1,$1,$2,$3,$4,$5,0*
0 Add two circle primitives to create the rounded ends*
1,1,$1,$2,$3*
1,1,$1,$4,$5*%
G04 Aperture macros list end*
%TA.AperFunction,ComponentPad*%
%ADD10RoundRect,0.187500X0.687500X-0.412500X0.687500X0.412500X-0.687500X0.412500X-0.687500X-0.412500X0*%
%TD*%
%TA.AperFunction,ComponentPad*%
%ADD11O,1.750000X1.200000*%
%TD*%
%TA.AperFunction,ComponentPad*%
%ADD12RoundRect,0.750000X0.750000X-0.750000X0.750000X0.750000X-0.750000X0.750000X-0.750000X-0.750000X0*%
%TD*%
%TA.AperFunction,ComponentPad*%
%ADD13C,3.000000*%
%TD*%
%TA.AperFunction,ComponentPad*%
%ADD14RoundRect,0.250000X0.569153X-0.773670X0.879736X0.385441X-0.569153X0.773670X-0.879736X-0.385441X0*%
%TD*%
%TA.AperFunction,ComponentPad*%
%ADD15HorizOval,1.700000X-0.144889X0.038823X0.144889X-0.038823X0*%
%TD*%
%TA.AperFunction,SMDPad,CuDef*%
%ADD16R,1.000000X3.150000*%
%TD*%
%TA.AperFunction,ComponentPad*%
%ADD17R,1.700000X1.700000*%
%TD*%
%TA.AperFunction,ComponentPad*%
%ADD18C,1.700000*%
%TD*%
%TA.AperFunction,ComponentPad*%
%ADD19RoundRect,0.250000X-0.350000X-0.625000X0.350000X-0.625000X0.350000X0.625000X-0.350000X0.625000X0*%
%TD*%
%TA.AperFunction,ComponentPad*%
%ADD20O,1.200000X1.750000*%
%TD*%
%TA.AperFunction,ComponentPad*%
%ADD21C,2.300000*%
%TD*%
%TA.AperFunction,ComponentPad*%
%ADD22RoundRect,0.250000X0.750000X-0.600000X0.750000X0.600000X-0.750000X0.600000X-0.750000X-0.600000X0*%
%TD*%
%TA.AperFunction,ComponentPad*%
%ADD23O,2.000000X1.700000*%
%TD*%
%TA.AperFunction,Conductor*%
%ADD24C,0.300000*%
%TD*%
%TA.AperFunction,Conductor*%
%ADD25C,0.500000*%
%TD*%
%TA.AperFunction,Conductor*%
%ADD26C,0.400000*%
%TD*%
%TA.AperFunction,Conductor*%
%ADD27C,0.200000*%
%TD*%
G04 APERTURE END LIST*
D10*
%TO.P,J3,1,Pin_1*%
%TO.N,/5V*%
X121580000Y-58010000D03*
D11*
%TO.P,J3,2,Pin_2*%
%TO.N,/GND*%
X121580000Y-56010000D03*
%TO.P,J3,3,Pin_3*%
%TO.N,/Z-Stop*%
X121580000Y-54010000D03*
%TO.P,J3,4,Pin_4*%
%TO.N,/TH0+*%
X121580000Y-52010000D03*
%TO.P,J3,5,Pin_5*%
%TO.N,/FAN3- Part*%
X121580000Y-50010000D03*
%TO.P,J3,6,Pin_6*%
%TO.N,/FAN2- Heatbreak*%
X121580000Y-48010000D03*
%TD*%
%TO.P,J2,1,Pin_1*%
%TO.N,/\u00B5Probe*%
X118400000Y-58010000D03*
%TO.P,J2,2,Pin_2*%
%TO.N,/Servo*%
X118400000Y-56010000D03*
%TO.P,J2,3,Pin_3*%
%TO.N,/SC*%
X118400000Y-54010000D03*
%TO.P,J2,4,Pin_4*%
%TO.N,/MO*%
X118400000Y-52010000D03*
%TO.P,J2,5,Pin_5*%
%TO.N,/MI*%
X118400000Y-50010000D03*
%TO.P,J2,6,Pin_6*%
%TO.N,/CS*%
X118400000Y-48010000D03*
%TD*%
D12*
%TO.P,J4,1,Pin_1*%
%TO.N,/Heater-*%
X127600000Y-54300000D03*
D13*
%TO.P,J4,2,Pin_2*%
%TO.N,/+24V*%
X127600000Y-49300000D03*
%TD*%
D14*
%TO.P,J5,1,Pin_1*%
%TO.N,/TH0+*%
X100748862Y-54315776D03*
D15*
%TO.P,J5,2,Pin_2*%
%TO.N,/GND*%
X101395909Y-51900961D03*
%TD*%
D16*
%TO.P,J8,*%
%TO.N,*%
X114829416Y-64530000D03*
%TO.P,J8,1,O*%
%TO.N,/Z-Stop*%
X112289416Y-64530000D03*
D17*
X112299416Y-63265000D03*
D16*
%TO.P,J8,2,G*%
%TO.N,/GND*%
X109749416Y-64530000D03*
D18*
X109759416Y-63265000D03*
D16*
%TO.P,J8,3,V*%
%TO.N,/5V*%
X107209416Y-64530000D03*
D18*
X107219416Y-63265000D03*
D16*
%TO.P,J8,4,CS*%
%TO.N,/CS*%
X107209416Y-59480000D03*
D17*
X107219416Y-60725000D03*
D16*
%TO.P,J8,5,MI*%
%TO.N,/MI*%
X109749416Y-59480000D03*
D18*
X109759416Y-60725000D03*
D16*
%TO.P,J8,6,MO*%
%TO.N,/MO*%
X112289416Y-59480000D03*
D18*
X112299416Y-60725000D03*
D16*
%TO.P,J8,7,SC*%
%TO.N,/SC*%
X114829416Y-59480000D03*
D18*
X114839416Y-60725000D03*
%TD*%
D19*
%TO.P,J9,1,Pin_1*%
%TO.N,/\u00B5Probe*%
X107869416Y-69000000D03*
D20*
%TO.P,J9,2,Pin_2*%
%TO.N,/GND*%
X109869416Y-69000000D03*
%TO.P,J9,3,Pin_3*%
%TO.N,/Servo*%
X111869416Y-69000000D03*
%TO.P,J9,4,Pin_4*%
%TO.N,/5V*%
X113869416Y-69000000D03*
%TO.P,J9,5,Pin_5*%
%TO.N,/GND*%
X115869416Y-69000000D03*
%TD*%
D21*
%TO.P,J1,1,Pin_1*%
%TO.N,/Heater-*%
X125800000Y-53000000D03*
%TO.P,J1,2,Pin_2*%
%TO.N,/+24V*%
X125800000Y-48200000D03*
%TD*%
D22*
%TO.P,J7,1,Pin_1*%
%TO.N,/+24V*%
X102559416Y-70440000D03*
D23*
%TO.P,J7,2,Pin_2*%
%TO.N,/FAN3- Part*%
X102559416Y-67940000D03*
%TD*%
D22*
%TO.P,J6,1,Pin_1*%
%TO.N,/+24V*%
X122199416Y-70460000D03*
D23*
%TO.P,J6,2,Pin_2*%
%TO.N,/FAN2- Heatbreak*%
X122199416Y-67960000D03*
%TD*%
D24*
%TO.N,/Z-Stop*%
X119699000Y-54870097D02*
X120559097Y-54010000D01*
X115816019Y-62563213D02*
X116751000Y-61628232D01*
X113001203Y-62563213D02*
X115816019Y-62563213D01*
X117400000Y-57000000D02*
X119291480Y-57000000D01*
X116751000Y-57649000D02*
X117400000Y-57000000D01*
X119699000Y-56592480D02*
X119699000Y-54870097D01*
X120559097Y-54010000D02*
X121580000Y-54010000D01*
X116751000Y-61628232D02*
X116751000Y-57649000D01*
X119291480Y-57000000D02*
X119699000Y-56592480D01*
X112299416Y-63265000D02*
X113001203Y-62563213D01*
%TO.N,/5V*%
X110858817Y-67558817D02*
X110100000Y-66800000D01*
D25*
X113809416Y-68980000D02*
X113809416Y-69450000D01*
D24*
X113274000Y-70226000D02*
X111475500Y-70226000D01*
X111475500Y-70226000D02*
X110858817Y-69609317D01*
X110858817Y-69609317D02*
X110858817Y-67558817D01*
D25*
X107219416Y-64977000D02*
X107219416Y-63265000D01*
D24*
X113869416Y-69000000D02*
X113869416Y-69630584D01*
X113869416Y-69630584D02*
X113274000Y-70226000D01*
X110100000Y-66800000D02*
X109242416Y-66800000D01*
X107219416Y-64819416D02*
X107219416Y-63265000D01*
D25*
X113809416Y-69450000D02*
X113869416Y-69510000D01*
D24*
X109242416Y-66800000D02*
X107209416Y-64767000D01*
X107209416Y-64767000D02*
X107209416Y-64530000D01*
D25*
X107209416Y-65605000D02*
X107209416Y-64530000D01*
%TO.N,/GND*%
X121789416Y-65200000D02*
X123709416Y-63280000D01*
D26*
X109869416Y-68269416D02*
X108800000Y-67200000D01*
X110371416Y-70777000D02*
X109869416Y-70275000D01*
X105968416Y-56473468D02*
X101395909Y-51900961D01*
X115223000Y-70777000D02*
X110371416Y-70777000D01*
D25*
X109749416Y-69390000D02*
X109869416Y-69510000D01*
X119600000Y-65200000D02*
X121789416Y-65200000D01*
X109869416Y-64650000D02*
X109749416Y-64530000D01*
D26*
X105968416Y-66166000D02*
X105968416Y-63000000D01*
D25*
X120949416Y-56010000D02*
X121169416Y-56010000D01*
D26*
X109869416Y-70275000D02*
X109869416Y-69000000D01*
X105968416Y-63000000D02*
X105968416Y-62746818D01*
X106701234Y-62014000D02*
X108508416Y-62014000D01*
X115869416Y-69000000D02*
X115869416Y-70130584D01*
D25*
X115869416Y-68930584D02*
X119600000Y-65200000D01*
D26*
X108800000Y-67200000D02*
X107002416Y-67200000D01*
X107002416Y-67200000D02*
X105968416Y-66166000D01*
D25*
X123709416Y-63280000D02*
X123709416Y-58139416D01*
X115869416Y-69510000D02*
X115869416Y-68930584D01*
D26*
X105968416Y-63000000D02*
X105968416Y-56473468D01*
X115869416Y-70130584D02*
X115223000Y-70777000D01*
X109869416Y-69000000D02*
X109869416Y-68269416D01*
D25*
X123709416Y-58139416D02*
X121580000Y-56010000D01*
D26*
X108508416Y-62014000D02*
X109759416Y-63265000D01*
X105968416Y-62746818D02*
X106701234Y-62014000D01*
%TO.N,/Servo*%
X111048416Y-62014000D02*
X111050203Y-62012213D01*
X116200000Y-56700000D02*
X116890000Y-56010000D01*
X116200000Y-61400000D02*
X116200000Y-56700000D01*
X111869416Y-67269416D02*
X111048416Y-66448416D01*
X111048416Y-66448416D02*
X111048416Y-62014000D01*
X116890000Y-56010000D02*
X118400000Y-56010000D01*
X115587787Y-62012213D02*
X116200000Y-61400000D01*
X111869416Y-69000000D02*
X111869416Y-67269416D01*
X111050203Y-62012213D02*
X115587787Y-62012213D01*
%TO.N,/TH0+*%
X121010000Y-52010000D02*
X120000000Y-51000000D01*
X112854393Y-52700000D02*
X105800000Y-52700000D01*
X114900000Y-48654489D02*
X114900000Y-50654393D01*
X102900000Y-49800000D02*
X100500000Y-49800000D01*
X121580000Y-52010000D02*
X121010000Y-52010000D01*
X100500000Y-49800000D02*
X99601000Y-50699000D01*
X120000000Y-47509686D02*
X119499314Y-47009000D01*
X105800000Y-52700000D02*
X102900000Y-49800000D01*
X99601000Y-50699000D02*
X99601000Y-53167914D01*
X120000000Y-51000000D02*
X120000000Y-47509686D01*
X114900000Y-50654393D02*
X112854393Y-52700000D01*
X99601000Y-53167914D02*
X100748862Y-54315776D01*
X119499314Y-47009000D02*
X116545489Y-47009000D01*
X116545489Y-47009000D02*
X114900000Y-48654489D01*
%TO.N,/+24V*%
X122740000Y-70460000D02*
X123799000Y-69401000D01*
X122199416Y-70460000D02*
X122740000Y-70460000D01*
X123800000Y-66518477D02*
X126099000Y-64219477D01*
X126099000Y-64219477D02*
X126099000Y-57301000D01*
X129208864Y-56400000D02*
X129800000Y-55808864D01*
X123799000Y-69401000D02*
X123799000Y-66709636D01*
D25*
X122199416Y-69940000D02*
X122199416Y-70460000D01*
D26*
X123800000Y-66708636D02*
X123800000Y-66518477D01*
X120158416Y-72501000D02*
X104620416Y-72501000D01*
X129800000Y-50800000D02*
X129000000Y-50000000D01*
X102559416Y-70610000D02*
X102559416Y-70440000D01*
X123799000Y-66709636D02*
X123800000Y-66708636D01*
X129800000Y-55808864D02*
X129800000Y-50800000D01*
X122199416Y-70460000D02*
X120158416Y-72501000D01*
X104620416Y-72501000D02*
X102559416Y-70440000D01*
X127000000Y-56400000D02*
X129208864Y-56400000D01*
X129000000Y-50000000D02*
X127600000Y-50000000D01*
X102659416Y-70510000D02*
X102559416Y-70610000D01*
X126099000Y-57301000D02*
X127000000Y-56400000D01*
%TO.N,/CS*%
X107209416Y-59480000D02*
X107209416Y-58290584D01*
X110200000Y-56900000D02*
X115881348Y-51218652D01*
X116990000Y-48010000D02*
X118400000Y-48010000D01*
X115881348Y-51218652D02*
X115881348Y-49118652D01*
X117769416Y-48010000D02*
X117769416Y-48171155D01*
X107209416Y-58290584D02*
X108600000Y-56900000D01*
X108600000Y-56900000D02*
X110200000Y-56900000D01*
X115881348Y-49118652D02*
X116990000Y-48010000D01*
%TO.N,/MI*%
X116800000Y-51900000D02*
X109749416Y-58950584D01*
X109749416Y-58950584D02*
X109749416Y-59480000D01*
X116800000Y-50500000D02*
X116800000Y-51900000D01*
X118400000Y-50010000D02*
X117290000Y-50010000D01*
X117290000Y-50010000D02*
X116800000Y-50500000D01*
D27*
X109779416Y-58250000D02*
X109726186Y-58303230D01*
%TO.N,/MO*%
X112299416Y-58220000D02*
X112290501Y-58228915D01*
D26*
X112289416Y-57910584D02*
X118190000Y-52010000D01*
X112289416Y-59480000D02*
X112289416Y-57910584D01*
X118190000Y-52010000D02*
X118400000Y-52010000D01*
%TO.N,/SC*%
X118400000Y-54010000D02*
X117690000Y-54010000D01*
X117690000Y-54010000D02*
X114829416Y-56870584D01*
D27*
X114839416Y-58270000D02*
X114819416Y-58290000D01*
D26*
X114829416Y-56870584D02*
X114829416Y-59480000D01*
%TO.N,/FAN2- Heatbreak*%
X123958000Y-55138909D02*
X123457000Y-54637909D01*
X123457000Y-49887000D02*
X121580000Y-48010000D01*
X125462416Y-64006117D02*
X125462416Y-57413300D01*
X122199416Y-67960000D02*
X122199416Y-67269119D01*
X122199416Y-67269119D02*
X125462416Y-64006117D01*
X123958000Y-55908884D02*
X123958000Y-55138909D01*
X125462416Y-57413300D02*
X123958000Y-55908884D01*
X123457000Y-54637909D02*
X123457000Y-49887000D01*
%TO.N,/FAN3- Part*%
X122217395Y-66401196D02*
X124861416Y-63757175D01*
X122856000Y-54886851D02*
X122856000Y-51286000D01*
X107679000Y-71879000D02*
X115921000Y-71879000D01*
X122856000Y-51286000D02*
X121580000Y-50010000D01*
X115921000Y-71879000D02*
X121398804Y-66401196D01*
X103740000Y-67940000D02*
X107679000Y-71879000D01*
X124861416Y-57662242D02*
X123357000Y-56157826D01*
X121398804Y-66401196D02*
X122217395Y-66401196D01*
X123357000Y-55387851D02*
X122856000Y-54886851D01*
X123357000Y-56157826D02*
X123357000Y-55387851D01*
X124861416Y-63757175D02*
X124861416Y-57662242D01*
X102559416Y-67940000D02*
X103740000Y-67940000D01*
D24*
%TO.N,/\u00B5Probe*%
X120200000Y-55672083D02*
X120813083Y-55059000D01*
X120200000Y-56800000D02*
X120200000Y-55672083D01*
X118400000Y-58010000D02*
X118990000Y-58010000D01*
X118990000Y-58010000D02*
X120200000Y-56800000D01*
X122806000Y-56386058D02*
X124310416Y-57890474D01*
X122806000Y-55616083D02*
X122806000Y-56386058D01*
X108728000Y-71328000D02*
X107869416Y-70469416D01*
X107869416Y-70469416D02*
X107869416Y-69000000D01*
X121170572Y-65850196D02*
X115692768Y-71328000D01*
X124310416Y-57890474D02*
X124310416Y-63528944D01*
X115692768Y-71328000D02*
X108728000Y-71328000D01*
X121989164Y-65850196D02*
X121170572Y-65850196D01*
X107869416Y-69510000D02*
X107869416Y-69000000D01*
X120813083Y-55059000D02*
X122248917Y-55059000D01*
X122248917Y-55059000D02*
X122806000Y-55616083D01*
X124310416Y-63528944D02*
X121989164Y-65850196D01*
D25*
%TO.N,/5V*%
X113869416Y-69000000D02*
X117352000Y-65517416D01*
X117352000Y-60248000D02*
X118539000Y-59061000D01*
X119339000Y-59061000D02*
X120390000Y-58010000D01*
X118539000Y-59061000D02*
X119339000Y-59061000D01*
X117352000Y-65517416D02*
X117352000Y-60248000D01*
X120390000Y-58010000D02*
X121580000Y-58010000D01*
%TD*%
M02*
