M48
; DRILL file {KiCad 9.0.4} date 2025-09-30T02:21:26-0700
; FORMAT={-:-/ absolute / metric / decimal}
; #@! TF.CreationDate,2025-09-30T02:21:26-07:00
; #@! TF.GenerationSoftware,Kicad,Pcbnew,9.0.4
; #@! TF.FileFunction,Plated,1,2,PTH
FMAT,2
METRIC
; #@! TA.AperFunction,Plated,PTH,ComponentDrill
T1C0.750
; #@! TA.AperFunction,Plated,PTH,ComponentDrill
T2C1.000
; #@! TA.AperFunction,Plated,PTH,ComponentDrill
T3C1.150
; #@! TA.AperFunction,Plated,PTH,ComponentDrill
T4C1.800
%
G90
G05
T1
X107.869Y-69.51
X109.869Y-69.51
X111.869Y-69.51
X113.869Y-69.51
X115.869Y-69.51
X117.769Y-48.01
X117.769Y-50.01
X117.769Y-52.01
X117.769Y-54.01
X117.769Y-56.01
X117.769Y-58.01
X120.949Y-48.01
X120.949Y-50.01
X120.949Y-52.01
X120.949Y-54.01
X120.949Y-56.01
X120.949Y-58.01
T2
X101.534Y-52.24
X101.534Y-54.74
X102.559Y-67.94
X102.559Y-70.44
X107.219Y-60.725
X107.219Y-63.265
X109.759Y-60.725
X109.759Y-63.265
X112.299Y-60.725
X112.299Y-63.265
X114.839Y-60.725
X122.199Y-67.96
X122.199Y-70.46
T3
X125.269Y-50.09
X125.269Y-54.89
T4
X127.359Y-50.0
X127.359Y-55.0
M30
