M48
; DRILL file {KiCad 9.0.4} date 2025-09-24T12:45:05-0700
; FORMAT={-:-/ absolute / metric / decimal}
; #@! TF.CreationDate,2025-09-24T12:45:05-07:00
; #@! TF.GenerationSoftware,Kicad,Pcbnew,9.0.4
; #@! TF.FileFunction,Plated,1,2,PTH
FMAT,2
METRIC
; #@! TA.AperFunction,Plated,PTH,ViaDrill
T1C0.300
; #@! TA.AperFunction,Plated,PTH,ViaDrill
T2C0.750
; #@! TA.AperFunction,Plated,PTH,ComponentDrill
T3C0.750
; #@! TA.AperFunction,Plated,PTH,ComponentDrill
T4C1.000
; #@! TA.AperFunction,Plated,PTH,ComponentDrill
T5C1.200
; #@! TA.AperFunction,Plated,PTH,ComponentDrill
T6C1.800
; #@! TA.AperFunction,Plated,PTH,ViaDrill
T7C3.125
; #@! TA.AperFunction,Plated,PTH,ViaDrill
T8C4.000
%
G90
G05
T1
X103.59Y-58.51
X112.782Y-61.822
X115.347Y-61.822
X117.911Y-61.822
X120.44Y-61.9
T2
X103.79Y-63.83
X109.74Y-54.44
X115.43Y-68.96
T3
X100.33Y-52.48
X100.33Y-54.48
X100.33Y-56.48
X100.33Y-58.48
X100.33Y-60.48
X100.33Y-62.48
X105.84Y-52.47
X105.84Y-54.47
X105.84Y-56.47
X105.84Y-58.47
X105.84Y-60.47
X111.64Y-57.48
X113.64Y-57.48
X115.64Y-57.48
X117.64Y-57.48
X119.64Y-57.48
X121.64Y-57.48
T4
X101.38Y-67.93
X101.38Y-70.43
X112.84Y-64.23
X112.84Y-66.77
X115.38Y-64.23
X115.38Y-66.77
X117.92Y-64.23
X117.92Y-66.77
X120.46Y-64.23
X120.46Y-66.77
X126.84Y-52.95
X126.84Y-55.45
X131.785Y-67.99
X131.785Y-70.49
T5
X126.1Y-59.89
X128.64Y-59.89
T6
X133.0Y-54.69
X133.0Y-59.69
T7
X107.75Y-65.5
X126.25Y-65.5
T8
X117.45Y-52.4
M30
